# 
# Generated by Sweet Home 3D - Mon Apr 10 18:19:12 CDT 2017
# http://www.sweethome3d.com/
# 
mtllib 1.mtl
g wall_1_1
usemtl wall_1_1
v 274.16666 0.0 183.20862
v 224.63666 0.0 232.73862
v 227.33073 0.0 235.4327
v 276.86075 0.0 185.9027
vn 0.0 -1.0 0.0
f 4//1 3//1 2//1
f 4//1 2//1 1//1
g wall_1_2
usemtl wall_1_1
v 271.47256 0.0 180.51454
v 221.94258 0.0 230.04454
f 1//1 2//1 6//1
f 1//1 6//1 5//1
g wall_1_3
usemtl wall_1_1
v 227.33073 152.5 235.4327
v 224.63666 152.5 232.73862
v 276.86075 152.5 185.9027
v 274.16666 152.5 183.20862
vt 0.0 0.0 0
vt 0.12095236 0.0 0
vt 0.12095236 4.84127 0
vt 0.0 4.84127 0
vt -2.2236826 0.0 0
vt -2.2236826 4.84127 0
vt 0.12095271 0.0 0
vt 0.12095271 4.84127 0
vn -0.70710677 0.0 0.70710677
vn 0.70710665 0.0 0.7071069
vn 0.7071048 0.0 -0.7071088
vn 0.0 0.0 0.0
f 2/1/2 3/2/2 7/3/2 8/4/2
f 3/5/3 4/1/3 9/4/3 7/6/3
f 4/1/4 1/7/4 10/8/4 9/4/4
g wall_1_4
usemtl wall_1_1
v 221.94258 152.5 230.04454
v 271.47256 152.5 180.51454
vt 2.223682 0.0 0
vt 2.223682 4.84127 0
vn -0.7071069 0.0 -0.70710665
f 5/1/6 6/9/6 11/10/6 12/4/6
f 6/1/2 2/2/2 8/3/2 11/4/2
f 1/1/4 5/7/4 12/8/4 10/4/4
g wall_1_5
usemtl wall_1_1
vn 0.0 1.0 0.0
f 10//7 8//7 7//7
f 10//7 7//7 9//7
g wall_1_6
usemtl wall_1_1
f 12//7 11//7 8//7
f 12//7 8//7 10//7
g wall_2_7
usemtl wall_1_1
v 274.16666 0.0 366.08862
v 277.97665 0.0 366.08862
v 277.97665 0.0 183.20862
f 15//1 14//1 13//1
f 15//1 13//1 1//1
g wall_2_8
usemtl wall_1_1
v 270.35666 0.0 183.20862
v 270.35666 0.0 366.08862
f 1//1 13//1 17//1
f 1//1 17//1 16//1
g wall_2_9
usemtl wall_1_1
v 277.97665 152.5 366.08862
v 274.16666 152.5 366.08862
v 277.97665 152.5 183.20862
vt 0.1209523 0.0 0
vt 0.1209523 4.84127 0
vt -5.8057146 0.0 0
vt -5.8057146 4.84127 0
vn 0.0 0.0 1.0
vn 1.0 0.0 0.0
vn 0.0 0.0 -1.0
f 13/1/8 14/11/8 18/12/8 19/4/8
f 14/13/9 15/1/9 20/4/9 18/14/9
f 15/1/10 1/11/10 10/12/10 20/4/10
g wall_2_10
usemtl wall_1_1
v 270.35666 152.5 366.08862
v 270.35666 152.5 183.20862
vt 5.8057146 0.0 0
vt 5.8057146 4.84127 0
vn -1.0 0.0 0.0
f 16/1/11 17/15/11 21/16/11 22/4/11
f 17/1/8 13/11/8 19/12/8 21/4/8
f 1/1/10 16/11/10 22/12/10 10/4/10
g wall_2_11
usemtl wall_1_1
f 10//7 19//7 18//7
f 10//7 18//7 20//7
g wall_2_12
usemtl wall_1_1
f 22//7 21//7 19//7
f 22//7 19//7 10//7
g wall_3_13
usemtl wall_1_1
v 224.63666 0.0 362.27863
v 224.63666 0.0 366.08862
v 322.42667 0.0 366.08862
v 322.42667 0.0 362.27863
f 26//1 25//1 24//1
f 26//1 24//1 23//1
g wall_3_14
usemtl wall_1_1
v 224.63666 0.0 369.89862
v 322.42667 0.0 369.89862
f 25//1 28//1 27//1
f 25//1 27//1 24//1
g wall_3_15
usemtl wall_1_1
v 224.63666 152.5 366.08862
v 224.63666 152.5 362.27863
v 322.42667 152.5 362.27863
v 322.42667 152.5 366.08862
vt -3.1044447 0.0 0
vt -3.1044447 4.84127 0
f 23/1/11 24/11/11 29/12/11 30/4/11
f 25/1/9 26/11/9 31/12/9 32/4/9
f 26/17/10 23/1/10 30/4/10 31/18/10
g wall_3_16
usemtl wall_1_1
v 224.63666 152.5 369.89862
v 322.42667 152.5 369.89862
vt 3.1044447 0.0 0
vt 3.1044447 4.84127 0
f 24/1/11 27/11/11 33/12/11 29/4/11
f 27/1/8 28/19/8 34/20/8 33/4/8
f 28/1/9 25/11/9 32/12/9 34/4/9
g wall_3_17
usemtl wall_1_1
f 30//7 29//7 32//7
f 30//7 32//7 31//7
g wall_3_18
usemtl wall_1_1
f 29//7 33//7 34//7
f 29//7 34//7 32//7
