# 
# Generated by Sweet Home 3D - Sat Apr 01 20:51:45 CST 2017
# http://www.sweethome3d.com/
# 
mtllib 1.mtl
g wall_1_1
usemtl wall_1_1
v 274.16666 0.0 183.20862
v 224.63666 0.0 232.73862
v 227.33073 0.0 235.4327
v 276.86075 0.0 185.9027
vn 0.0 -1.0 0.0
f 4//1 3//1 2//1
f 4//1 2//1 1//1
g wall_1_2
usemtl wall_1_1
v 271.47256 0.0 180.51454
v 221.94258 0.0 230.04454
f 1//1 2//1 6//1
f 1//1 6//1 5//1
g wall_1_3
usemtl wall_1_1
v 227.33073 152.5 235.4327
v 224.63666 152.5 232.73862
v 276.86075 152.5 185.9027
v 274.16666 152.5 183.20862
vn -0.70710677 0.0 0.70710677
vn 0.70710665 0.0 0.7071069
vn 0.7071048 0.0 -0.7071088
vn 0.0 0.0 0.0
f 2//2 3//2 7//2 8//2
f 3//3 4//3 9//3 7//3
f 4//4 1//4 10//4 9//4
g wall_1_4
usemtl wall_1_1
v 221.94258 152.5 230.04454
v 271.47256 152.5 180.51454
vn -0.7071069 0.0 -0.70710665
f 5//6 6//6 11//6 12//6
f 6//2 2//2 8//2 11//2
f 1//4 5//4 12//4 10//4
g wall_1_5
usemtl wall_1_1
vn 0.0 1.0 0.0
f 10//7 8//7 7//7
f 10//7 7//7 9//7
g wall_1_6
usemtl wall_1_1
f 12//7 11//7 8//7
f 12//7 8//7 10//7
g wall_2_7
usemtl wall_1_1
v 274.16666 0.0 366.08862
v 277.97665 0.0 366.08862
v 277.97665 0.0 183.20862
f 15//1 14//1 13//1
f 15//1 13//1 1//1
g wall_2_8
usemtl wall_1_1
v 270.35666 0.0 183.20862
v 270.35666 0.0 366.08862
f 1//1 13//1 17//1
f 1//1 17//1 16//1
g wall_2_9
usemtl wall_1_1
v 277.97665 152.5 366.08862
v 274.16666 152.5 366.08862
v 277.97665 152.5 183.20862
vn 0.0 0.0 1.0
vn 1.0 0.0 0.0
vn 0.0 0.0 -1.0
f 13//8 14//8 18//8 19//8
f 14//9 15//9 20//9 18//9
f 15//10 1//10 10//10 20//10
g wall_2_10
usemtl wall_1_1
v 270.35666 152.5 366.08862
v 270.35666 152.5 183.20862
vn -1.0 0.0 0.0
f 16//11 17//11 21//11 22//11
f 17//8 13//8 19//8 21//8
f 1//10 16//10 22//10 10//10
g wall_2_11
usemtl wall_1_1
f 10//7 19//7 18//7
f 10//7 18//7 20//7
g wall_2_12
usemtl wall_1_1
f 22//7 21//7 19//7
f 22//7 19//7 10//7
g wall_3_13
usemtl wall_1_1
v 224.63666 0.0 362.27863
v 224.63666 0.0 366.08862
v 322.42667 0.0 366.08862
v 322.42667 0.0 362.27863
f 26//1 25//1 24//1
f 26//1 24//1 23//1
g wall_3_14
usemtl wall_1_1
v 224.63666 0.0 369.89862
v 322.42667 0.0 369.89862
f 25//1 28//1 27//1
f 25//1 27//1 24//1
g wall_3_15
usemtl wall_1_1
v 224.63666 152.5 366.08862
v 224.63666 152.5 362.27863
v 322.42667 152.5 362.27863
v 322.42667 152.5 366.08862
f 23//11 24//11 29//11 30//11
f 25//9 26//9 31//9 32//9
f 26//10 23//10 30//10 31//10
g wall_3_16
usemtl wall_1_1
v 224.63666 152.5 369.89862
v 322.42667 152.5 369.89862
f 24//11 27//11 33//11 29//11
f 27//8 28//8 34//8 33//8
f 28//9 25//9 32//9 34//9
g wall_3_17
usemtl wall_1_1
f 30//7 29//7 32//7
f 30//7 32//7 31//7
g wall_3_18
usemtl wall_1_1
f 29//7 33//7 34//7
f 29//7 34//7 32//7
