# 
# Generated by Sweet Home 3D - Sun Apr 02 22:17:31 CDT 2017
# http://www.sweethome3d.com/
# 
mtllib 10.mtl
g wall_1_1
usemtl wall_1_1
v 1088.1666 0.0 455.20862
v 1038.6367 0.0 504.73862
v 1041.3308 0.0 507.43268
v 1090.8607 0.0 457.90268
vn 0.0 -1.0 0.0
f 4//1 3//1 2//1
f 4//1 2//1 1//1
g wall_1_2
usemtl wall_1_1
v 1085.4725 0.0 452.51456
v 1035.9426 0.0 502.04456
f 1//1 2//1 6//1
f 1//1 6//1 5//1
g wall_1_3
usemtl wall_1_1
v 1041.3308 152.5 507.43268
v 1038.6367 152.5 504.73862
v 1090.8607 152.5 457.90268
v 1088.1666 152.5 455.20862
vn -0.7071028 0.0 0.70711076
vn 0.7071074 0.0 0.7071062
vn 0.7071028 0.0 -0.70711076
vn 0.0 0.0 0.0
f 2//2 3//2 7//2 8//2
f 3//3 4//3 9//3 7//3
f 4//4 1//4 10//4 9//4
g wall_1_4
usemtl wall_1_1
v 1035.9426 152.5 502.04456
v 1085.4725 152.5 452.51456
vn -0.7071074 0.0 -0.7071062
f 5//6 6//6 11//6 12//6
f 6//2 2//2 8//2 11//2
f 1//4 5//4 12//4 10//4
g wall_1_5
usemtl wall_1_1
vn 0.0 1.0 0.0
f 10//7 8//7 7//7
f 10//7 7//7 9//7
g wall_1_6
usemtl wall_1_1
f 12//7 11//7 8//7
f 12//7 8//7 10//7
g wall_2_7
usemtl wall_1_1
v 1088.1666 0.0 638.0886
v 1091.9767 0.0 638.0886
v 1091.9767 0.0 455.20862
f 15//1 14//1 13//1
f 15//1 13//1 1//1
g wall_2_8
usemtl wall_1_1
v 1084.3566 0.0 455.20862
v 1084.3566 0.0 638.0886
f 1//1 13//1 17//1
f 1//1 17//1 16//1
g wall_2_9
usemtl wall_1_1
v 1091.9767 152.5 638.0886
v 1088.1666 152.5 638.0886
v 1091.9767 152.5 455.20862
vn 0.0 0.0 1.0
vn 1.0 0.0 0.0
vn 0.0 0.0 -1.0
f 13//8 14//8 18//8 19//8
f 14//9 15//9 20//9 18//9
f 15//10 1//10 10//10 20//10
g wall_2_10
usemtl wall_1_1
v 1084.3566 152.5 638.0886
v 1084.3566 152.5 455.20862
vn -1.0 0.0 0.0
f 16//11 17//11 21//11 22//11
f 17//8 13//8 19//8 21//8
f 1//10 16//10 22//10 10//10
g wall_2_11
usemtl wall_1_1
f 10//7 19//7 18//7
f 10//7 18//7 20//7
g wall_2_12
usemtl wall_1_1
f 22//7 21//7 19//7
f 22//7 19//7 10//7
g wall_3_13
usemtl wall_1_1
v 1038.6367 0.0 634.2786
v 1038.6367 0.0 638.0886
v 1136.4266 0.0 638.0886
v 1136.4266 0.0 634.2786
f 26//1 25//1 24//1
f 26//1 24//1 23//1
g wall_3_14
usemtl wall_1_1
v 1038.6367 0.0 641.8986
v 1136.4266 0.0 641.8986
f 25//1 28//1 27//1
f 25//1 27//1 24//1
g wall_3_15
usemtl wall_1_1
v 1038.6367 152.5 638.0886
v 1038.6367 152.5 634.2786
v 1136.4266 152.5 634.2786
v 1136.4266 152.5 638.0886
f 23//11 24//11 29//11 30//11
f 25//9 26//9 31//9 32//9
f 26//10 23//10 30//10 31//10
g wall_3_16
usemtl wall_1_1
v 1038.6367 152.5 641.8986
v 1136.4266 152.5 641.8986
f 24//11 27//11 33//11 29//11
f 27//8 28//8 34//8 33//8
f 28//9 25//9 32//9 34//9
g wall_3_17
usemtl wall_1_1
f 30//7 29//7 32//7
f 30//7 32//7 31//7
g wall_3_18
usemtl wall_1_1
f 29//7 33//7 34//7
f 29//7 34//7 32//7
g wall_4_19
usemtl wall_1_1
v 1167.5 0.0 456.98633
v 1167.5 0.0 637.3263
v 1171.31 0.0 633.5163
v 1171.31 0.0 456.98633
f 38//1 37//1 36//1
f 38//1 36//1 35//1
g wall_4_20
usemtl wall_1_1
v 1163.69 0.0 456.98633
v 1163.69 0.0 641.1363
f 35//1 36//1 40//1
f 35//1 40//1 39//1
g wall_4_21
usemtl wall_1_1
v 1171.31 152.5 633.5163
v 1167.5 152.5 637.3263
v 1171.31 152.5 456.98633
v 1167.5 152.5 456.98633
vn 0.70710117 0.0 0.70711243
f 36//12 37//12 41//12 42//12
f 37//9 38//9 43//9 41//9
f 38//10 35//10 44//10 43//10
g wall_4_22
usemtl wall_1_1
v 1163.69 152.5 641.1363
v 1163.69 152.5 456.98633
f 39//11 40//11 45//11 46//11
f 40//12 36//12 42//12 45//12
f 35//10 39//10 46//10 44//10
g wall_4_23
usemtl wall_1_1
f 44//7 42//7 41//7
f 44//7 41//7 43//7
g wall_4_24
usemtl wall_1_1
f 46//7 45//7 42//7
f 46//7 42//7 44//7
g wall_5_25
usemtl wall_1_1
v 1260.21 0.0 637.3263
v 1256.3715 0.0 633.5163
f 48//1 47//1 36//1
f 48//1 36//1 37//1
g wall_5_26
usemtl wall_1_1
v 1264.0485 0.0 641.1363
f 47//1 49//1 40//1
f 47//1 40//1 36//1
g wall_5_27
usemtl wall_1_1
v 1256.3715 152.5 633.5163
v 1260.21 152.5 637.3263
vn -0.70710117 0.0 -0.70711243
vn 0.70446676 0.0 -0.709737
f 37//13 36//13 42//13 41//13
f 47//14 48//14 50//14 51//14
f 48//10 37//10 41//10 50//10
g wall_5_28
usemtl wall_1_1
v 1264.0485 152.5 641.1363
f 36//13 40//13 45//13 42//13
f 40//8 49//8 52//8 45//8
f 49//14 47//14 51//14 52//14
g wall_5_29
usemtl wall_1_1
f 41//7 42//7 51//7
f 41//7 51//7 50//7
g wall_5_30
usemtl wall_1_1
f 42//7 45//7 52//7
f 42//7 52//7 51//7
g wall_6_31
usemtl wall_1_1
v 1258.8766 0.0 458.32812
v 1255.0947 0.0 462.125
f 47//1 48//1 54//1
f 47//1 54//1 53//1
g wall_6_32
usemtl wall_1_1
v 1262.6584 0.0 454.53125
f 49//1 47//1 53//1
f 49//1 53//1 55//1
g wall_6_33
usemtl wall_1_1
v 1255.0947 152.5 462.125
v 1258.8766 152.5 458.32812
vn -0.7085063 0.0 -0.7057045
vn -0.9999723 0.0 0.007449025
vn -0.70446676 0.0 0.709737
f 53//15 54//15 56//15 57//15
f 54//16 48//16 50//16 56//16
f 48//17 47//17 51//17 50//17
g wall_6_34
usemtl wall_1_1
v 1262.6584 152.5 454.53125
vn 0.9999722 0.0 -0.0074487594
f 55//15 53//15 57//15 58//15
f 47//17 49//17 52//17 51//17
f 49//18 55//18 58//18 52//18
g wall_6_35
usemtl wall_1_1
f 57//7 56//7 50//7
f 57//7 50//7 51//7
g wall_6_36
usemtl wall_1_1
f 58//7 57//7 51//7
f 58//7 51//7 52//7
g wall_7_37
usemtl wall_1_1
v 1258.8766 0.0 458.31735
v 1163.6266 0.0 458.3197
v 1163.6266 0.0 462.1297
f 54//1 61//1 60//1
f 54//1 60//1 59//1
g wall_7_38
usemtl wall_1_1
v 1163.6266 0.0 454.5097
v 1262.6584 0.0 454.5097
f 63//1 59//1 60//1
f 63//1 60//1 62//1
g wall_7_39
usemtl wall_1_1
v 1163.6266 152.5 462.1297
v 1163.6266 152.5 458.3197
v 1258.8766 152.5 458.31735
vn 0.0000514 0.0 1.0
vn 0.70950526 0.0 0.7047002
f 60//11 61//11 64//11 65//11
f 61//19 54//19 56//19 64//19
f 54//20 59//20 66//20 56//20
g wall_7_40
usemtl wall_1_1
v 1163.6266 152.5 454.5097
v 1262.6584 152.5 454.5097
f 62//11 60//11 65//11 67//11
f 59//20 63//20 68//20 66//20
f 63//10 62//10 67//10 68//10
g wall_7_41
usemtl wall_1_1
f 66//7 65//7 64//7
f 66//7 64//7 56//7
g wall_7_42
usemtl wall_1_1
f 67//7 65//7 66//7
f 67//7 66//7 68//7
