# 
# Generated by Sweet Home 3D - Sun Apr 02 22:17:58 CDT 2017
# http://www.sweethome3d.com/
# 
mtllib 11.mtl
g wall_1_1
usemtl wall_1_1
v 1397.0554 0.0 452.98633
v 1347.5255 0.0 502.51636
v 1350.2196 0.0 505.21042
v 1399.7495 0.0 455.6804
vn 0.0 -1.0 0.0
f 4//1 3//1 2//1
f 4//1 2//1 1//1
g wall_1_2
usemtl wall_1_1
v 1394.3613 0.0 450.29227
v 1344.8314 0.0 499.8223
f 1//1 2//1 6//1
f 1//1 6//1 5//1
g wall_1_3
usemtl wall_1_1
v 1350.2196 152.5 505.21042
v 1347.5255 152.5 502.51636
v 1399.7495 152.5 455.6804
v 1397.0554 152.5 452.98633
vn -0.7071028 0.0 0.70711076
vn 0.70710766 0.0 0.70710593
vn 0.7071028 0.0 -0.70711076
vn 0.0 0.0 0.0
f 2//2 3//2 7//2 8//2
f 3//3 4//3 9//3 7//3
f 4//4 1//4 10//4 9//4
g wall_1_4
usemtl wall_1_1
v 1344.8314 152.5 499.8223
v 1394.3613 152.5 450.29227
vn -0.70710766 0.0 -0.70710593
f 5//6 6//6 11//6 12//6
f 6//2 2//2 8//2 11//2
f 1//4 5//4 12//4 10//4
g wall_1_5
usemtl wall_1_1
vn 0.0 1.0 0.0
f 10//7 8//7 7//7
f 10//7 7//7 9//7
g wall_1_6
usemtl wall_1_1
f 12//7 11//7 8//7
f 12//7 8//7 10//7
g wall_2_7
usemtl wall_1_1
v 1397.0554 0.0 635.86633
v 1400.8655 0.0 635.86633
v 1400.8655 0.0 452.98633
f 15//1 14//1 13//1
f 15//1 13//1 1//1
g wall_2_8
usemtl wall_1_1
v 1393.2454 0.0 452.98633
v 1393.2454 0.0 635.86633
f 1//1 13//1 17//1
f 1//1 17//1 16//1
g wall_2_9
usemtl wall_1_1
v 1400.8655 152.5 635.86633
v 1397.0554 152.5 635.86633
v 1400.8655 152.5 452.98633
vn 0.0 0.0 1.0
vn 1.0 0.0 0.0
vn 0.0 0.0 -1.0
f 13//8 14//8 18//8 19//8
f 14//9 15//9 20//9 18//9
f 15//10 1//10 10//10 20//10
g wall_2_10
usemtl wall_1_1
v 1393.2454 152.5 635.86633
v 1393.2454 152.5 452.98633
vn -1.0 0.0 0.0
f 16//11 17//11 21//11 22//11
f 17//8 13//8 19//8 21//8
f 1//10 16//10 22//10 10//10
g wall_2_11
usemtl wall_1_1
f 10//7 19//7 18//7
f 10//7 18//7 20//7
g wall_2_12
usemtl wall_1_1
f 22//7 21//7 19//7
f 22//7 19//7 10//7
g wall_3_13
usemtl wall_1_1
v 1347.5255 0.0 632.05634
v 1347.5255 0.0 635.86633
v 1445.3154 0.0 635.86633
v 1445.3154 0.0 632.05634
f 26//1 25//1 24//1
f 26//1 24//1 23//1
g wall_3_14
usemtl wall_1_1
v 1347.5255 0.0 639.67633
v 1445.3154 0.0 639.67633
f 25//1 28//1 27//1
f 25//1 27//1 24//1
g wall_3_15
usemtl wall_1_1
v 1347.5255 152.5 635.86633
v 1347.5255 152.5 632.05634
v 1445.3154 152.5 632.05634
v 1445.3154 152.5 635.86633
f 23//11 24//11 29//11 30//11
f 25//9 26//9 31//9 32//9
f 26//10 23//10 30//10 31//10
g wall_3_16
usemtl wall_1_1
v 1347.5255 152.5 639.67633
v 1445.3154 152.5 639.67633
f 24//11 27//11 33//11 29//11
f 27//8 28//8 34//8 33//8
f 28//9 25//9 32//9 34//9
g wall_3_17
usemtl wall_1_1
f 30//7 29//7 32//7
f 30//7 32//7 31//7
g wall_3_18
usemtl wall_1_1
f 29//7 33//7 34//7
f 29//7 34//7 32//7
g wall_4_19
usemtl wall_1_1
v 1521.0554 0.0 452.54187
v 1471.5255 0.0 502.07187
v 1474.2196 0.0 504.76593
v 1523.7495 0.0 455.23593
f 38//1 37//1 36//1
f 38//1 36//1 35//1
g wall_4_20
usemtl wall_1_1
v 1518.3613 0.0 449.8478
v 1468.8314 0.0 499.3778
f 35//1 36//1 40//1
f 35//1 40//1 39//1
g wall_4_21
usemtl wall_1_1
v 1474.2196 152.5 504.76593
v 1471.5255 152.5 502.07187
v 1523.7495 152.5 455.23593
v 1521.0554 152.5 452.54187
vn 0.7071074 0.0 0.7071062
f 36//2 37//2 41//2 42//2
f 37//12 38//12 43//12 41//12
f 38//4 35//4 44//4 43//4
g wall_4_22
usemtl wall_1_1
v 1468.8314 152.5 499.3778
v 1518.3613 152.5 449.8478
vn -0.7071074 0.0 -0.7071062
f 39//13 40//13 45//13 46//13
f 40//2 36//2 42//2 45//2
f 35//4 39//4 46//4 44//4
g wall_4_23
usemtl wall_1_1
f 44//7 42//7 41//7
f 44//7 41//7 43//7
g wall_4_24
usemtl wall_1_1
f 46//7 45//7 42//7
f 46//7 42//7 44//7
g wall_5_25
usemtl wall_1_1
v 1521.0554 0.0 635.4219
v 1524.8655 0.0 635.4219
v 1524.8655 0.0 452.54187
f 49//1 48//1 47//1
f 49//1 47//1 35//1
g wall_5_26
usemtl wall_1_1
v 1517.2454 0.0 452.54187
v 1517.2454 0.0 635.4219
f 35//1 47//1 51//1
f 35//1 51//1 50//1
g wall_5_27
usemtl wall_1_1
v 1524.8655 152.5 635.4219
v 1521.0554 152.5 635.4219
v 1524.8655 152.5 452.54187
f 47//8 48//8 52//8 53//8
f 48//9 49//9 54//9 52//9
f 49//10 35//10 44//10 54//10
g wall_5_28
usemtl wall_1_1
v 1517.2454 152.5 635.4219
v 1517.2454 152.5 452.54187
f 50//11 51//11 55//11 56//11
f 51//8 47//8 53//8 55//8
f 35//10 50//10 56//10 44//10
g wall_5_29
usemtl wall_1_1
f 44//7 53//7 52//7
f 44//7 52//7 54//7
g wall_5_30
usemtl wall_1_1
f 56//7 55//7 53//7
f 56//7 53//7 44//7
g wall_6_31
usemtl wall_1_1
v 1471.5255 0.0 631.6119
v 1471.5255 0.0 635.4219
v 1569.3154 0.0 635.4219
v 1569.3154 0.0 631.6119
f 60//1 59//1 58//1
f 60//1 58//1 57//1
g wall_6_32
usemtl wall_1_1
v 1471.5255 0.0 639.2319
v 1569.3154 0.0 639.2319
f 59//1 62//1 61//1
f 59//1 61//1 58//1
g wall_6_33
usemtl wall_1_1
v 1471.5255 152.5 635.4219
v 1471.5255 152.5 631.6119
v 1569.3154 152.5 631.6119
v 1569.3154 152.5 635.4219
f 57//11 58//11 63//11 64//11
f 59//9 60//9 65//9 66//9
f 60//10 57//10 64//10 65//10
g wall_6_34
usemtl wall_1_1
v 1471.5255 152.5 639.2319
v 1569.3154 152.5 639.2319
f 58//11 61//11 67//11 63//11
f 61//8 62//8 68//8 67//8
f 62//9 59//9 66//9 68//9
g wall_6_35
usemtl wall_1_1
f 64//7 63//7 66//7
f 64//7 66//7 65//7
g wall_6_36
usemtl wall_1_1
f 63//7 67//7 68//7
f 63//7 68//7 66//7
