# 
# Generated by Sweet Home 3D - Mon Apr 10 18:26:52 CDT 2017
# http://www.sweethome3d.com/
# 
mtllib 11.mtl
g wall_1_1
usemtl wall_1_1
v 1397.0554 0.0 452.98633
v 1347.5255 0.0 502.51636
v 1350.2196 0.0 505.21042
v 1399.7495 0.0 455.6804
vn 0.0 -1.0 0.0
f 4//1 3//1 2//1
f 4//1 2//1 1//1
g wall_1_2
usemtl wall_1_1
v 1394.3613 0.0 450.29227
v 1344.8314 0.0 499.8223
f 1//1 2//1 6//1
f 1//1 6//1 5//1
g wall_1_3
usemtl wall_1_1
v 1350.2196 152.5 505.21042
v 1347.5255 152.5 502.51636
v 1399.7495 152.5 455.6804
v 1397.0554 152.5 452.98633
vt 0.0 0.0 0
vt 0.12095236 0.0 0
vt 0.12095236 4.84127 0
vt 0.0 4.84127 0
vt -2.223681 0.0 0
vt -2.223681 4.84127 0
vn -0.7071028 0.0 0.70711076
vn 0.70710766 0.0 0.70710593
vn 0.7071028 0.0 -0.70711076
vn 0.0 0.0 0.0
f 2/1/2 3/2/2 7/3/2 8/4/2
f 3/5/3 4/1/3 9/4/3 7/6/3
f 4/1/4 1/2/4 10/3/4 9/4/4
g wall_1_4
usemtl wall_1_1
v 1344.8314 152.5 499.8223
v 1394.3613 152.5 450.29227
vt 2.223681 0.0 0
vt 2.223681 4.84127 0
vn -0.70710766 0.0 -0.70710593
f 5/1/6 6/7/6 11/8/6 12/4/6
f 6/1/2 2/2/2 8/3/2 11/4/2
f 1/1/4 5/2/4 12/3/4 10/4/4
g wall_1_5
usemtl wall_1_1
vn 0.0 1.0 0.0
f 10//7 8//7 7//7
f 10//7 7//7 9//7
g wall_1_6
usemtl wall_1_1
f 12//7 11//7 8//7
f 12//7 8//7 10//7
g wall_2_7
usemtl wall_1_1
v 1397.0554 0.0 635.86633
v 1400.8655 0.0 635.86633
v 1400.8655 0.0 452.98633
f 15//1 14//1 13//1
f 15//1 13//1 1//1
g wall_2_8
usemtl wall_1_1
v 1393.2454 0.0 452.98633
v 1393.2454 0.0 635.86633
f 1//1 13//1 17//1
f 1//1 17//1 16//1
g wall_2_9
usemtl wall_1_1
v 1400.8655 152.5 635.86633
v 1397.0554 152.5 635.86633
v 1400.8655 152.5 452.98633
vt 0.12095424 0.0 0
vt 0.12095424 4.84127 0
vt -5.8057146 0.0 0
vt -5.8057146 4.84127 0
vn 0.0 0.0 1.0
vn 1.0 0.0 0.0
vn 0.0 0.0 -1.0
f 13/1/8 14/9/8 18/10/8 19/4/8
f 14/11/9 15/1/9 20/4/9 18/12/9
f 15/1/10 1/9/10 10/10/10 20/4/10
g wall_2_10
usemtl wall_1_1
v 1393.2454 152.5 635.86633
v 1393.2454 152.5 452.98633
vt 5.8057146 0.0 0
vt 5.8057146 4.84127 0
vn -1.0 0.0 0.0
f 16/1/11 17/13/11 21/14/11 22/4/11
f 17/1/8 13/9/8 19/10/8 21/4/8
f 1/1/10 16/9/10 22/10/10 10/4/10
g wall_2_11
usemtl wall_1_1
f 10//7 19//7 18//7
f 10//7 18//7 20//7
g wall_2_12
usemtl wall_1_1
f 22//7 21//7 19//7
f 22//7 19//7 10//7
g wall_3_13
usemtl wall_1_1
v 1347.5255 0.0 632.05634
v 1347.5255 0.0 635.86633
v 1445.3154 0.0 635.86633
v 1445.3154 0.0 632.05634
f 26//1 25//1 24//1
f 26//1 24//1 23//1
g wall_3_14
usemtl wall_1_1
v 1347.5255 0.0 639.67633
v 1445.3154 0.0 639.67633
f 25//1 28//1 27//1
f 25//1 27//1 24//1
g wall_3_15
usemtl wall_1_1
v 1347.5255 152.5 635.86633
v 1347.5255 152.5 632.05634
v 1445.3154 152.5 632.05634
v 1445.3154 152.5 635.86633
vt 0.1209523 0.0 0
vt 0.1209523 4.84127 0
vt -3.104442 0.0 0
vt -3.104442 4.84127 0
f 23/1/11 24/15/11 29/16/11 30/4/11
f 25/1/9 26/15/9 31/16/9 32/4/9
f 26/17/10 23/1/10 30/4/10 31/18/10
g wall_3_16
usemtl wall_1_1
v 1347.5255 152.5 639.67633
v 1445.3154 152.5 639.67633
vt 3.104442 0.0 0
vt 3.104442 4.84127 0
f 24/1/11 27/15/11 33/16/11 29/4/11
f 27/1/8 28/19/8 34/20/8 33/4/8
f 28/1/9 25/15/9 32/16/9 34/4/9
g wall_3_17
usemtl wall_1_1
f 30//7 29//7 32//7
f 30//7 32//7 31//7
g wall_3_18
usemtl wall_1_1
f 29//7 33//7 34//7
f 29//7 34//7 32//7
g wall_4_19
usemtl wall_1_1
v 1521.0554 0.0 452.54187
v 1471.5255 0.0 502.07187
v 1474.2196 0.0 504.76593
v 1523.7495 0.0 455.23593
f 38//1 37//1 36//1
f 38//1 36//1 35//1
g wall_4_20
usemtl wall_1_1
v 1518.3613 0.0 449.8478
v 1468.8314 0.0 499.3778
f 35//1 36//1 40//1
f 35//1 40//1 39//1
g wall_4_21
usemtl wall_1_1
v 1474.2196 152.5 504.76593
v 1471.5255 152.5 502.07187
v 1523.7495 152.5 455.23593
v 1521.0554 152.5 452.54187
vt -2.2236803 0.0 0
vt -2.2236803 4.84127 0
vn 0.7071074 0.0 0.7071062
f 36/1/2 37/2/2 41/3/2 42/4/2
f 37/21/12 38/1/12 43/4/12 41/22/12
f 38/1/4 35/2/4 44/3/4 43/4/4
g wall_4_22
usemtl wall_1_1
v 1468.8314 152.5 499.3778
v 1518.3613 152.5 449.8478
vt 2.2236803 0.0 0
vt 2.2236803 4.84127 0
vn -0.7071074 0.0 -0.7071062
f 39/1/13 40/23/13 45/24/13 46/4/13
f 40/1/2 36/2/2 42/3/2 45/4/2
f 35/1/4 39/2/4 46/3/4 44/4/4
g wall_4_23
usemtl wall_1_1
f 44//7 42//7 41//7
f 44//7 41//7 43//7
g wall_4_24
usemtl wall_1_1
f 46//7 45//7 42//7
f 46//7 42//7 44//7
g wall_5_25
usemtl wall_1_1
v 1521.0554 0.0 635.4219
v 1524.8655 0.0 635.4219
v 1524.8655 0.0 452.54187
f 49//1 48//1 47//1
f 49//1 47//1 35//1
g wall_5_26
usemtl wall_1_1
v 1517.2454 0.0 452.54187
v 1517.2454 0.0 635.4219
f 35//1 47//1 51//1
f 35//1 51//1 50//1
g wall_5_27
usemtl wall_1_1
v 1524.8655 152.5 635.4219
v 1521.0554 152.5 635.4219
v 1524.8655 152.5 452.54187
f 47/1/8 48/9/8 52/10/8 53/4/8
f 48/11/9 49/1/9 54/4/9 52/12/9
f 49/1/10 35/9/10 44/10/10 54/4/10
g wall_5_28
usemtl wall_1_1
v 1517.2454 152.5 635.4219
v 1517.2454 152.5 452.54187
f 50/1/11 51/13/11 55/14/11 56/4/11
f 51/1/8 47/9/8 53/10/8 55/4/8
f 35/1/10 50/9/10 56/10/10 44/4/10
g wall_5_29
usemtl wall_1_1
f 44//7 53//7 52//7
f 44//7 52//7 54//7
g wall_5_30
usemtl wall_1_1
f 56//7 55//7 53//7
f 56//7 53//7 44//7
g wall_6_31
usemtl wall_1_1
v 1471.5255 0.0 631.6119
v 1471.5255 0.0 635.4219
v 1569.3154 0.0 635.4219
v 1569.3154 0.0 631.6119
f 60//1 59//1 58//1
f 60//1 58//1 57//1
g wall_6_32
usemtl wall_1_1
v 1471.5255 0.0 639.2319
v 1569.3154 0.0 639.2319
f 59//1 62//1 61//1
f 59//1 61//1 58//1
g wall_6_33
usemtl wall_1_1
v 1471.5255 152.5 635.4219
v 1471.5255 152.5 631.6119
v 1569.3154 152.5 631.6119
v 1569.3154 152.5 635.4219
f 57/1/11 58/15/11 63/16/11 64/4/11
f 59/1/9 60/15/9 65/16/9 66/4/9
f 60/17/10 57/1/10 64/4/10 65/18/10
g wall_6_34
usemtl wall_1_1
v 1471.5255 152.5 639.2319
v 1569.3154 152.5 639.2319
f 58/1/11 61/15/11 67/16/11 63/4/11
f 61/1/8 62/19/8 68/20/8 67/4/8
f 62/1/9 59/15/9 66/16/9 68/4/9
g wall_6_35
usemtl wall_1_1
f 64//7 63//7 66//7
f 64//7 66//7 65//7
g wall_6_36
usemtl wall_1_1
f 63//7 67//7 68//7
f 63//7 68//7 66//7
