# 
# Generated by Sweet Home 3D - Mon Apr 10 18:19:24 CDT 2017
# http://www.sweethome3d.com/
# 
mtllib 2.mtl
g wall_1_1
usemtl wall_1_1
v 913.27783 0.0 179.39862
v 913.27783 0.0 183.20862
v 1004.8334 0.0 183.20862
v 1008.6434 0.0 179.39862
vn 0.0 -1.0 0.0
f 4//1 3//1 2//1
f 4//1 2//1 1//1
g wall_1_2
usemtl wall_1_1
v 913.27783 0.0 187.01862
v 1001.0234 0.0 187.01862
f 3//1 6//1 5//1
f 3//1 5//1 2//1
g wall_1_3
usemtl wall_1_1
v 913.27783 152.5 183.20862
v 913.27783 152.5 179.39862
v 1008.6434 152.5 179.39862
v 1004.8334 152.5 183.20862
vt 0.0 0.0 0
vt 0.1209523 0.0 0
vt 0.1209523 4.84127 0
vt 0.0 4.84127 0
vt 0.17105238 0.0 0
vt 0.17105238 4.84127 0
vt -3.0274775 0.0 0
vt -3.0274775 4.84127 0
vn -1.0 0.0 0.0
vn 0.70710677 0.0 0.70710677
vn 0.0 0.0 -1.0
vn 0.0 0.0 0.0
f 1/1/2 2/2/2 7/3/2 8/4/2
f 3/1/3 4/5/3 9/6/3 10/4/3
f 4/7/4 1/1/4 8/4/4 9/8/4
g wall_1_4
usemtl wall_1_1
v 913.27783 152.5 187.01862
v 1001.0234 152.5 187.01862
vt 2.7855728 0.0 0
vt 2.7855728 4.84127 0
vn 0.0 0.0 1.0
f 2/1/2 5/2/2 11/3/2 7/4/2
f 5/1/6 6/9/6 12/10/6 11/4/6
f 6/1/3 3/5/3 10/6/3 12/4/3
g wall_1_5
usemtl wall_1_1
vn 0.0 1.0 0.0
f 8//7 7//7 10//7
f 8//7 10//7 9//7
g wall_1_6
usemtl wall_1_1
f 7//7 11//7 12//7
f 7//7 12//7 10//7
g wall_2_7
usemtl wall_1_1
v 1004.8334 0.0 274.76428
v 1008.6434 0.0 278.57428
f 14//1 13//1 3//1
f 14//1 3//1 4//1
g wall_2_8
usemtl wall_1_1
v 1001.0234 0.0 270.95428
f 13//1 15//1 6//1
f 13//1 6//1 3//1
g wall_2_9
usemtl wall_1_1
v 1008.6434 152.5 278.57428
v 1004.8334 152.5 274.76428
vt -3.1484337 0.0 0
vt -3.1484337 4.84127 0
vn -0.70710677 0.0 -0.70710677
vn -0.70710677 0.0 0.70710677
vn 1.0 0.0 0.0
f 4/1/8 3/5/8 10/6/8 9/4/8
f 13/1/9 14/5/9 16/6/9 17/4/9
f 14/11/10 4/1/10 9/4/10 16/12/10
g wall_2_10
usemtl wall_1_1
v 1001.0234 152.5 270.95428
vt 2.6646245 0.0 0
vt 2.6646245 4.84127 0
f 3/1/8 6/5/8 12/6/8 10/4/8
f 6/1/2 15/13/2 18/14/2 12/4/2
f 15/1/9 13/5/9 17/6/9 18/4/9
g wall_2_11
usemtl wall_1_1
f 9//7 10//7 17//7
f 9//7 17//7 16//7
g wall_2_12
usemtl wall_1_1
f 10//7 12//7 18//7
f 10//7 18//7 17//7
g wall_3_13
usemtl wall_1_1
v 913.27783 0.0 274.76428
v 917.0878 0.0 278.57428
f 13//1 14//1 20//1
f 13//1 20//1 19//1
g wall_3_14
usemtl wall_1_1
v 909.46783 0.0 270.95428
f 15//1 13//1 19//1
f 15//1 19//1 21//1
g wall_3_15
usemtl wall_1_1
v 917.0878 152.5 278.57428
v 913.27783 152.5 274.76428
vt -2.9065251 0.0 0
vt -2.9065251 4.84127 0
vn 0.70710677 0.0 -0.70710677
f 19/1/9 20/5/9 22/6/9 23/4/9
f 20/15/6 14/1/6 16/4/6 22/16/6
f 14/1/11 13/5/11 17/6/11 16/4/11
g wall_3_16
usemtl wall_1_1
v 909.46783 152.5 270.95428
vt 2.9065251 0.0 0
vt 2.9065251 4.84127 0
f 21/1/9 19/5/9 23/6/9 24/4/9
f 13/1/11 15/5/11 18/6/11 17/4/11
f 15/1/4 21/17/4 24/18/4 18/4/4
g wall_3_17
usemtl wall_1_1
f 23//7 22//7 16//7
f 23//7 16//7 17//7
g wall_3_18
usemtl wall_1_1
f 24//7 23//7 17//7
f 24//7 17//7 18//7
g wall_4_19
usemtl wall_1_1
v 913.27783 0.0 366.08862
v 917.0878 0.0 362.27863
f 20//1 26//1 25//1
f 20//1 25//1 19//1
g wall_4_20
usemtl wall_1_1
v 909.46783 0.0 369.89862
f 19//1 25//1 27//1
f 19//1 27//1 21//1
g wall_4_21
usemtl wall_1_1
v 917.0878 152.5 362.27863
v 913.27783 152.5 366.08862
vt -2.657281 0.0 0
vt -2.657281 4.84127 0
f 25/1/3 26/5/3 28/6/3 29/4/3
f 26/19/10 20/1/10 22/4/10 28/20/10
f 20/1/11 19/5/11 23/6/11 22/4/11
g wall_4_22
usemtl wall_1_1
v 909.46783 152.5 369.89862
vt 3.14109 0.0 0
vt 3.14109 4.84127 0
f 21/1/2 27/21/2 30/22/2 24/4/2
f 27/1/3 25/5/3 29/6/3 30/4/3
f 19/1/11 21/5/11 24/6/11 23/4/11
g wall_4_23
usemtl wall_1_1
f 23//7 29//7 28//7
f 23//7 28//7 22//7
g wall_4_24
usemtl wall_1_1
f 24//7 30//7 29//7
f 24//7 29//7 23//7
g wall_5_25
usemtl wall_1_1
v 1004.8334 0.0 366.08862
v 1004.8334 0.0 362.27863
f 32//1 31//1 25//1
f 32//1 25//1 26//1
g wall_5_26
usemtl wall_1_1
v 1004.8334 0.0 369.89862
f 31//1 33//1 27//1
f 31//1 27//1 25//1
g wall_5_27
usemtl wall_1_1
v 1004.8334 152.5 362.27863
v 1004.8334 152.5 366.08862
vt -2.7855728 0.0 0
vt -2.7855728 4.84127 0
f 26/1/8 25/5/8 29/6/8 28/4/8
f 31/1/10 32/2/10 34/3/10 35/4/10
f 32/23/4 26/1/4 28/4/4 34/24/4
g wall_5_28
usemtl wall_1_1
v 1004.8334 152.5 369.89862
vt 3.0274775 0.0 0
vt 3.0274775 4.84127 0
f 25/1/8 27/5/8 30/6/8 29/4/8
f 27/1/6 33/25/6 36/26/6 30/4/6
f 33/1/10 31/2/10 35/3/10 36/4/10
g wall_5_29
usemtl wall_1_1
f 28//7 29//7 35//7
f 28//7 35//7 34//7
g wall_5_30
usemtl wall_1_1
f 29//7 30//7 36//7
f 29//7 36//7 35//7
