# 
# Generated by Sweet Home 3D - Sun Apr 02 21:35:28 CDT 2017
# http://www.sweethome3d.com/
# 
mtllib 3.mtl
g wall_1_1
usemtl wall_1_1
v 549.7222 0.0 179.39862
v 549.7222 0.0 183.20862
v 641.2778 0.0 183.20862
v 645.08777 0.0 179.39862
vn 0.0 -1.0 0.0
f 4//1 3//1 2//1
f 4//1 2//1 1//1
g wall_1_2
usemtl wall_1_1
v 549.7222 0.0 187.01862
v 637.4678 0.0 187.01862
f 3//1 6//1 5//1
f 3//1 5//1 2//1
g wall_1_3
usemtl wall_1_1
v 549.7222 152.5 183.20862
v 549.7222 152.5 179.39862
v 645.08777 152.5 179.39862
v 641.2778 152.5 183.20862
vn -1.0 0.0 0.0
vn 0.70710677 0.0 0.70710677
vn 0.0 0.0 -1.0
vn 0.0 0.0 0.0
f 1//2 2//2 7//2 8//2
f 3//3 4//3 9//3 10//3
f 4//4 1//4 8//4 9//4
g wall_1_4
usemtl wall_1_1
v 549.7222 152.5 187.01862
v 637.4678 152.5 187.01862
vn 0.0 0.0 1.0
f 2//2 5//2 11//2 7//2
f 5//6 6//6 12//6 11//6
f 6//3 3//3 10//3 12//3
g wall_1_5
usemtl wall_1_1
vn 0.0 1.0 0.0
f 8//7 7//7 10//7
f 8//7 10//7 9//7
g wall_1_6
usemtl wall_1_1
f 7//7 11//7 12//7
f 7//7 12//7 10//7
g wall_2_7
usemtl wall_1_1
v 641.2778 0.0 366.08862
v 645.08777 0.0 369.89862
f 14//1 13//1 3//1
f 14//1 3//1 4//1
g wall_2_8
usemtl wall_1_1
v 637.4678 0.0 362.27863
f 13//1 15//1 6//1
f 13//1 6//1 3//1
g wall_2_9
usemtl wall_1_1
v 645.08777 152.5 369.89862
v 641.2778 152.5 366.08862
vn -0.70710677 0.0 -0.70710677
vn -0.70710677 0.0 0.70710677
vn 1.0 0.0 0.0
f 4//8 3//8 10//8 9//8
f 13//9 14//9 16//9 17//9
f 14//10 4//10 9//10 16//10
g wall_2_10
usemtl wall_1_1
v 637.4678 152.5 362.27863
f 3//8 6//8 12//8 10//8
f 6//2 15//2 18//2 12//2
f 15//9 13//9 17//9 18//9
g wall_2_11
usemtl wall_1_1
f 9//7 10//7 17//7
f 9//7 17//7 16//7
g wall_2_12
usemtl wall_1_1
f 10//7 12//7 18//7
f 10//7 18//7 17//7
g wall_3_13
usemtl wall_1_1
v 546.0278 0.0 366.08862
v 546.0278 0.0 369.89862
f 13//1 14//1 20//1
f 13//1 20//1 19//1
g wall_3_14
usemtl wall_1_1
v 546.0278 0.0 362.27863
f 15//1 13//1 19//1
f 15//1 19//1 21//1
g wall_3_15
usemtl wall_1_1
v 546.0278 152.5 369.89862
v 546.0278 152.5 366.08862
vn 0.70710677 0.0 -0.70710677
f 19//2 20//2 22//2 23//2
f 20//6 14//6 16//6 22//6
f 14//11 13//11 17//11 16//11
g wall_3_16
usemtl wall_1_1
v 546.0278 152.5 362.27863
f 21//2 19//2 23//2 24//2
f 13//11 15//11 18//11 17//11
f 15//4 21//4 24//4 18//4
g wall_3_17
usemtl wall_1_1
f 23//7 22//7 16//7
f 23//7 16//7 17//7
g wall_3_18
usemtl wall_1_1
f 24//7 23//7 17//7
f 24//7 17//7 18//7
g wall_4_19
usemtl wall_1_1
v 546.0278 0.0 270.95428
v 546.0278 0.0 274.76428
v 641.2778 0.0 274.76428
v 641.2778 0.0 270.95428
f 28//1 27//1 26//1
f 28//1 26//1 25//1
g wall_4_20
usemtl wall_1_1
v 546.0278 0.0 278.57428
v 641.2778 0.0 278.57428
f 27//1 30//1 29//1
f 27//1 29//1 26//1
g wall_4_21
usemtl wall_1_1
v 546.0278 152.5 274.76428
v 546.0278 152.5 270.95428
v 641.2778 152.5 270.95428
v 641.2778 152.5 274.76428
f 25//2 26//2 31//2 32//2
f 27//10 28//10 33//10 34//10
f 28//4 25//4 32//4 33//4
g wall_4_22
usemtl wall_1_1
v 546.0278 152.5 278.57428
v 641.2778 152.5 278.57428
f 26//2 29//2 35//2 31//2
f 29//6 30//6 36//6 35//6
f 30//10 27//10 34//10 36//10
g wall_4_23
usemtl wall_1_1
f 32//7 31//7 34//7
f 32//7 34//7 33//7
g wall_4_24
usemtl wall_1_1
f 31//7 35//7 36//7
f 31//7 36//7 34//7
