# 
# Generated by Sweet Home 3D - Mon Apr 10 18:19:39 CDT 2017
# http://www.sweethome3d.com/
# 
mtllib 4.mtl
g wall_1_1
usemtl wall_1_1
v 732.8333 0.0 183.20862
v 732.8333 0.0 274.76428
v 736.6433 0.0 270.95428
v 736.6433 0.0 183.20862
vn 0.0 -1.0 0.0
f 4//1 3//1 2//1
f 4//1 2//1 1//1
g wall_1_2
usemtl wall_1_1
v 729.0233 0.0 183.20862
v 729.0233 0.0 278.57428
f 1//1 2//1 6//1
f 1//1 6//1 5//1
g wall_1_3
usemtl wall_1_1
v 736.6433 152.5 270.95428
v 732.8333 152.5 274.76428
v 736.6433 152.5 183.20862
v 732.8333 152.5 183.20862
vt 0.0 0.0 0
vt 0.17105238 0.0 0
vt 0.17105238 4.84127 0
vt 0.0 4.84127 0
vt -2.7855768 0.0 0
vt -2.7855768 4.84127 0
vt 0.1209523 0.0 0
vt 0.1209523 4.84127 0
vn 0.70710677 0.0 0.70710677
vn 1.0 0.0 0.0
vn 0.0 0.0 -1.0
vn 0.0 0.0 0.0
f 2/1/2 3/2/2 7/3/2 8/4/2
f 3/5/3 4/1/3 9/4/3 7/6/3
f 4/1/4 1/7/4 10/8/4 9/4/4
g wall_1_4
usemtl wall_1_1
v 729.0233 152.5 278.57428
v 729.0233 152.5 183.20862
vt 3.0274813 0.0 0
vt 3.0274813 4.84127 0
vn -1.0 0.0 0.0
f 5/1/6 6/9/6 11/10/6 12/4/6
f 6/1/2 2/2/2 8/3/2 11/4/2
f 1/1/4 5/7/4 12/8/4 10/4/4
g wall_1_5
usemtl wall_1_1
vn 0.0 1.0 0.0
f 10//7 8//7 7//7
f 10//7 7//7 9//7
g wall_1_6
usemtl wall_1_1
f 12//7 11//7 8//7
f 12//7 8//7 10//7
g wall_2_7
usemtl wall_1_1
v 823.0033 0.0 274.76428
v 823.0033 0.0 270.95428
f 14//1 13//1 2//1
f 14//1 2//1 3//1
g wall_2_8
usemtl wall_1_1
v 823.0033 0.0 278.57428
f 13//1 15//1 6//1
f 13//1 6//1 2//1
g wall_2_9
usemtl wall_1_1
v 823.0033 152.5 270.95428
v 823.0033 152.5 274.76428
vt -2.741587 0.0 0
vt -2.741587 4.84127 0
vn -0.70710677 0.0 -0.70710677
f 3/1/8 2/2/8 8/3/8 7/4/8
f 13/1/3 14/7/3 16/8/3 17/4/3
f 14/11/4 3/1/4 7/4/4 16/12/4
g wall_2_10
usemtl wall_1_1
v 823.0033 152.5 278.57428
vt 2.9834914 0.0 0
vt 2.9834914 4.84127 0
vn 0.0 0.0 1.0
f 2/1/8 6/2/8 11/3/8 8/4/8
f 6/1/9 15/13/9 18/14/9 11/4/9
f 15/1/3 13/7/3 17/8/3 18/4/3
g wall_2_11
usemtl wall_1_1
f 7//7 8//7 17//7
f 7//7 17//7 16//7
g wall_2_12
usemtl wall_1_1
f 8//7 11//7 18//7
f 8//7 18//7 17//7
g wall_3_13
usemtl wall_1_1
v 823.0033 0.0 183.20862
v 823.0033 0.0 366.08862
v 826.8133 0.0 366.08862
v 826.8133 0.0 183.20862
f 22//1 21//1 20//1
f 22//1 20//1 19//1
g wall_3_14
usemtl wall_1_1
v 819.1933 0.0 183.20862
v 819.1933 0.0 366.08862
f 19//1 20//1 24//1
f 19//1 24//1 23//1
g wall_3_15
usemtl wall_1_1
v 826.8133 152.5 366.08862
v 823.0033 152.5 366.08862
v 826.8133 152.5 183.20862
v 823.0033 152.5 183.20862
vt -5.8057146 0.0 0
vt -5.8057146 4.84127 0
f 20/1/9 21/7/9 25/8/9 26/4/9
f 21/15/3 22/1/3 27/4/3 25/16/3
f 22/1/4 19/7/4 28/8/4 27/4/4
g wall_3_16
usemtl wall_1_1
v 819.1933 152.5 366.08862
v 819.1933 152.5 183.20862
vt 5.8057146 0.0 0
vt 5.8057146 4.84127 0
f 23/1/6 24/17/6 29/18/6 30/4/6
f 24/1/9 20/7/9 26/8/9 29/4/9
f 19/1/4 23/7/4 30/8/4 28/4/4
g wall_3_17
usemtl wall_1_1
f 28//7 26//7 25//7
f 28//7 25//7 27//7
g wall_3_18
usemtl wall_1_1
f 30//7 29//7 26//7
f 30//7 26//7 28//7
