# 
# Generated by Sweet Home 3D - Sun Apr 02 21:58:26 CDT 2017
# http://www.sweethome3d.com/
# 
mtllib 5.mtl
g wall_1_1
usemtl wall_1_1
v 1095.5 0.0 183.2086
v 1099.31 0.0 187.0186
v 1188.21 0.0 187.01862
v 1188.21 0.0 183.20862
vn 0.0 -1.0 0.0
f 4//1 3//1 2//1
f 4//1 2//1 1//1
g wall_1_2
usemtl wall_1_1
v 1091.69 0.0 179.3986
v 1188.21 0.0 179.39862
f 6//1 4//1 1//1
f 6//1 1//1 5//1
g wall_1_3
usemtl wall_1_1
v 1099.31 152.5 187.0186
v 1095.5 152.5 183.2086
v 1188.21 152.5 187.01862
v 1188.21 152.5 183.20862
vn -0.70710117 0.0 0.70711243
vn -0.0000002 0.0 1.0
vn 1.0 0.0 0.0
vn 0.0 0.0 0.0
f 1//2 2//2 7//2 8//2
f 2//3 3//3 9//3 7//3
f 3//4 4//4 10//4 9//4
g wall_1_4
usemtl wall_1_1
v 1091.69 152.5 179.3986
v 1188.21 152.5 179.39862
vn 0.0000002 0.0 -1.0
f 5//2 1//2 8//2 11//2
f 4//4 6//4 12//4 10//4
f 6//6 5//6 11//6 12//6
g wall_1_5
usemtl wall_1_1
vn 0.0 1.0 0.0
f 8//7 7//7 9//7
f 8//7 9//7 10//7
g wall_1_6
usemtl wall_1_1
f 11//7 8//7 10//7
f 11//7 10//7 12//7
g wall_2_7
usemtl wall_1_1
v 1095.5 0.0 274.76428
v 1099.31 0.0 270.95428
f 2//1 14//1 13//1
f 2//1 13//1 1//1
g wall_2_8
usemtl wall_1_1
v 1091.69 0.0 278.57428
f 1//1 13//1 15//1
f 1//1 15//1 5//1
g wall_2_9
usemtl wall_1_1
v 1099.31 152.5 270.95428
v 1095.5 152.5 274.76428
vn 0.70710117 0.0 0.70711243
vn 0.70710117 0.0 -0.70711243
f 13//8 14//8 16//8 17//8
f 14//4 2//4 7//4 16//4
f 2//9 1//9 8//9 7//9
g wall_2_10
usemtl wall_1_1
v 1091.69 152.5 278.57428
vn -1.0 0.0 0.0
f 5//10 15//10 18//10 11//10
f 15//8 13//8 17//8 18//8
f 1//9 5//9 11//9 8//9
g wall_2_11
usemtl wall_1_1
f 8//7 17//7 16//7
f 8//7 16//7 7//7
g wall_2_12
usemtl wall_1_1
f 11//7 18//7 17//7
f 11//7 17//7 8//7
g wall_3_13
usemtl wall_1_1
v 1188.21 0.0 274.76428
v 1192.02 0.0 270.95428
f 20//1 19//1 13//1
f 20//1 13//1 14//1
g wall_3_14
usemtl wall_1_1
v 1184.3999 0.0 278.57428
f 19//1 21//1 15//1
f 19//1 15//1 13//1
g wall_3_15
usemtl wall_1_1
v 1192.02 152.5 270.95428
v 1188.21 152.5 274.76428
vn -0.70710117 0.0 -0.70711243
vn 0.0 0.0 -1.0
f 14//11 13//11 17//11 16//11
f 19//8 20//8 22//8 23//8
f 20//12 14//12 16//12 22//12
g wall_3_16
usemtl wall_1_1
v 1184.3999 152.5 278.57428
vn 0.0 0.0 1.0
f 13//11 15//11 18//11 17//11
f 15//13 21//13 24//13 18//13
f 21//8 19//8 23//8 24//8
g wall_3_17
usemtl wall_1_1
f 16//7 17//7 23//7
f 16//7 23//7 22//7
g wall_3_18
usemtl wall_1_1
f 17//7 18//7 24//7
f 17//7 24//7 23//7
g wall_4_19
usemtl wall_1_1
v 1188.21 0.0 366.08862
v 1192.02 0.0 369.89862
f 26//1 25//1 19//1
f 26//1 19//1 20//1
g wall_4_20
usemtl wall_1_1
v 1184.3999 0.0 362.27863
f 25//1 27//1 21//1
f 25//1 21//1 19//1
g wall_4_21
usemtl wall_1_1
v 1192.02 152.5 369.89862
v 1188.21 152.5 366.08862
f 20//11 19//11 23//11 22//11
f 25//2 26//2 28//2 29//2
f 26//4 20//4 22//4 28//4
g wall_4_22
usemtl wall_1_1
v 1184.3999 152.5 362.27863
f 19//11 21//11 24//11 23//11
f 21//10 27//10 30//10 24//10
f 27//2 25//2 29//2 30//2
g wall_4_23
usemtl wall_1_1
f 22//7 23//7 29//7
f 22//7 29//7 28//7
g wall_4_24
usemtl wall_1_1
f 23//7 24//7 30//7
f 23//7 30//7 29//7
g wall_5_25
usemtl wall_1_1
v 1095.5 0.0 366.08862
v 1095.5 0.0 369.89862
f 25//1 26//1 32//1
f 25//1 32//1 31//1
g wall_5_26
usemtl wall_1_1
v 1095.5 0.0 362.27863
f 27//1 25//1 31//1
f 27//1 31//1 33//1
g wall_5_27
usemtl wall_1_1
v 1095.5 152.5 369.89862
v 1095.5 152.5 366.08862
f 31//10 32//10 34//10 35//10
f 32//13 26//13 28//13 34//13
f 26//9 25//9 29//9 28//9
g wall_5_28
usemtl wall_1_1
v 1095.5 152.5 362.27863
f 33//10 31//10 35//10 36//10
f 25//9 27//9 30//9 29//9
f 27//12 33//12 36//12 30//12
g wall_5_29
usemtl wall_1_1
f 35//7 34//7 28//7
f 35//7 28//7 29//7
g wall_5_30
usemtl wall_1_1
f 36//7 35//7 29//7
f 36//7 29//7 30//7
