# 
# Generated by Sweet Home 3D - Mon Apr 10 18:19:46 CDT 2017
# http://www.sweethome3d.com/
# 
mtllib 5.mtl
g wall_1_1
usemtl wall_1_1
v 1095.5 0.0 183.2086
v 1099.31 0.0 187.0186
v 1188.21 0.0 187.01862
v 1188.21 0.0 183.20862
vn 0.0 -1.0 0.0
f 4//1 3//1 2//1
f 4//1 2//1 1//1
g wall_1_2
usemtl wall_1_1
v 1091.69 0.0 179.3986
v 1188.21 0.0 179.39862
f 6//1 4//1 1//1
f 6//1 1//1 5//1
g wall_1_3
usemtl wall_1_1
v 1099.31 152.5 187.0186
v 1095.5 152.5 183.2086
v 1188.21 152.5 187.01862
v 1188.21 152.5 183.20862
vt 0.0 0.0 0
vt 0.17105377 0.0 0
vt 0.17105377 4.84127 0
vt 0.0 4.84127 0
vt -2.8222191 0.0 0
vt -2.8222191 4.84127 0
vt 0.1209523 0.0 0
vt 0.1209523 4.84127 0
vn -0.70710117 0.0 0.70711243
vn -0.0000002 0.0 1.0
vn 1.0 0.0 0.0
vn 0.0 0.0 0.0
f 1/1/2 2/2/2 7/3/2 8/4/2
f 2/5/3 3/1/3 9/4/3 7/6/3
f 3/1/4 4/7/4 10/8/4 9/4/4
g wall_1_4
usemtl wall_1_1
v 1091.69 152.5 179.3986
v 1188.21 152.5 179.39862
vt 3.0641277 0.0 0
vt 3.0641277 4.84127 0
vn 0.0000002 0.0 -1.0
f 5/1/2 1/2/2 8/3/2 11/4/2
f 4/1/4 6/7/4 12/8/4 10/4/4
f 6/1/6 5/9/6 11/10/6 12/4/6
g wall_1_5
usemtl wall_1_1
vn 0.0 1.0 0.0
f 8//7 7//7 9//7
f 8//7 9//7 10//7
g wall_1_6
usemtl wall_1_1
f 11//7 8//7 10//7
f 11//7 10//7 12//7
g wall_2_7
usemtl wall_1_1
v 1095.5 0.0 274.76428
v 1099.31 0.0 270.95428
f 2//1 14//1 13//1
f 2//1 13//1 1//1
g wall_2_8
usemtl wall_1_1
v 1091.69 0.0 278.57428
f 1//1 13//1 15//1
f 1//1 15//1 5//1
g wall_2_9
usemtl wall_1_1
v 1099.31 152.5 270.95428
v 1095.5 152.5 274.76428
vt -2.664625 0.0 0
vt -2.664625 4.84127 0
vn 0.70710117 0.0 0.70711243
vn 0.70710117 0.0 -0.70711243
f 13/1/8 14/2/8 16/3/8 17/4/8
f 14/11/4 2/1/4 7/4/4 16/12/4
f 2/1/9 1/2/9 8/3/9 7/4/9
g wall_2_10
usemtl wall_1_1
v 1091.69 152.5 278.57428
vt 3.1484342 0.0 0
vt 3.1484342 4.84127 0
vn -1.0 0.0 0.0
f 5/1/10 15/13/10 18/14/10 11/4/10
f 15/1/8 13/2/8 17/3/8 18/4/8
f 1/1/9 5/2/9 11/3/9 8/4/9
g wall_2_11
usemtl wall_1_1
f 8//7 17//7 16//7
f 8//7 16//7 7//7
g wall_2_12
usemtl wall_1_1
f 11//7 18//7 17//7
f 11//7 17//7 8//7
g wall_3_13
usemtl wall_1_1
v 1188.21 0.0 274.76428
v 1192.02 0.0 270.95428
f 20//1 19//1 13//1
f 20//1 13//1 14//1
g wall_3_14
usemtl wall_1_1
v 1184.3999 0.0 278.57428
f 19//1 21//1 15//1
f 19//1 15//1 13//1
g wall_3_15
usemtl wall_1_1
v 1192.02 152.5 270.95428
v 1188.21 152.5 274.76428
vt -2.9431734 0.0 0
vt -2.9431734 4.84127 0
vn -0.70710117 0.0 -0.70711243
vn 0.0 0.0 -1.0
f 14/1/11 13/2/11 17/3/11 16/4/11
f 19/1/8 20/2/8 22/3/8 23/4/8
f 20/15/12 14/1/12 16/4/12 22/16/12
g wall_3_16
usemtl wall_1_1
v 1184.3999 152.5 278.57428
vt 2.9431734 0.0 0
vt 2.9431734 4.84127 0
vn 0.0 0.0 1.0
f 13/1/11 15/2/11 18/3/11 17/4/11
f 15/1/13 21/17/13 24/18/13 18/4/13
f 21/1/8 19/2/8 23/3/8 24/4/8
g wall_3_17
usemtl wall_1_1
f 16//7 17//7 23//7
f 16//7 23//7 22//7
g wall_3_18
usemtl wall_1_1
f 17//7 18//7 24//7
f 17//7 24//7 23//7
g wall_4_19
usemtl wall_1_1
v 1188.21 0.0 366.08862
v 1192.02 0.0 369.89862
f 26//1 25//1 19//1
f 26//1 19//1 20//1
g wall_4_20
usemtl wall_1_1
v 1184.3999 0.0 362.27863
f 25//1 27//1 21//1
f 25//1 21//1 19//1
g wall_4_21
usemtl wall_1_1
v 1192.02 152.5 369.89862
v 1188.21 152.5 366.08862
vt -3.14109 0.0 0
vt -3.14109 4.84127 0
f 20/1/11 19/2/11 23/3/11 22/4/11
f 25/1/2 26/2/2 28/3/2 29/4/2
f 26/19/4 20/1/4 22/4/4 28/20/4
g wall_4_22
usemtl wall_1_1
v 1184.3999 152.5 362.27863
vt 2.657281 0.0 0
vt 2.657281 4.84127 0
f 19/1/11 21/2/11 24/3/11 23/4/11
f 21/1/10 27/21/10 30/22/10 24/4/10
f 27/1/2 25/2/2 29/3/2 30/4/2
g wall_4_23
usemtl wall_1_1
f 22//7 23//7 29//7
f 22//7 29//7 28//7
g wall_4_24
usemtl wall_1_1
f 23//7 24//7 30//7
f 23//7 30//7 29//7
g wall_5_25
usemtl wall_1_1
v 1095.5 0.0 366.08862
v 1095.5 0.0 369.89862
f 25//1 26//1 32//1
f 25//1 32//1 31//1
g wall_5_26
usemtl wall_1_1
v 1095.5 0.0 362.27863
f 27//1 25//1 31//1
f 27//1 31//1 33//1
g wall_5_27
usemtl wall_1_1
v 1095.5 152.5 369.89862
v 1095.5 152.5 366.08862
vt -3.0641277 0.0 0
vt -3.0641277 4.84127 0
f 31/1/10 32/7/10 34/8/10 35/4/10
f 32/23/13 26/1/13 28/4/13 34/24/13
f 26/1/9 25/2/9 29/3/9 28/4/9
g wall_5_28
usemtl wall_1_1
v 1095.5 152.5 362.27863
vt 2.8222191 0.0 0
vt 2.8222191 4.84127 0
f 33/1/10 31/7/10 35/8/10 36/4/10
f 25/1/9 27/2/9 30/3/9 29/4/9
f 27/1/12 33/25/12 36/26/12 30/4/12
g wall_5_29
usemtl wall_1_1
f 35//7 34//7 28//7
f 35//7 28//7 29//7
g wall_5_30
usemtl wall_1_1
f 36//7 35//7 29//7
f 36//7 29//7 30//7
