# 
# Generated by Sweet Home 3D - Mon Apr 10 18:20:15 CDT 2017
# http://www.sweethome3d.com/
# 
mtllib 7.mtl
g wall_1_1
usemtl wall_1_1
v 457.27777 0.0 453.17645
v 457.27777 0.0 456.98645
v 546.0278 0.0 456.98645
v 549.83777 0.0 453.17645
vn 0.0 -1.0 0.0
f 4//1 3//1 2//1
f 4//1 2//1 1//1
g wall_1_2
usemtl wall_1_1
v 457.27777 0.0 460.79645
v 542.2178 0.0 460.79645
f 3//1 6//1 5//1
f 3//1 5//1 2//1
g wall_1_3
usemtl wall_1_1
v 457.27777 152.5 456.98645
v 457.27777 152.5 453.17645
v 549.83777 152.5 453.17645
v 546.0278 152.5 456.98645
vt 0.0 0.0 0
vt 0.1209523 0.0 0
vt 0.1209523 4.84127 0
vt 0.0 4.84127 0
vt 0.17105238 0.0 0
vt 0.17105238 4.84127 0
vt -2.9384127 0.0 0
vt -2.9384127 4.84127 0
vn -1.0 0.0 0.0
vn 0.70710677 0.0 0.70710677
vn 0.0 0.0 -1.0
vn 0.0 0.0 0.0
f 1/1/2 2/2/2 7/3/2 8/4/2
f 3/1/3 4/5/3 9/6/3 10/4/3
f 4/7/4 1/1/4 8/4/4 9/8/4
g wall_1_4
usemtl wall_1_1
v 457.27777 152.5 460.79645
v 542.2178 152.5 460.79645
vt 2.696508 0.0 0
vt 2.696508 4.84127 0
vn 0.0 0.0 1.0
f 2/1/2 5/2/2 11/3/2 7/4/2
f 5/1/6 6/9/6 12/10/6 11/4/6
f 6/1/3 3/5/3 10/6/3 12/4/3
g wall_1_5
usemtl wall_1_1
vn 0.0 1.0 0.0
f 8//7 7//7 10//7
f 8//7 10//7 9//7
g wall_1_6
usemtl wall_1_1
f 7//7 11//7 12//7
f 7//7 12//7 10//7
g wall_2_7
usemtl wall_1_1
v 546.0278 0.0 640.5009
v 549.83777 0.0 640.5009
f 14//1 13//1 3//1
f 14//1 3//1 4//1
g wall_2_8
usemtl wall_1_1
v 542.2178 0.0 640.5009
f 13//1 15//1 6//1
f 13//1 6//1 3//1
g wall_2_9
usemtl wall_1_1
v 549.83777 152.5 640.5009
v 546.0278 152.5 640.5009
vt -5.9468083 0.0 0
vt -5.9468083 4.84127 0
vn -0.70710677 0.0 -0.70710677
vn 1.0 0.0 0.0
f 4/1/8 3/5/8 10/6/8 9/4/8
f 13/1/6 14/2/6 16/3/6 17/4/6
f 14/11/9 4/1/9 9/4/9 16/12/9
g wall_2_10
usemtl wall_1_1
v 542.2178 152.5 640.5009
vt 5.7049036 0.0 0
vt 5.7049036 4.84127 0
f 3/1/8 6/5/8 12/6/8 10/4/8
f 6/1/2 15/13/2 18/14/2 12/4/2
f 15/1/6 13/2/6 17/3/6 18/4/6
g wall_2_11
usemtl wall_1_1
f 9//7 10//7 17//7
f 9//7 17//7 16//7
g wall_2_12
usemtl wall_1_1
f 10//7 12//7 18//7
f 10//7 18//7 17//7
g wall_3_13
usemtl wall_1_1
v 502.61108 0.0 514.5098
v 502.61108 0.0 518.3198
v 587.05554 0.0 518.3198
v 587.05554 0.0 514.5098
f 22//1 21//1 20//1
f 22//1 20//1 19//1
g wall_3_14
usemtl wall_1_1
v 502.61108 0.0 522.1298
v 587.05554 0.0 522.1298
f 21//1 24//1 23//1
f 21//1 23//1 20//1
g wall_3_15
usemtl wall_1_1
v 502.61108 152.5 518.3198
v 502.61108 152.5 514.5098
v 587.05554 152.5 514.5098
v 587.05554 152.5 518.3198
vt -2.6807764 0.0 0
vt -2.6807764 4.84127 0
f 19/1/2 20/2/2 25/3/2 26/4/2
f 21/1/9 22/2/9 27/3/9 28/4/9
f 22/15/4 19/1/4 26/4/4 27/16/4
g wall_3_16
usemtl wall_1_1
v 502.61108 152.5 522.1298
v 587.05554 152.5 522.1298
vt 2.6807764 0.0 0
vt 2.6807764 4.84127 0
f 20/1/2 23/2/2 29/3/2 25/4/2
f 23/1/6 24/17/6 30/18/6 29/4/6
f 24/1/9 21/2/9 28/3/9 30/4/9
g wall_3_17
usemtl wall_1_1
f 26//7 25//7 28//7
f 26//7 28//7 27//7
g wall_3_18
usemtl wall_1_1
f 25//7 29//7 30//7
f 25//7 30//7 28//7
