# 
# Generated by Sweet Home 3D - Sun Apr 02 21:59:46 CDT 2017
# http://www.sweethome3d.com/
# 
mtllib 7.mtl
g wall_1_1
usemtl wall_1_1
v 457.27777 0.0 453.17645
v 457.27777 0.0 456.98645
v 546.0278 0.0 456.98645
v 549.83777 0.0 453.17645
vn 0.0 -1.0 0.0
f 4//1 3//1 2//1
f 4//1 2//1 1//1
g wall_1_2
usemtl wall_1_1
v 457.27777 0.0 460.79645
v 542.2178 0.0 460.79645
f 3//1 6//1 5//1
f 3//1 5//1 2//1
g wall_1_3
usemtl wall_1_1
v 457.27777 152.5 456.98645
v 457.27777 152.5 453.17645
v 549.83777 152.5 453.17645
v 546.0278 152.5 456.98645
vn -1.0 0.0 0.0
vn 0.70710677 0.0 0.70710677
vn 0.0 0.0 -1.0
vn 0.0 0.0 0.0
f 1//2 2//2 7//2 8//2
f 3//3 4//3 9//3 10//3
f 4//4 1//4 8//4 9//4
g wall_1_4
usemtl wall_1_1
v 457.27777 152.5 460.79645
v 542.2178 152.5 460.79645
vn 0.0 0.0 1.0
f 2//2 5//2 11//2 7//2
f 5//6 6//6 12//6 11//6
f 6//3 3//3 10//3 12//3
g wall_1_5
usemtl wall_1_1
vn 0.0 1.0 0.0
f 8//7 7//7 10//7
f 8//7 10//7 9//7
g wall_1_6
usemtl wall_1_1
f 7//7 11//7 12//7
f 7//7 12//7 10//7
g wall_2_7
usemtl wall_1_1
v 546.0278 0.0 640.5009
v 549.83777 0.0 640.5009
f 14//1 13//1 3//1
f 14//1 3//1 4//1
g wall_2_8
usemtl wall_1_1
v 542.2178 0.0 640.5009
f 13//1 15//1 6//1
f 13//1 6//1 3//1
g wall_2_9
usemtl wall_1_1
v 549.83777 152.5 640.5009
v 546.0278 152.5 640.5009
vn -0.70710677 0.0 -0.70710677
vn 1.0 0.0 0.0
f 4//8 3//8 10//8 9//8
f 13//6 14//6 16//6 17//6
f 14//9 4//9 9//9 16//9
g wall_2_10
usemtl wall_1_1
v 542.2178 152.5 640.5009
f 3//8 6//8 12//8 10//8
f 6//2 15//2 18//2 12//2
f 15//6 13//6 17//6 18//6
g wall_2_11
usemtl wall_1_1
f 9//7 10//7 17//7
f 9//7 17//7 16//7
g wall_2_12
usemtl wall_1_1
f 10//7 12//7 18//7
f 10//7 18//7 17//7
g wall_3_13
usemtl wall_1_1
v 502.61108 0.0 514.5098
v 502.61108 0.0 518.3198
v 587.05554 0.0 518.3198
v 587.05554 0.0 514.5098
f 22//1 21//1 20//1
f 22//1 20//1 19//1
g wall_3_14
usemtl wall_1_1
v 502.61108 0.0 522.1298
v 587.05554 0.0 522.1298
f 21//1 24//1 23//1
f 21//1 23//1 20//1
g wall_3_15
usemtl wall_1_1
v 502.61108 152.5 518.3198
v 502.61108 152.5 514.5098
v 587.05554 152.5 514.5098
v 587.05554 152.5 518.3198
f 19//2 20//2 25//2 26//2
f 21//9 22//9 27//9 28//9
f 22//4 19//4 26//4 27//4
g wall_3_16
usemtl wall_1_1
v 502.61108 152.5 522.1298
v 587.05554 152.5 522.1298
f 20//2 23//2 29//2 25//2
f 23//6 24//6 30//6 29//6
f 24//9 21//9 28//9 30//9
g wall_3_17
usemtl wall_1_1
f 26//7 25//7 28//7
f 26//7 28//7 27//7
g wall_3_18
usemtl wall_1_1
f 25//7 29//7 30//7
f 25//7 30//7 28//7
