# 
# Generated by Sweet Home 3D - Sun Apr 02 22:00:17 CDT 2017
# http://www.sweethome3d.com/
# 
mtllib 8.mtl
g wall_1_1
usemtl wall_1_1
v 641.2778 0.0 456.98645
v 641.2778 0.0 640.5009
v 645.08777 0.0 636.6909
v 645.08777 0.0 456.98645
vn 0.0 -1.0 0.0
f 4//1 3//1 2//1
f 4//1 2//1 1//1
g wall_1_2
usemtl wall_1_1
v 637.4678 0.0 456.98645
v 637.4678 0.0 644.3109
f 1//1 2//1 6//1
f 1//1 6//1 5//1
g wall_1_3
usemtl wall_1_1
v 645.08777 152.5 636.6909
v 641.2778 152.5 640.5009
v 645.08777 152.5 456.98645
v 641.2778 152.5 456.98645
vn 0.70710677 0.0 0.70710677
vn 1.0 0.0 0.0
vn 0.0 0.0 -1.0
vn 0.0 0.0 0.0
f 2//2 3//2 7//2 8//2
f 3//3 4//3 9//3 7//3
f 4//4 1//4 10//4 9//4
g wall_1_4
usemtl wall_1_1
v 637.4678 152.5 644.3109
v 637.4678 152.5 456.98645
vn -1.0 0.0 0.0
f 5//6 6//6 11//6 12//6
f 6//2 2//2 8//2 11//2
f 1//4 5//4 12//4 10//4
g wall_1_5
usemtl wall_1_1
vn 0.0 1.0 0.0
f 10//7 8//7 7//7
f 10//7 7//7 9//7
g wall_1_6
usemtl wall_1_1
f 12//7 11//7 8//7
f 12//7 8//7 10//7
g wall_2_7
usemtl wall_1_1
v 732.8333 0.0 640.5009
v 729.0233 0.0 636.6909
f 14//1 13//1 2//1
f 14//1 2//1 3//1
g wall_2_8
usemtl wall_1_1
v 736.6433 0.0 644.3109
f 13//1 15//1 6//1
f 13//1 6//1 2//1
g wall_2_9
usemtl wall_1_1
v 729.0233 152.5 636.6909
v 732.8333 152.5 640.5009
vn -0.70710677 0.0 -0.70710677
vn 0.70710677 0.0 -0.70710677
f 3//8 2//8 8//8 7//8
f 13//9 14//9 16//9 17//9
f 14//4 3//4 7//4 16//4
g wall_2_10
usemtl wall_1_1
v 736.6433 152.5 644.3109
vn 0.0 0.0 1.0
f 2//8 6//8 11//8 8//8
f 6//10 15//10 18//10 11//10
f 15//9 13//9 17//9 18//9
g wall_2_11
usemtl wall_1_1
f 7//7 8//7 17//7
f 7//7 17//7 16//7
g wall_2_12
usemtl wall_1_1
f 8//7 11//7 18//7
f 8//7 18//7 17//7
g wall_3_13
usemtl wall_1_1
v 732.8333 0.0 456.98645
v 729.0233 0.0 460.79645
f 13//1 14//1 20//1
f 13//1 20//1 19//1
g wall_3_14
usemtl wall_1_1
v 736.6433 0.0 453.17645
f 15//1 13//1 19//1
f 15//1 19//1 21//1
g wall_3_15
usemtl wall_1_1
v 729.0233 152.5 460.79645
v 732.8333 152.5 456.98645
vn -0.70710677 0.0 0.70710677
f 19//8 20//8 22//8 23//8
f 20//6 14//6 16//6 22//6
f 14//11 13//11 17//11 16//11
g wall_3_16
usemtl wall_1_1
v 736.6433 152.5 453.17645
f 21//8 19//8 23//8 24//8
f 13//11 15//11 18//11 17//11
f 15//3 21//3 24//3 18//3
g wall_3_17
usemtl wall_1_1
f 23//7 22//7 16//7
f 23//7 16//7 17//7
g wall_3_18
usemtl wall_1_1
f 24//7 23//7 17//7
f 24//7 17//7 18//7
g wall_4_19
usemtl wall_1_1
v 637.5833 0.0 456.98645
v 637.5833 0.0 460.79645
f 19//1 20//1 26//1
f 19//1 26//1 25//1
g wall_4_20
usemtl wall_1_1
v 637.5833 0.0 453.17645
f 21//1 19//1 25//1
f 21//1 25//1 27//1
g wall_4_21
usemtl wall_1_1
v 637.5833 152.5 460.79645
v 637.5833 152.5 456.98645
f 25//6 26//6 28//6 29//6
f 26//10 20//10 22//10 28//10
f 20//2 19//2 23//2 22//2
g wall_4_22
usemtl wall_1_1
v 637.5833 152.5 453.17645
f 27//6 25//6 29//6 30//6
f 19//2 21//2 24//2 23//2
f 21//4 27//4 30//4 24//4
g wall_4_23
usemtl wall_1_1
f 29//7 28//7 22//7
f 29//7 22//7 23//7
g wall_4_24
usemtl wall_1_1
f 30//7 29//7 23//7
f 30//7 23//7 24//7
g wall_5_25
usemtl wall_1_1
v 641.2778 0.0 545.2509
v 641.2778 0.0 549.0609
v 732.8333 0.0 549.0609
v 732.8333 0.0 545.2509
f 34//1 33//1 32//1
f 34//1 32//1 31//1
g wall_5_26
usemtl wall_1_1
v 641.2778 0.0 552.8709
v 732.8333 0.0 552.8709
f 33//1 36//1 35//1
f 33//1 35//1 32//1
g wall_5_27
usemtl wall_1_1
v 641.2778 152.5 549.0609
v 641.2778 152.5 545.2509
v 732.8333 152.5 545.2509
v 732.8333 152.5 549.0609
f 31//6 32//6 37//6 38//6
f 33//3 34//3 39//3 40//3
f 34//4 31//4 38//4 39//4
g wall_5_28
usemtl wall_1_1
v 641.2778 152.5 552.8709
v 732.8333 152.5 552.8709
f 32//6 35//6 41//6 37//6
f 35//10 36//10 42//10 41//10
f 36//3 33//3 40//3 42//3
g wall_5_29
usemtl wall_1_1
f 38//7 37//7 40//7
f 38//7 40//7 39//7
g wall_5_30
usemtl wall_1_1
f 37//7 41//7 42//7
f 37//7 42//7 40//7
