# 
# Generated by Sweet Home 3D - Sun Apr 02 22:02:21 CDT 2017
# http://www.sweethome3d.com/
# 
mtllib 9.mtl
g wall_1_1
usemtl wall_1_1
v 819.1933 0.0 453.17645
v 823.0033 0.0 456.98645
v 913.27783 0.0 456.98645
v 917.0878 0.0 453.17645
vn 0.0 -1.0 0.0
f 4//1 3//1 2//1
f 4//1 2//1 1//1
g wall_1_2
usemtl wall_1_1
v 826.8133 0.0 460.79645
v 909.46783 0.0 460.79645
f 3//1 6//1 5//1
f 3//1 5//1 2//1
g wall_1_3
usemtl wall_1_1
v 823.0033 152.5 456.98645
v 819.1933 152.5 453.17645
v 917.0878 152.5 453.17645
v 913.27783 152.5 456.98645
vn -0.70710677 0.0 0.70710677
vn 0.70710677 0.0 0.70710677
vn 0.0 0.0 -1.0
vn 0.0 0.0 0.0
f 1//2 2//2 7//2 8//2
f 3//3 4//3 9//3 10//3
f 4//4 1//4 8//4 9//4
g wall_1_4
usemtl wall_1_1
v 826.8133 152.5 460.79645
v 909.46783 152.5 460.79645
vn 0.0 0.0 1.0
f 2//2 5//2 11//2 7//2
f 5//6 6//6 12//6 11//6
f 6//3 3//3 10//3 12//3
g wall_1_5
usemtl wall_1_1
vn 0.0 1.0 0.0
f 8//7 7//7 10//7
f 8//7 10//7 9//7
g wall_1_6
usemtl wall_1_1
f 7//7 11//7 12//7
f 7//7 12//7 10//7
g wall_2_7
usemtl wall_1_1
v 913.27783 0.0 640.5009
v 917.0878 0.0 640.5009
f 14//1 13//1 3//1
f 14//1 3//1 4//1
g wall_2_8
usemtl wall_1_1
v 909.46783 0.0 640.5009
f 13//1 15//1 6//1
f 13//1 6//1 3//1
g wall_2_9
usemtl wall_1_1
v 917.0878 152.5 640.5009
v 913.27783 152.5 640.5009
vn -0.70710677 0.0 -0.70710677
vn 1.0 0.0 0.0
f 4//8 3//8 10//8 9//8
f 13//6 14//6 16//6 17//6
f 14//9 4//9 9//9 16//9
g wall_2_10
usemtl wall_1_1
v 909.46783 152.5 640.5009
vn -1.0 0.0 0.0
f 3//8 6//8 12//8 10//8
f 6//10 15//10 18//10 12//10
f 15//6 13//6 17//6 18//6
g wall_2_11
usemtl wall_1_1
f 9//7 10//7 17//7
f 9//7 17//7 16//7
g wall_2_12
usemtl wall_1_1
f 10//7 12//7 18//7
f 10//7 18//7 17//7
g wall_3_13
usemtl wall_1_1
v 823.0033 0.0 549.0609
v 826.8133 0.0 545.2509
f 5//1 20//1 19//1
f 5//1 19//1 2//1
g wall_3_14
usemtl wall_1_1
v 819.1933 0.0 552.8709
f 2//1 19//1 21//1
f 2//1 21//1 1//1
g wall_3_15
usemtl wall_1_1
v 826.8133 152.5 545.2509
v 823.0033 152.5 549.0609
vn 0.70710677 0.0 -0.70710677
f 19//3 20//3 22//3 23//3
f 20//9 5//9 11//9 22//9
f 5//11 2//11 7//11 11//11
g wall_3_16
usemtl wall_1_1
v 819.1933 152.5 552.8709
f 1//10 21//10 24//10 8//10
f 21//3 19//3 23//3 24//3
f 2//11 1//11 8//11 7//11
g wall_3_17
usemtl wall_1_1
f 7//7 23//7 22//7
f 7//7 22//7 11//7
g wall_3_18
usemtl wall_1_1
f 8//7 24//7 23//7
f 8//7 23//7 7//7
g wall_4_19
usemtl wall_1_1
v 913.27783 0.0 549.0609
v 913.27783 0.0 545.2509
f 26//1 25//1 19//1
f 26//1 19//1 20//1
g wall_4_20
usemtl wall_1_1
v 913.27783 0.0 552.8709
f 25//1 27//1 21//1
f 25//1 21//1 19//1
g wall_4_21
usemtl wall_1_1
v 913.27783 152.5 545.2509
v 913.27783 152.5 549.0609
f 20//8 19//8 23//8 22//8
f 25//9 26//9 28//9 29//9
f 26//4 20//4 22//4 28//4
g wall_4_22
usemtl wall_1_1
v 913.27783 152.5 552.8709
f 19//8 21//8 24//8 23//8
f 21//6 27//6 30//6 24//6
f 27//9 25//9 29//9 30//9
g wall_4_23
usemtl wall_1_1
f 22//7 23//7 29//7
f 22//7 29//7 28//7
g wall_4_24
usemtl wall_1_1
f 23//7 24//7 30//7
f 23//7 30//7 29//7
