# 
# Generated by Sweet Home 3D - Mon Apr 10 18:20:30 CDT 2017
# http://www.sweethome3d.com/
# 
mtllib 9.mtl
g wall_1_1
usemtl wall_1_1
v 819.1933 0.0 453.17645
v 823.0033 0.0 456.98645
v 913.27783 0.0 456.98645
v 917.0878 0.0 453.17645
vn 0.0 -1.0 0.0
f 4//1 3//1 2//1
f 4//1 2//1 1//1
g wall_1_2
usemtl wall_1_1
v 826.8133 0.0 460.79645
v 909.46783 0.0 460.79645
f 3//1 6//1 5//1
f 3//1 5//1 2//1
g wall_1_3
usemtl wall_1_1
v 823.0033 152.5 456.98645
v 819.1933 152.5 453.17645
v 917.0878 152.5 453.17645
v 913.27783 152.5 456.98645
vt 0.0 0.0 0
vt 0.17105238 0.0 0
vt 0.17105238 4.84127 0
vt 0.0 4.84127 0
vt -3.1077628 0.0 0
vt -3.1077628 4.84127 0
vn -0.70710677 0.0 0.70710677
vn 0.70710677 0.0 0.70710677
vn 0.0 0.0 -1.0
vn 0.0 0.0 0.0
f 1/1/2 2/2/2 7/3/2 8/4/2
f 3/1/3 4/2/3 9/3/3 10/4/3
f 4/5/4 1/1/4 8/4/4 9/6/4
g wall_1_4
usemtl wall_1_1
v 826.8133 152.5 460.79645
v 909.46783 152.5 460.79645
vt 2.6239536 0.0 0
vt 2.6239536 4.84127 0
vn 0.0 0.0 1.0
f 2/1/2 5/2/2 11/3/2 7/4/2
f 5/1/6 6/7/6 12/8/6 11/4/6
f 6/1/3 3/2/3 10/3/3 12/4/3
g wall_1_5
usemtl wall_1_1
vn 0.0 1.0 0.0
f 8//7 7//7 10//7
f 8//7 10//7 9//7
g wall_1_6
usemtl wall_1_1
f 7//7 11//7 12//7
f 7//7 12//7 10//7
g wall_2_7
usemtl wall_1_1
v 913.27783 0.0 640.5009
v 917.0878 0.0 640.5009
f 14//1 13//1 3//1
f 14//1 3//1 4//1
g wall_2_8
usemtl wall_1_1
v 909.46783 0.0 640.5009
f 13//1 15//1 6//1
f 13//1 6//1 3//1
g wall_2_9
usemtl wall_1_1
v 917.0878 152.5 640.5009
v 913.27783 152.5 640.5009
vt 0.1209523 0.0 0
vt 0.1209523 4.84127 0
vt -5.9468083 0.0 0
vt -5.9468083 4.84127 0
vn -0.70710677 0.0 -0.70710677
vn 1.0 0.0 0.0
f 4/1/8 3/2/8 10/3/8 9/4/8
f 13/1/6 14/9/6 16/10/6 17/4/6
f 14/11/9 4/1/9 9/4/9 16/12/9
g wall_2_10
usemtl wall_1_1
v 909.46783 152.5 640.5009
vt 5.7049036 0.0 0
vt 5.7049036 4.84127 0
vn -1.0 0.0 0.0
f 3/1/8 6/2/8 12/3/8 10/4/8
f 6/1/10 15/13/10 18/14/10 12/4/10
f 15/1/6 13/9/6 17/10/6 18/4/6
g wall_2_11
usemtl wall_1_1
f 9//7 10//7 17//7
f 9//7 17//7 16//7
g wall_2_12
usemtl wall_1_1
f 10//7 12//7 18//7
f 10//7 18//7 17//7
g wall_3_13
usemtl wall_1_1
v 823.0033 0.0 549.0609
v 826.8133 0.0 545.2509
f 5//1 20//1 19//1
f 5//1 19//1 2//1
g wall_3_14
usemtl wall_1_1
v 819.1933 0.0 552.8709
f 2//1 19//1 21//1
f 2//1 21//1 1//1
g wall_3_15
usemtl wall_1_1
v 826.8133 152.5 545.2509
v 823.0033 152.5 549.0609
vt -2.6810942 0.0 0
vt -2.6810942 4.84127 0
vn 0.70710677 0.0 -0.70710677
f 19/1/3 20/2/3 22/3/3 23/4/3
f 20/15/9 5/1/9 11/4/9 22/16/9
f 5/1/11 2/2/11 7/3/11 11/4/11
g wall_3_16
usemtl wall_1_1
v 819.1933 152.5 552.8709
vt 3.1649034 0.0 0
vt 3.1649034 4.84127 0
f 1/1/10 21/17/10 24/18/10 8/4/10
f 21/1/3 19/2/3 23/3/3 24/4/3
f 2/1/11 1/2/11 8/3/11 7/4/11
g wall_3_17
usemtl wall_1_1
f 7//7 23//7 22//7
f 7//7 22//7 11//7
g wall_3_18
usemtl wall_1_1
f 8//7 24//7 23//7
f 8//7 23//7 7//7
g wall_4_19
usemtl wall_1_1
v 913.27783 0.0 549.0609
v 913.27783 0.0 545.2509
f 26//1 25//1 19//1
f 26//1 19//1 20//1
g wall_4_20
usemtl wall_1_1
v 913.27783 0.0 552.8709
f 25//1 27//1 21//1
f 25//1 21//1 19//1
g wall_4_21
usemtl wall_1_1
v 913.27783 152.5 545.2509
v 913.27783 152.5 549.0609
vt -2.744906 0.0 0
vt -2.744906 4.84127 0
f 20/1/8 19/2/8 23/3/8 22/4/8
f 25/1/9 26/9/9 28/10/9 29/4/9
f 26/19/4 20/1/4 22/4/4 28/20/4
g wall_4_22
usemtl wall_1_1
v 913.27783 152.5 552.8709
vt 2.9868107 0.0 0
vt 2.9868107 4.84127 0
f 19/1/8 21/2/8 24/3/8 23/4/8
f 21/1/6 27/21/6 30/22/6 24/4/6
f 27/1/9 25/9/9 29/10/9 30/4/9
g wall_4_23
usemtl wall_1_1
f 22//7 23//7 29//7
f 22//7 29//7 28//7
g wall_4_24
usemtl wall_1_1
f 23//7 24//7 30//7
f 23//7 30//7 29//7
