# 
# Generated by Sweet Home 3D - Mon Apr 10 18:16:48 CDT 2017
# http://www.sweethome3d.com/
# 
mtllib A.mtl
g wall_1_1
usemtl wall_1_1
v 381.3158 0.0 -374.44354
v 270.8671 0.0 -183.14078
v 274.16666 0.0 -181.23578
v 381.3158 0.0 -366.82355
vn 0.0 -1.0 0.0
f 4//1 3//1 2//1
f 4//1 2//1 1//1
g wall_1_2
usemtl wall_1_1
v 277.46622 0.0 -179.33078
v 381.3158 0.0 -359.20355
f 6//1 5//1 3//1
f 6//1 3//1 4//1
g wall_1_3
usemtl wall_1_1
v 270.8671 152.5 -183.14078
v 381.3158 152.5 -374.44354
v 274.16666 152.5 -181.23578
v 381.3158 152.5 -366.82355
vt -7.0126157 0.0 0
vt 0.0 0.0 0
vt 0.0 4.84127 0
vt -7.0126157 4.84127 0
vt 0.120952465 0.0 0
vt 0.120952465 4.84127 0
vt 0.2419046 0.0 0
vt 0.2419046 4.84127 0
vn -0.86602545 0.0 -0.49999997
vn -0.49999934 0.0 0.86602575
vn 1.0 0.0 0.0
vn 0.0 0.0 0.0
f 1/1/2 2/2/2 7/3/2 8/4/2
f 2/2/3 3/5/3 9/6/3 7/3/3
f 4/2/4 1/7/4 8/8/4 10/3/4
g wall_1_4
usemtl wall_1_1
v 277.46622 152.5 -179.33078
v 381.3158 152.5 -359.20355
vt 6.5936246 0.0 0
vt 6.5936246 4.84127 0
vn 0.86602545 0.0 0.49999994
f 3/2/3 5/5/3 11/6/3 9/3/3
f 5/2/6 6/9/6 12/10/6 11/3/6
f 6/2/4 4/7/4 10/8/4 12/3/4
g wall_1_5
usemtl wall_1_1
vn 0.0 1.0 0.0
f 8//7 7//7 9//7
f 8//7 9//7 10//7
g wall_1_6
usemtl wall_1_1
f 10//7 9//7 11//7
f 10//7 11//7 12//7
g wall_2_7
usemtl wall_1_1
v 488.46494 0.0 -181.23578
v 491.7645 0.0 -183.14078
f 14//1 13//1 4//1
f 14//1 4//1 1//1
g wall_2_8
usemtl wall_1_1
v 485.16537 0.0 -179.33078
f 13//1 15//1 6//1
f 13//1 6//1 4//1
g wall_2_9
usemtl wall_1_1
v 491.7645 152.5 -183.14078
v 488.46494 152.5 -181.23578
vn -1.0 0.0 0.0
vn 0.49999934 0.0 0.86602575
vn 0.86602545 0.0 -0.49999997
f 1/2/8 4/7/8 10/8/8 8/3/8
f 13/2/9 14/5/9 16/6/9 17/3/9
f 14/1/10 1/2/10 8/3/10 16/4/10
g wall_2_10
usemtl wall_1_1
v 485.16537 152.5 -179.33078
vn -0.86602545 0.0 0.49999994
f 4/2/8 6/7/8 12/8/8 10/3/8
f 6/2/11 15/9/11 18/10/11 12/3/11
f 15/2/9 13/5/9 17/6/9 18/3/9
g wall_2_11
usemtl wall_1_1
f 8//7 10//7 17//7
f 8//7 17//7 16//7
g wall_2_12
usemtl wall_1_1
f 10//7 12//7 18//7
f 10//7 18//7 17//7
g wall_3_13
usemtl wall_1_1
v 327.5 0.0 -281.04578
v 327.5 0.0 -277.23578
v 432.91 0.0 -277.23578
v 432.91 0.0 -281.04578
f 22//1 21//1 20//1
f 22//1 20//1 19//1
g wall_3_14
usemtl wall_1_1
v 327.5 0.0 -273.42578
v 432.91 0.0 -273.42578
f 21//1 24//1 23//1
f 21//1 23//1 20//1
g wall_3_15
usemtl wall_1_1
v 327.5 152.5 -277.23578
v 327.5 152.5 -281.04578
v 432.91 152.5 -281.04578
v 432.91 152.5 -277.23578
vt 0.1209523 0.0 0
vt 0.1209523 4.84127 0
vt -3.3463492 0.0 0
vt -3.3463492 4.84127 0
vn 0.0 0.0 -1.0
f 19/2/8 20/11/8 25/12/8 26/3/8
f 21/2/4 22/11/4 27/12/4 28/3/4
f 22/13/12 19/2/12 26/3/12 27/14/12
g wall_3_16
usemtl wall_1_1
v 327.5 152.5 -273.42578
v 432.91 152.5 -273.42578
vt 3.3463492 0.0 0
vt 3.3463492 4.84127 0
vn 0.0 0.0 1.0
f 20/2/8 23/11/8 29/12/8 25/3/8
f 23/2/13 24/15/13 30/16/13 29/3/13
f 24/2/4 21/11/4 28/12/4 30/3/4
g wall_3_17
usemtl wall_1_1
f 26//7 25//7 28//7
f 26//7 28//7 27//7
g wall_3_18
usemtl wall_1_1
f 25//7 29//7 30//7
f 25//7 30//7 28//7
