# 
# Generated by Sweet Home 3D - Sat Apr 01 19:16:27 CST 2017
# http://www.sweethome3d.com/
# 
mtllib A.mtl
g wall_1_1
usemtl wall_1_1
v 381.3158 0.0 -374.44354
v 270.8671 0.0 -183.14078
v 274.16666 0.0 -181.23578
v 381.3158 0.0 -366.82355
vn 0.0 -1.0 0.0
f 4//1 3//1 2//1
f 4//1 2//1 1//1
g wall_1_2
usemtl wall_1_1
v 277.46622 0.0 -179.33078
v 381.3158 0.0 -359.20355
f 6//1 5//1 3//1
f 6//1 3//1 4//1
g wall_1_3
usemtl wall_1_1
v 270.8671 152.5 -183.14078
v 381.3158 152.5 -374.44354
v 274.16666 152.5 -181.23578
v 381.3158 152.5 -366.82355
vn -0.86602545 0.0 -0.49999997
vn -0.49999934 0.0 0.86602575
vn 1.0 0.0 0.0
vn 0.0 0.0 0.0
f 1//2 2//2 7//2 8//2
f 2//3 3//3 9//3 7//3
f 4//4 1//4 8//4 10//4
g wall_1_4
usemtl wall_1_1
v 277.46622 152.5 -179.33078
v 381.3158 152.5 -359.20355
vn 0.86602545 0.0 0.49999994
f 3//3 5//3 11//3 9//3
f 5//6 6//6 12//6 11//6
f 6//4 4//4 10//4 12//4
g wall_1_5
usemtl wall_1_1
vn 0.0 1.0 0.0
f 8//7 7//7 9//7
f 8//7 9//7 10//7
g wall_1_6
usemtl wall_1_1
f 10//7 9//7 11//7
f 10//7 11//7 12//7
g wall_2_7
usemtl wall_1_1
v 488.46494 0.0 -181.23578
v 491.7645 0.0 -183.14078
f 14//1 13//1 4//1
f 14//1 4//1 1//1
g wall_2_8
usemtl wall_1_1
v 485.16537 0.0 -179.33078
f 13//1 15//1 6//1
f 13//1 6//1 4//1
g wall_2_9
usemtl wall_1_1
v 491.7645 152.5 -183.14078
v 488.46494 152.5 -181.23578
vn -1.0 0.0 0.0
vn 0.49999934 0.0 0.86602575
vn 0.86602545 0.0 -0.49999997
f 1//8 4//8 10//8 8//8
f 13//9 14//9 16//9 17//9
f 14//10 1//10 8//10 16//10
g wall_2_10
usemtl wall_1_1
v 485.16537 152.5 -179.33078
vn -0.86602545 0.0 0.49999994
f 4//8 6//8 12//8 10//8
f 6//11 15//11 18//11 12//11
f 15//9 13//9 17//9 18//9
g wall_2_11
usemtl wall_1_1
f 8//7 10//7 17//7
f 8//7 17//7 16//7
g wall_2_12
usemtl wall_1_1
f 10//7 12//7 18//7
f 10//7 18//7 17//7
g wall_3_13
usemtl wall_1_1
v 327.5 0.0 -281.04578
v 327.5 0.0 -277.23578
v 432.91 0.0 -277.23578
v 432.91 0.0 -281.04578
f 22//1 21//1 20//1
f 22//1 20//1 19//1
g wall_3_14
usemtl wall_1_1
v 327.5 0.0 -273.42578
v 432.91 0.0 -273.42578
f 21//1 24//1 23//1
f 21//1 23//1 20//1
g wall_3_15
usemtl wall_1_1
v 327.5 152.5 -277.23578
v 327.5 152.5 -281.04578
v 432.91 152.5 -281.04578
v 432.91 152.5 -277.23578
vn 0.0 0.0 -1.0
f 19//8 20//8 25//8 26//8
f 21//4 22//4 27//4 28//4
f 22//12 19//12 26//12 27//12
g wall_3_16
usemtl wall_1_1
v 327.5 152.5 -273.42578
v 432.91 152.5 -273.42578
vn 0.0 0.0 1.0
f 20//8 23//8 29//8 25//8
f 23//13 24//13 30//13 29//13
f 24//4 21//4 28//4 30//4
g wall_3_17
usemtl wall_1_1
f 26//7 25//7 28//7
f 26//7 28//7 27//7
g wall_3_18
usemtl wall_1_1
f 25//7 29//7 30//7
f 25//7 30//7 28//7
