# 
# Generated by Sweet Home 3D - Mon Apr 10 18:16:57 CDT 2017
# http://www.sweethome3d.com/
# 
mtllib B.mtl
g wall_1_1
usemtl wall_1_1
v 549.7222 0.0 -370.31464
v 549.7222 0.0 -186.16464
v 553.5322 0.0 -186.16464
v 553.5322 0.0 -370.31464
vn 0.0 -1.0 0.0
f 4//1 3//1 2//1
f 4//1 2//1 1//1
g wall_1_2
usemtl wall_1_1
v 545.91223 0.0 -370.31464
v 545.91223 0.0 -186.16464
f 1//1 2//1 6//1
f 1//1 6//1 5//1
g wall_1_3
usemtl wall_1_1
v 553.5322 152.5 -186.16464
v 549.7222 152.5 -186.16464
v 553.5322 152.5 -370.31464
v 549.7222 152.5 -370.31464
vt 0.0 0.0 0
vt 0.1209523 0.0 0
vt 0.1209523 4.84127 0
vt 0.0 4.84127 0
vt -5.8460317 0.0 0
vt -5.8460317 4.84127 0
vn 0.0 0.0 1.0
vn 1.0 0.0 0.0
vn 0.0 0.0 -1.0
vn 0.0 0.0 0.0
f 2/1/2 3/2/2 7/3/2 8/4/2
f 3/5/3 4/1/3 9/4/3 7/6/3
f 4/1/4 1/2/4 10/3/4 9/4/4
g wall_1_4
usemtl wall_1_1
v 545.91223 152.5 -186.16464
v 545.91223 152.5 -370.31464
vt 5.8460317 0.0 0
vt 5.8460317 4.84127 0
vn -1.0 0.0 0.0
f 5/1/6 6/7/6 11/8/6 12/4/6
f 6/1/2 2/2/2 8/3/2 11/4/2
f 1/1/4 5/2/4 12/3/4 10/4/4
g wall_1_5
usemtl wall_1_1
vn 0.0 1.0 0.0
f 10//7 8//7 7//7
f 10//7 7//7 9//7
g wall_1_6
usemtl wall_1_1
f 12//7 11//7 8//7
f 12//7 8//7 10//7
g wall_2_7
usemtl wall_1_1
v 590.4867 0.0 -388.32132
v 574.6138 0.0 -386.8505
v 559.7493 0.0 -381.09198
v 547.0282 0.0 -371.48544
v 549.7223 0.0 -368.79135
v 561.6033 0.0 -377.7635
v 575.4861 0.0 -383.1417
v 590.3107 0.0 -384.51538
v 604.94543 0.0 -381.7797
v 618.2727 0.0 -375.14343
v 629.2752 0.0 -365.11334
v 637.1128 0.0 -352.4552
v 641.18713 0.0 -338.13538
v 641.18713 0.0 -323.2472
v 637.1128 0.0 -308.9274
v 629.27515 0.0 -296.26923
v 618.2727 0.0 -286.23914
v 604.9453 0.0 -279.6029
v 590.31067 0.0 -276.86725
v 575.486 0.0 -278.24097
v 561.6033 0.0 -283.6192
v 549.7222 0.0 -292.5913
v 547.02814 0.0 -289.89725
v 559.74927 0.0 -280.29068
v 574.6137 0.0 -274.53217
v 590.48663 0.0 -273.0613
v 606.1561 0.0 -275.99042
v 620.42584 0.0 -283.09592
v 632.2063 0.0 -293.8352
v 640.59814 0.0 -307.38846
v 644.9606 0.0 -322.72083
v 644.9606 0.0 -338.66174
v 640.59814 0.0 -353.9941
v 632.20636 0.0 -367.54736
v 620.4259 0.0 -378.28668
v 606.1562 0.0 -385.39218
f 14//1 13//1 48//1
f 16//1 15//1 14//1
f 18//1 17//1 16//1
f 18//1 16//1 14//1
f 19//1 18//1 14//1
f 20//1 19//1 14//1
f 20//1 14//1 48//1
f 21//1 20//1 48//1
f 21//1 48//1 47//1
f 22//1 21//1 47//1
f 22//1 47//1 46//1
f 23//1 22//1 46//1
f 23//1 46//1 45//1
f 24//1 23//1 45//1
f 24//1 45//1 44//1
f 25//1 24//1 44//1
f 25//1 44//1 43//1
f 26//1 25//1 43//1
f 26//1 43//1 42//1
f 27//1 26//1 42//1
f 27//1 42//1 41//1
f 28//1 27//1 41//1
f 28//1 41//1 40//1
f 29//1 28//1 40//1
f 29//1 40//1 39//1
f 30//1 29//1 39//1
f 30//1 39//1 38//1
f 31//1 30//1 38//1
f 31//1 38//1 37//1
f 32//1 31//1 37//1
f 32//1 37//1 36//1
f 33//1 32//1 36//1
f 33//1 36//1 35//1
f 33//1 35//1 34//1
g wall_2_8
usemtl wall_1_1
v 552.4163 0.0 -366.09726
v 563.4572 0.0 -374.43497
v 576.3584 0.0 -379.4329
v 590.13477 0.0 -380.70944
v 603.7346 0.0 -378.1672
v 616.11957 0.0 -372.0002
v 626.34406 0.0 -362.67935
v 633.62744 0.0 -350.91626
v 637.4137 0.0 -337.609
v 637.41364 0.0 -323.7736
v 633.62744 0.0 -310.46634
v 626.344 0.0 -298.70325
v 616.1195 0.0 -289.3824
v 603.73456 0.0 -283.21542
v 590.1347 0.0 -280.6732
v 576.35834 0.0 -281.94977
v 563.4572 0.0 -286.9477
v 552.4163 0.0 -295.2854
f 19//1 20//1 21//1
f 17//1 18//1 19//1
f 50//1 49//1 17//1
f 50//1 17//1 19//1
f 51//1 50//1 19//1
f 52//1 51//1 19//1
f 52//1 19//1 21//1
f 53//1 52//1 21//1
f 53//1 21//1 22//1
f 54//1 53//1 22//1
f 54//1 22//1 23//1
f 55//1 54//1 23//1
f 55//1 23//1 24//1
f 56//1 55//1 24//1
f 56//1 24//1 25//1
f 57//1 56//1 25//1
f 57//1 25//1 26//1
f 58//1 57//1 26//1
f 58//1 26//1 27//1
f 59//1 58//1 27//1
f 59//1 27//1 28//1
f 60//1 59//1 28//1
f 60//1 28//1 29//1
f 61//1 60//1 29//1
f 61//1 29//1 30//1
f 62//1 61//1 30//1
f 62//1 30//1 31//1
f 63//1 62//1 31//1
f 63//1 31//1 32//1
f 64//1 63//1 32//1
f 64//1 32//1 33//1
f 65//1 64//1 33//1
f 65//1 33//1 34//1
f 65//1 34//1 66//1
g wall_2_9
usemtl wall_1_1
v 574.6138 152.5 -386.8505
v 590.4867 152.5 -388.32132
v 559.7493 152.5 -381.09198
v 547.0282 152.5 -371.48544
v 549.7223 152.5 -368.79135
v 547.02814 152.5 -289.89725
v 549.7222 152.5 -292.5913
v 559.74927 152.5 -280.29068
v 574.6137 152.5 -274.53217
v 590.48663 152.5 -273.0613
v 606.1561 152.5 -275.99042
v 620.42584 152.5 -283.09592
v 632.2063 152.5 -293.8352
v 640.59814 152.5 -307.38846
v 644.9606 152.5 -322.72083
v 644.9606 152.5 -338.66174
v 640.59814 152.5 -353.9941
v 632.20636 152.5 -367.54736
v 620.4259 152.5 -378.28668
v 606.1562 152.5 -385.39218
vt -1.4224697 0.0 0
vt -0.9483129 0.0 0
vt -0.9483129 4.84127 0
vt -1.4224697 4.84127 0
vt -0.47415695 0.0 0
vt -0.47415695 4.84127 0
vt 0.12095305 0.0 0
vt 0.12095305 4.84127 0
vt 0.12095236 0.0 0
vt 0.12095236 4.84127 0
vt -8.060663 0.0 0
vt -7.5865064 0.0 0
vt -7.5865064 4.84127 0
vt -8.060663 4.84127 0
vt -7.11235 0.0 0
vt -7.11235 4.84127 0
vt -6.6381927 0.0 0
vt -6.6381927 4.84127 0
vt -6.1640363 0.0 0
vt -6.1640363 4.84127 0
vt -5.6898794 0.0 0
vt -5.6898794 4.84127 0
vt -5.215724 0.0 0
vt -5.215724 4.84127 0
vt -4.741566 0.0 0
vt -4.741566 4.84127 0
vt -4.26741 0.0 0
vt -4.26741 4.84127 0
vt -3.7932532 0.0 0
vt -3.7932532 4.84127 0
vt -3.3190963 0.0 0
vt -3.3190963 4.84127 0
vt -2.8449395 0.0 0
vt -2.8449395 4.84127 0
vt -2.3707836 0.0 0
vt -2.3707836 4.84127 0
vt -1.8966266 0.0 0
vt -1.8966266 4.84127 0
vn 0.04618408 0.0 -0.99893296
vn -0.22895 0.0 -0.9734382
vn -0.48660412 0.0 -0.8736226
vn -0.602634 0.0 -0.7980177
vn -0.70710677 0.0 0.70710677
vn -0.7071028 0.0 -0.70711076
vn -0.60263526 0.0 0.7980168
vn -0.4866048 0.0 0.87362224
vn -0.2289509 0.0 0.97343796
vn 0.046182185 0.0 0.998933
vn 0.31779128 0.0 0.94816077
vn 0.5651367 0.0 0.82499725
vn 0.76933324 0.0 0.63884765
vn 0.9147937 0.0 0.40392143
vn 0.99041045 0.0 0.13815612
vn 0.99041045 0.0 -0.13815612
vn 0.9147943 0.0 -0.40391994
vn 0.7693348 0.0 -0.63884586
vn 0.56513727 0.0 -0.8249969
vn 0.31779218 0.0 -0.9481604
f 13/9/8 14/10/9 67/11/9 68/12/8
f 14/10/9 15/13/10 69/14/10 67/11/9
f 15/13/10 16/1/11 70/4/11 69/14/10
f 16/1/12 17/15/12 71/16/12 70/4/12
f 34/1/13 35/17/13 72/18/13 73/4/13
f 35/19/14 36/20/15 74/21/15 72/22/14
f 36/20/15 37/23/16 75/24/16 74/21/15
f 37/23/16 38/25/17 76/26/17 75/24/16
f 38/25/17 39/27/18 77/28/18 76/26/17
f 39/27/18 40/29/19 78/30/19 77/28/18
f 40/29/19 41/31/20 79/32/20 78/30/19
f 41/31/20 42/33/21 80/34/21 79/32/20
f 42/33/21 43/35/22 81/36/22 80/34/21
f 43/35/22 44/37/23 82/38/23 81/36/22
f 44/37/23 45/39/24 83/40/24 82/38/23
f 45/39/24 46/41/25 84/42/25 83/40/24
f 46/41/25 47/43/26 85/44/26 84/42/25
f 47/43/26 48/45/27 86/46/27 85/44/26
f 48/45/27 13/9/8 68/12/8 86/46/27
g wall_2_10
usemtl wall_1_1
v 552.4163 152.5 -366.09726
v 563.4572 152.5 -374.43497
v 576.3584 152.5 -379.4329
v 590.13477 152.5 -380.70944
v 603.7346 152.5 -378.1672
v 616.11957 152.5 -372.0002
v 626.34406 152.5 -362.67935
v 633.62744 152.5 -350.91626
v 637.4137 152.5 -337.609
v 637.41364 152.5 -323.7736
v 633.62744 152.5 -310.46634
v 626.344 152.5 -298.70325
v 616.1195 152.5 -289.3824
v 603.73456 152.5 -283.21542
v 590.1347 152.5 -280.6732
v 576.35834 152.5 -281.94977
v 563.4572 152.5 -286.9477
v 552.4163 152.5 -295.2854
vt 0.12095168 0.0 0
vt 0.12095168 4.84127 0
vt 0.47415695 0.0 0
vt 0.47415695 4.84127 0
vt 0.94831485 0.0 0
vt 0.94831485 4.84127 0
vt 1.4224708 0.0 0
vt 1.4224708 4.84127 0
vt 1.8966279 0.0 0
vt 1.8966279 4.84127 0
vt 2.3707848 0.0 0
vt 2.3707848 4.84127 0
vt 2.8449411 0.0 0
vt 2.8449411 4.84127 0
vt 3.3190973 0.0 0
vt 3.3190973 4.84127 0
vt 3.793254 0.0 0
vt 3.793254 4.84127 0
vt 4.2674108 0.0 0
vt 4.2674108 4.84127 0
vt 4.741567 0.0 0
vt 4.741567 4.84127 0
vt 5.2157245 0.0 0
vt 5.2157245 4.84127 0
vt 5.689881 0.0 0
vt 5.689881 4.84127 0
vt 6.164037 0.0 0
vt 6.164037 4.84127 0
vt 6.6381946 0.0 0
vt 6.6381946 4.84127 0
vt 7.11235 0.0 0
vt 7.11235 4.84127 0
vt 7.586508 0.0 0
vt 7.586508 4.84127 0
vt 8.060664 0.0 0
vt 8.060664 4.84127 0
vn -0.70711476 0.0 0.7070988
vn 0.6026352 0.0 0.7980169
vn 0.48660415 0.0 0.8736226
vn 0.22894923 0.0 0.9734383
vn -0.046183515 0.0 0.99893296
vn -0.31779146 0.0 0.9481606
vn -0.56513715 0.0 0.82499695
vn -0.7693344 0.0 0.63884634
vn -0.9147938 0.0 0.40392116
vn -0.9904106 0.0 0.13815472
vn -0.9904103 0.0 -0.13815697
vn -0.9147939 0.0 -0.40392095
vn -0.7693332 0.0 -0.63884777
vn -0.5651364 0.0 -0.8249975
vn -0.31779057 0.0 -0.948161
vn -0.046182416 0.0 -0.998933
vn 0.22895108 0.0 -0.9734379
vn 0.48660487 0.0 -0.8736222
vn 0.6026352 0.0 -0.7980169
vn -0.70710677 0.0 -0.70710677
f 17/1/28 49/47/28 87/48/28 71/4/28
f 49/1/29 50/49/30 88/50/30 87/4/29
f 50/49/30 51/51/31 89/52/31 88/50/30
f 51/51/31 52/53/32 90/54/32 89/52/31
f 52/53/32 53/55/33 91/56/33 90/54/32
f 53/55/33 54/57/34 92/58/34 91/56/33
f 54/57/34 55/59/35 93/60/35 92/58/34
f 55/59/35 56/61/36 94/62/36 93/60/35
f 56/61/36 57/63/37 95/64/37 94/62/36
f 57/63/37 58/65/38 96/66/38 95/64/37
f 58/65/38 59/67/39 97/68/39 96/66/38
f 59/67/39 60/69/40 98/70/40 97/68/39
f 60/69/40 61/71/41 99/72/41 98/70/40
f 61/71/41 62/73/42 100/74/42 99/72/41
f 62/73/42 63/75/43 101/76/43 100/74/42
f 63/75/43 64/77/44 102/78/44 101/76/43
f 64/77/44 65/79/45 103/80/45 102/78/44
f 65/79/45 66/81/46 104/82/46 103/80/45
f 66/1/47 34/15/47 73/16/47 104/4/47
g wall_2_11
usemtl wall_1_1
v 561.6033 152.5 -377.7635
v 575.4861 152.5 -383.1417
v 590.3107 152.5 -384.51538
v 604.94543 152.5 -381.7797
v 618.2727 152.5 -375.14343
v 629.2752 152.5 -365.11334
v 637.1128 152.5 -352.4552
v 641.18713 152.5 -338.13538
v 641.18713 152.5 -323.2472
v 637.1128 152.5 -308.9274
v 629.27515 152.5 -296.26923
v 618.2727 152.5 -286.23914
v 604.9453 152.5 -279.6029
v 590.31067 152.5 -276.86725
v 575.486 152.5 -278.24097
v 561.6033 152.5 -283.6192
f 85//7 86//7 68//7
f 83//7 84//7 85//7
f 81//7 82//7 83//7
f 79//7 80//7 81//7
f 77//7 78//7 79//7
f 75//7 76//7 77//7
f 72//7 74//7 75//7
f 120//7 73//7 72//7
f 120//7 72//7 75//7
f 119//7 120//7 75//7
f 118//7 119//7 75//7
f 118//7 75//7 77//7
f 117//7 118//7 77//7
f 116//7 117//7 77//7
f 116//7 77//7 79//7
f 115//7 116//7 79//7
f 114//7 115//7 79//7
f 114//7 79//7 81//7
f 113//7 114//7 81//7
f 112//7 113//7 81//7
f 112//7 81//7 83//7
f 111//7 112//7 83//7
f 110//7 111//7 83//7
f 110//7 83//7 85//7
f 109//7 110//7 85//7
f 108//7 109//7 85//7
f 108//7 85//7 68//7
f 107//7 108//7 68//7
f 107//7 68//7 67//7
f 106//7 107//7 67//7
f 106//7 67//7 69//7
f 105//7 106//7 69//7
f 105//7 69//7 70//7
f 105//7 70//7 71//7
g wall_2_12
usemtl wall_1_1
f 109//7 108//7 107//7
f 111//7 110//7 109//7
f 113//7 112//7 111//7
f 115//7 114//7 113//7
f 117//7 116//7 115//7
f 119//7 118//7 117//7
f 73//7 120//7 119//7
f 103//7 104//7 73//7
f 103//7 73//7 119//7
f 102//7 103//7 119//7
f 101//7 102//7 119//7
f 101//7 119//7 117//7
f 100//7 101//7 117//7
f 99//7 100//7 117//7
f 99//7 117//7 115//7
f 98//7 99//7 115//7
f 97//7 98//7 115//7
f 97//7 115//7 113//7
f 96//7 97//7 113//7
f 95//7 96//7 113//7
f 95//7 113//7 111//7
f 94//7 95//7 111//7
f 93//7 94//7 111//7
f 93//7 111//7 109//7
f 92//7 93//7 109//7
f 91//7 92//7 109//7
f 91//7 109//7 107//7
f 90//7 91//7 107//7
f 90//7 107//7 106//7
f 89//7 90//7 106//7
f 89//7 106//7 105//7
f 88//7 89//7 105//7
f 88//7 105//7 71//7
f 88//7 71//7 87//7
g wall_3_13
usemtl wall_1_1
v 591.356 0.0 -282.3361
v 575.97723 0.0 -280.91104
v 561.57556 0.0 -275.3318
v 549.2505 0.0 -266.02432
v 551.9446 0.0 -263.33026
v 563.4295 0.0 -272.0033
v 576.84955 0.0 -277.20224
v 591.18005 0.0 -278.53015
v 605.3269 0.0 -275.88565
v 618.20996 0.0 -269.47064
v 628.8457 0.0 -259.7749
v 636.422 0.0 -247.53864
v 640.3606 0.0 -233.69617
v 640.3606 0.0 -219.30428
v 636.422 0.0 -205.46179
v 628.8457 0.0 -193.22556
v 618.20996 0.0 -183.52982
v 605.3269 0.0 -177.1148
v 591.18 0.0 -174.4703
v 576.8495 0.0 -175.79823
v 563.42944 0.0 -180.99718
v 551.9445 0.0 -189.67023
v 549.2504 0.0 -186.97615
v 561.5755 0.0 -177.66867
v 575.97723 0.0 -172.08943
v 591.35596 0.0 -170.66437
v 606.53766 0.0 -173.5023
v 620.3631 0.0 -180.38658
v 631.77686 0.0 -190.79155
v 639.9074 0.0 -203.92285
v 644.13403 0.0 -218.7779
v 644.13403 0.0 -234.22253
v 639.9074 0.0 -249.07758
v 631.77686 0.0 -262.2089
v 620.36316 0.0 -272.61386
v 606.53766 0.0 -279.49814
f 122//1 121//1 156//1
f 124//1 123//1 122//1
f 126//1 125//1 124//1
f 126//1 124//1 122//1
f 127//1 126//1 122//1
f 128//1 127//1 122//1
f 128//1 122//1 156//1
f 129//1 128//1 156//1
f 129//1 156//1 155//1
f 130//1 129//1 155//1
f 130//1 155//1 154//1
f 131//1 130//1 154//1
f 131//1 154//1 153//1
f 132//1 131//1 153//1
f 132//1 153//1 152//1
f 133//1 132//1 152//1
f 133//1 152//1 151//1
f 134//1 133//1 151//1
f 134//1 151//1 150//1
f 135//1 134//1 150//1
f 135//1 150//1 149//1
f 136//1 135//1 149//1
f 136//1 149//1 148//1
f 137//1 136//1 148//1
f 137//1 148//1 147//1
f 138//1 137//1 147//1
f 138//1 147//1 146//1
f 139//1 138//1 146//1
f 139//1 146//1 145//1
f 140//1 139//1 145//1
f 140//1 145//1 144//1
f 141//1 140//1 144//1
f 141//1 144//1 143//1
f 141//1 143//1 142//1
g wall_3_14
usemtl wall_1_1
v 554.6386 0.0 -260.63617
v 565.28345 0.0 -268.67477
v 577.72186 0.0 -273.49344
v 591.0041 0.0 -274.7242
v 604.1161 0.0 -272.27316
v 616.05676 0.0 -266.3274
v 625.91455 0.0 -257.34088
v 632.93665 0.0 -245.99971
v 636.5871 0.0 -233.16978
v 636.5871 0.0 -219.83066
v 632.93665 0.0 -207.00073
v 625.9145 0.0 -195.65958
v 616.05676 0.0 -186.67307
v 604.1161 0.0 -180.7273
v 591.004 0.0 -178.27625
v 577.7218 0.0 -179.50703
v 565.28345 0.0 -184.32568
v 554.6386 0.0 -192.3643
f 127//1 128//1 129//1
f 125//1 126//1 127//1
f 158//1 157//1 125//1
f 158//1 125//1 127//1
f 159//1 158//1 127//1
f 160//1 159//1 127//1
f 160//1 127//1 129//1
f 161//1 160//1 129//1
f 161//1 129//1 130//1
f 162//1 161//1 130//1
f 162//1 130//1 131//1
f 163//1 162//1 131//1
f 163//1 131//1 132//1
f 164//1 163//1 132//1
f 164//1 132//1 133//1
f 165//1 164//1 133//1
f 165//1 133//1 134//1
f 166//1 165//1 134//1
f 166//1 134//1 135//1
f 167//1 166//1 135//1
f 167//1 135//1 136//1
f 168//1 167//1 136//1
f 168//1 136//1 137//1
f 169//1 168//1 137//1
f 169//1 137//1 138//1
f 170//1 169//1 138//1
f 170//1 138//1 139//1
f 171//1 170//1 139//1
f 171//1 139//1 140//1
f 172//1 171//1 140//1
f 172//1 140//1 141//1
f 173//1 172//1 141//1
f 173//1 141//1 142//1
f 173//1 142//1 174//1
g wall_3_15
usemtl wall_1_1
v 575.97723 152.5 -280.91104
v 591.356 152.5 -282.3361
v 561.57556 152.5 -275.3318
v 549.2505 152.5 -266.02432
v 551.9446 152.5 -263.33026
v 549.2504 152.5 -186.97615
v 551.9445 152.5 -189.67023
v 561.5755 152.5 -177.66867
v 575.97723 152.5 -172.08943
v 591.35596 152.5 -170.66437
v 606.53766 152.5 -173.5023
v 620.3631 152.5 -180.38658
v 631.77686 152.5 -190.79155
v 639.9074 152.5 -203.92285
v 644.13403 152.5 -218.7779
v 644.13403 152.5 -234.22253
v 639.9074 152.5 -249.07758
v 631.77686 152.5 -262.2089
v 620.36316 152.5 -272.61386
v 606.53766 152.5 -279.49814
vt -1.3750541 0.0 0
vt -0.916702 0.0 0
vt -0.916702 4.84127 0
vt -1.3750541 4.84127 0
vt -0.45835117 0.0 0
vt -0.45835117 4.84127 0
vt 0.12095271 0.0 0
vt 0.12095271 4.84127 0
vt -7.791972 0.0 0
vt -7.333621 0.0 0
vt -7.333621 4.84127 0
vt -7.791972 4.84127 0
vt -6.8752685 0.0 0
vt -6.8752685 4.84127 0
vt -6.4169188 0.0 0
vt -6.4169188 4.84127 0
vt -5.958566 0.0 0
vt -5.958566 4.84127 0
vt -5.5002155 0.0 0
vt -5.5002155 4.84127 0
vt -5.041864 0.0 0
vt -5.041864 4.84127 0
vt -4.583513 0.0 0
vt -4.583513 4.84127 0
vt -4.125161 0.0 0
vt -4.125161 4.84127 0
vt -3.6668103 0.0 0
vt -3.6668103 4.84127 0
vt -3.2084591 0.0 0
vt -3.2084591 4.84127 0
vt -2.7501073 0.0 0
vt -2.7501073 4.84127 0
vt -2.291757 0.0 0
vt -2.291757 4.84127 0
vt -1.8334049 0.0 0
vt -1.8334049 4.84127 0
vn 0.046183985 0.0 -0.99893296
vn -0.22895086 0.0 -0.97343796
vn -0.48660493 0.0 -0.8736221
vn -0.60263467 0.0 -0.7980172
vn -0.7071028 0.0 0.70711076
vn -0.7071048 0.0 -0.7071088
vn -0.6026353 0.0 0.7980167
vn -0.48660424 0.0 0.87362254
vn -0.22895037 0.0 0.9734381
vn 0.046182476 0.0 0.998933
vn 0.31779167 0.0 0.9481605
vn 0.56513613 0.0 0.82499766
vn 0.76933336 0.0 0.6388476
vn 0.9147939 0.0 0.4039209
vn 0.9904104 0.0 0.13815635
vn 0.9904104 0.0 -0.13815635
vn 0.914794 0.0 -0.40392068
vn 0.7693343 0.0 -0.6388464
vn 0.56513655 0.0 -0.8249974
vn 0.31779164 0.0 -0.94816065
f 121/83/48 122/84/49 175/85/49 176/86/48
f 122/84/49 123/87/50 177/88/50 175/85/49
f 123/87/50 124/1/51 178/4/51 177/88/50
f 124/1/52 125/17/52 179/18/52 178/4/52
f 142/1/53 143/89/53 180/90/53 181/4/53
f 143/91/54 144/92/55 182/93/55 180/94/54
f 144/92/55 145/95/56 183/96/56 182/93/55
f 145/95/56 146/97/57 184/98/57 183/96/56
f 146/97/57 147/99/58 185/100/58 184/98/57
f 147/99/58 148/101/59 186/102/59 185/100/58
f 148/101/59 149/103/60 187/104/60 186/102/59
f 149/103/60 150/105/61 188/106/61 187/104/60
f 150/105/61 151/107/62 189/108/62 188/106/61
f 151/107/62 152/109/63 190/110/63 189/108/62
f 152/109/63 153/111/64 191/112/64 190/110/63
f 153/111/64 154/113/65 192/114/65 191/112/64
f 154/113/65 155/115/66 193/116/66 192/114/65
f 155/115/66 156/117/67 194/118/67 193/116/66
f 156/117/67 121/83/48 176/86/48 194/118/67
g wall_3_16
usemtl wall_1_1
v 554.6386 152.5 -260.63617
v 565.28345 152.5 -268.67477
v 577.72186 152.5 -273.49344
v 591.0041 152.5 -274.7242
v 604.1161 152.5 -272.27316
v 616.05676 152.5 -266.3274
v 625.91455 152.5 -257.34088
v 632.93665 152.5 -245.99971
v 636.5871 152.5 -233.16978
v 636.5871 152.5 -219.83066
v 632.93665 152.5 -207.00073
v 625.9145 152.5 -195.65958
v 616.05676 152.5 -186.67307
v 604.1161 152.5 -180.7273
v 591.004 152.5 -178.27625
v 577.7218 152.5 -179.50703
v 565.28345 152.5 -184.32568
v 554.6386 152.5 -192.3643
vt 0.4583504 0.0 0
vt 0.4583504 4.84127 0
vt 0.9167031 0.0 0
vt 0.9167031 4.84127 0
vt 1.3750544 0.0 0
vt 1.3750544 4.84127 0
vt 1.8334053 0.0 0
vt 1.8334053 4.84127 0
vt 2.291756 0.0 0
vt 2.291756 4.84127 0
vt 2.7501082 0.0 0
vt 2.7501082 4.84127 0
vt 3.2084587 0.0 0
vt 3.2084587 4.84127 0
vt 3.6668105 0.0 0
vt 3.6668105 4.84127 0
vt 4.125161 0.0 0
vt 4.125161 4.84127 0
vt 4.5835137 0.0 0
vt 4.5835137 4.84127 0
vt 5.041865 0.0 0
vt 5.041865 4.84127 0
vt 5.5002155 0.0 0
vt 5.5002155 4.84127 0
vt 5.958566 0.0 0
vt 5.958566 4.84127 0
vt 6.416919 0.0 0
vt 6.416919 4.84127 0
vt 6.875271 0.0 0
vt 6.875271 4.84127 0
vt 7.333621 0.0 0
vt 7.333621 4.84127 0
vt 7.791972 0.0 0
vt 7.791972 4.84127 0
vn 0.6026345 0.0 0.7980173
vn 0.4866043 0.0 0.8736225
vn 0.22895025 0.0 0.9734382
vn -0.046183378 0.0 0.99893296
vn -0.31779182 0.0 0.9481605
vn -0.5651358 0.0 0.82499784
vn -0.7693344 0.0 0.63884646
vn -0.9147943 0.0 0.40392
vn -0.9904104 0.0 0.13815719
vn -0.9904104 0.0 -0.13815719
vn -0.9147934 0.0 -0.40392202
vn -0.76933384 0.0 -0.63884693
vn -0.56513715 0.0 -0.82499695
vn -0.3177914 0.0 -0.94816065
vn -0.046182398 0.0 -0.998933
vn 0.22895105 0.0 -0.9734379
vn 0.486605 0.0 -0.8736221
vn 0.60263526 0.0 -0.7980168
f 125/1/28 157/47/28 195/48/28 179/4/28
f 157/1/68 158/119/69 196/120/69 195/4/68
f 158/119/69 159/121/70 197/122/70 196/120/69
f 159/121/70 160/123/71 198/124/71 197/122/70
f 160/123/71 161/125/72 199/126/72 198/124/71
f 161/125/72 162/127/73 200/128/73 199/126/72
f 162/127/73 163/129/74 201/130/74 200/128/73
f 163/129/74 164/131/75 202/132/75 201/130/74
f 164/131/75 165/133/76 203/134/76 202/132/75
f 165/133/76 166/135/77 204/136/77 203/134/76
f 166/135/77 167/137/78 205/138/78 204/136/77
f 167/137/78 168/139/79 206/140/79 205/138/78
f 168/139/79 169/141/80 207/142/80 206/140/79
f 169/141/80 170/143/81 208/144/81 207/142/80
f 170/143/81 171/145/82 209/146/82 208/144/81
f 171/145/82 172/147/83 210/148/83 209/146/82
f 172/147/83 173/149/84 211/150/84 210/148/83
f 173/149/84 174/151/85 212/152/85 211/150/84
f 174/1/53 142/89/53 181/90/53 212/4/53
g wall_3_17
usemtl wall_1_1
v 563.4295 152.5 -272.0033
v 576.84955 152.5 -277.20224
v 591.18005 152.5 -278.53015
v 605.3269 152.5 -275.88565
v 618.20996 152.5 -269.47064
v 628.8457 152.5 -259.7749
v 636.422 152.5 -247.53864
v 640.3606 152.5 -233.69617
v 640.3606 152.5 -219.30428
v 636.422 152.5 -205.46179
v 628.8457 152.5 -193.22556
v 618.20996 152.5 -183.52982
v 605.3269 152.5 -177.1148
v 591.18 152.5 -174.4703
v 576.8495 152.5 -175.79823
v 563.42944 152.5 -180.99718
f 193//7 194//7 176//7
f 191//7 192//7 193//7
f 189//7 190//7 191//7
f 187//7 188//7 189//7
f 185//7 186//7 187//7
f 183//7 184//7 185//7
f 180//7 182//7 183//7
f 228//7 181//7 180//7
f 228//7 180//7 183//7
f 227//7 228//7 183//7
f 226//7 227//7 183//7
f 226//7 183//7 185//7
f 225//7 226//7 185//7
f 224//7 225//7 185//7
f 224//7 185//7 187//7
f 223//7 224//7 187//7
f 222//7 223//7 187//7
f 222//7 187//7 189//7
f 221//7 222//7 189//7
f 220//7 221//7 189//7
f 220//7 189//7 191//7
f 219//7 220//7 191//7
f 218//7 219//7 191//7
f 218//7 191//7 193//7
f 217//7 218//7 193//7
f 216//7 217//7 193//7
f 216//7 193//7 176//7
f 215//7 216//7 176//7
f 215//7 176//7 175//7
f 214//7 215//7 175//7
f 214//7 175//7 177//7
f 213//7 214//7 177//7
f 213//7 177//7 178//7
f 213//7 178//7 179//7
g wall_3_18
usemtl wall_1_1
f 217//7 216//7 215//7
f 219//7 218//7 217//7
f 221//7 220//7 219//7
f 223//7 222//7 221//7
f 225//7 224//7 223//7
f 227//7 226//7 225//7
f 181//7 228//7 227//7
f 211//7 212//7 181//7
f 211//7 181//7 227//7
f 210//7 211//7 227//7
f 209//7 210//7 227//7
f 209//7 227//7 225//7
f 208//7 209//7 225//7
f 207//7 208//7 225//7
f 207//7 225//7 223//7
f 206//7 207//7 223//7
f 205//7 206//7 223//7
f 205//7 223//7 221//7
f 204//7 205//7 221//7
f 203//7 204//7 221//7
f 203//7 221//7 219//7
f 202//7 203//7 219//7
f 201//7 202//7 219//7
f 201//7 219//7 217//7
f 200//7 201//7 217//7
f 199//7 200//7 217//7
f 199//7 217//7 215//7
f 198//7 199//7 215//7
f 198//7 215//7 214//7
f 197//7 198//7 214//7
f 197//7 214//7 213//7
f 196//7 197//7 213//7
f 196//7 213//7 179//7
f 196//7 179//7 195//7
