# 
# Generated by Sweet Home 3D - Sat Apr 01 19:26:13 CST 2017
# http://www.sweethome3d.com/
# 
mtllib C.mtl
g wall_1_1
usemtl wall_1_1
v 797.4404 0.0 -372.08228
v 778.474 0.0 -369.58533
v 760.3325 0.0 -363.51526
v 743.6825 0.0 -354.09515
v 729.13586 0.0 -341.67114
v 717.2272 0.0 -326.69977
v 708.3938 0.0 -309.7312
v 702.9606 0.0 -291.38885
v 701.1271 0.0 -272.34686
v 702.9606 0.0 -253.30484
v 708.3938 0.0 -234.96252
v 717.2272 0.0 -217.99394
v 729.13586 0.0 -203.02258
v 743.6825 0.0 -190.59859
v 760.3325 0.0 -181.17848
v 778.474 0.0 -175.1084
v 797.4404 0.0 -172.61143
v 816.53485 0.0 -173.7793
v 835.0556 0.0 -178.56909
v 833.7525 0.0 -182.14932
v 815.93884 0.0 -177.54239
v 797.5734 0.0 -176.41911
v 779.3311 0.0 -178.82076
v 761.88214 0.0 -184.65909
v 745.86786 0.0 -193.71956
v 731.8766 0.0 -205.66922
v 720.4225 0.0 -220.06902
v 711.9264 0.0 -236.38979
v 706.7006 0.0 -254.03183
v 704.9371 0.0 -272.34686
v 706.7006 0.0 -290.6619
v 711.9264 0.0 -308.30392
v 720.4225 0.0 -324.6247
v 731.8765 0.0 -339.02448
v 745.86786 0.0 -350.97418
v 761.88214 0.0 -360.03464
v 779.33105 0.0 -365.87296
v 797.57336 0.0 -368.2746
v 815.93884 0.0 -367.15134
v 833.7525 0.0 -362.5444
v 835.0556 0.0 -366.12463
v 816.53485 0.0 -370.91443
vn 0.0 -1.0 0.0
vn 0.0 0.0 0.0
f 2//1 1//1 42//1
f 2//1 42//1 41//1
f 4//1 3//1 2//1
f 5//1 4//1 2//1
f 7//1 6//1 5//1
f 8//1 7//1 5//1
f 10//1 9//1 8//1
f 11//1 10//1 8//1
f 13//1 12//1 11//1
f 14//1 13//1 11//1
f 16//1 15//1 14//1
f 17//1 16//1 14//1
f 19//1 18//1 17//1
f 20//1 19//1 17//1
f 21//1 20//1 17//1
f 22//1 21//1 17//1
f 23//1 22//1 17//1
f 23//1 17//1 14//1
f 24//1 23//1 14//1
f 25//1 24//1 14//1
f 26//1 25//1 14//1
f 26//1 14//1 11//1
f 27//1 26//1 11//1
f 28//1 27//1 11//1
f 29//1 28//1 11//1
f 29//1 11//1 8//1
f 30//1 29//1 8//1
f 31//1 30//1 8//1
f 32//1 31//1 8//1
f 32//1 8//1 5//1
f 33//1 32//1 5//1
f 34//1 33//1 5//1
f 35//1 34//1 5//1
f 35//1 5//1 2//1
f 36//1 35//1 2//1
f 37//1 36//1 2//1
f 38//1 37//1 2//1
f 38//1 2//1 41//1
f 39//1 38//1 41//1
f 39//1 41//1 40//1
g wall_1_2
usemtl wall_1_1
v 797.30743 0.0 -375.88995
v 777.61694 0.0 -373.29767
v 758.78284 0.0 -366.99585
v 741.4972 0.0 -357.21613
v 726.3952 0.0 -344.31778
v 714.0318 0.0 -328.77484
v 704.86127 0.0 -311.15845
v 699.2206 0.0 -292.11584
v 697.3171 0.0 -272.34683
v 699.2206 0.0 -252.57787
v 704.86127 0.0 -233.53528
v 714.0318 0.0 -215.91887
v 726.3952 0.0 -200.37593
v 741.4972 0.0 -187.47762
v 758.78284 0.0 -177.69788
v 777.61694 0.0 -171.39606
v 797.3075 0.0 -168.80376
v 817.13086 0.0 -170.01622
v 836.3587 0.0 -174.98886
v 836.3587 0.0 -369.70486
v 817.13086 0.0 -374.67752
f 44//1 43//1 63//1
f 44//1 63//1 62//1
f 46//1 45//1 44//1
f 47//1 46//1 44//1
f 49//1 48//1 47//1
f 50//1 49//1 47//1
f 52//1 51//1 50//1
f 53//1 52//1 50//1
f 55//1 54//1 53//1
f 56//1 55//1 53//1
f 58//1 57//1 56//1
f 59//1 58//1 56//1
f 61//1 60//1 59//1
f 19//1 61//1 59//1
f 18//1 19//1 59//1
f 17//1 18//1 59//1
f 16//1 17//1 59//1
f 16//1 59//1 56//1
f 15//1 16//1 56//1
f 14//1 15//1 56//1
f 13//1 14//1 56//1
f 13//1 56//1 53//1
f 12//1 13//1 53//1
f 11//1 12//1 53//1
f 10//1 11//1 53//1
f 10//1 53//1 50//1
f 9//1 10//1 50//1
f 8//1 9//1 50//1
f 7//1 8//1 50//1
f 7//1 50//1 47//1
f 6//1 7//1 47//1
f 5//1 6//1 47//1
f 4//1 5//1 47//1
f 4//1 47//1 44//1
f 3//1 4//1 44//1
f 2//1 3//1 44//1
f 1//1 2//1 44//1
f 1//1 44//1 62//1
f 42//1 1//1 62//1
f 42//1 62//1 41//1
g wall_1_3
usemtl wall_1_1
v 833.7525 152.5 -182.14932
v 835.0556 152.5 -178.56909
v 815.93884 152.5 -177.54239
v 797.5734 152.5 -176.41911
v 779.3311 152.5 -178.82076
v 761.88214 152.5 -184.65909
v 745.86786 152.5 -193.71956
v 731.8766 152.5 -205.66922
v 720.4225 152.5 -220.06902
v 711.9264 152.5 -236.38979
v 706.7006 152.5 -254.03183
v 704.9371 152.5 -272.34686
v 706.7006 152.5 -290.6619
v 711.9264 152.5 -308.30392
v 720.4225 152.5 -324.6247
v 731.8765 152.5 -339.02448
v 745.86786 152.5 -350.97418
v 761.88214 152.5 -360.03464
v 779.33105 152.5 -365.87296
v 797.57336 152.5 -368.2746
v 815.93884 152.5 -367.15134
v 833.7525 152.5 -362.5444
v 835.0556 152.5 -366.12463
vn 0.9396923 0.0 -0.34202087
vn -0.2503804 0.0 -0.9681475
vn -0.15643463 0.0 -0.9876883
vn 0.034899417 0.0 -0.99939084
vn 0.22495064 0.0 -0.9743701
vn 0.4067369 0.0 -0.9135453
vn 0.57357675 0.0 -0.8191519
vn 0.7193398 0.0 -0.69465834
vn 0.8386702 0.0 -0.5446396
vn 0.9271839 0.0 -0.37460646
vn 0.98162735 0.0 -0.19080827
vn 1.0 0.0 0.0
vn 0.9816273 0.0 0.19080836
vn 0.92718387 0.0 0.37460655
vn 0.8386708 0.0 0.5446387
vn 0.71934044 0.0 0.69465774
vn 0.57357633 0.0 0.8191521
vn 0.40673673 0.0 0.9135454
vn 0.22495079 0.0 0.9743701
vn 0.034899935 0.0 0.99939084
vn -0.15643412 0.0 0.9876884
vn -0.2503804 0.0 0.9681475
vn 0.9396923 0.0 0.34202087
f 19//3 20//3 64//3 65//3
f 20//4 21//5 66//5 64//4
f 21//5 22//6 67//6 66//5
f 22//6 23//7 68//7 67//6
f 23//7 24//8 69//8 68//7
f 24//8 25//9 70//9 69//8
f 25//9 26//10 71//10 70//9
f 26//10 27//11 72//11 71//10
f 27//11 28//12 73//12 72//11
f 28//12 29//13 74//13 73//12
f 29//13 30//14 75//14 74//13
f 30//14 31//15 76//15 75//14
f 31//15 32//16 77//16 76//15
f 32//16 33//17 78//17 77//16
f 33//17 34//18 79//18 78//17
f 34//18 35//19 80//19 79//18
f 35//19 36//20 81//20 80//19
f 36//20 37//21 82//21 81//20
f 37//21 38//22 83//22 82//21
f 38//22 39//23 84//23 83//22
f 39//23 40//24 85//24 84//23
f 40//25 41//25 86//25 85//25
g wall_1_4
usemtl wall_1_1
v 777.61694 152.5 -373.29767
v 797.30743 152.5 -375.88995
v 758.78284 152.5 -366.99585
v 741.4972 152.5 -357.21613
v 726.3952 152.5 -344.31778
v 714.0318 152.5 -328.77484
v 704.86127 152.5 -311.15845
v 699.2206 152.5 -292.11584
v 697.3171 152.5 -272.34683
v 699.2206 152.5 -252.57787
v 704.86127 152.5 -233.53528
v 714.0318 152.5 -215.91887
v 726.3952 152.5 -200.37593
v 741.4972 152.5 -187.47762
v 758.78284 152.5 -177.69788
v 777.61694 152.5 -171.39606
v 797.3075 152.5 -168.80376
v 817.13086 152.5 -170.01622
v 836.3587 152.5 -174.98886
v 836.3587 152.5 -369.70486
v 817.13086 152.5 -374.67752
vn -0.034899566 0.0 -0.99939084
vn -0.224951 0.0 -0.97437006
vn -0.40673652 0.0 -0.9135455
vn -0.57357645 0.0 -0.81915206
vn -0.71934026 0.0 -0.69465786
vn -0.83867043 0.0 -0.54463917
vn -0.9271836 0.0 -0.3746072
vn -0.9816273 0.0 -0.19080833
vn -1.0 0.0 0.0000001
vn -0.9816273 0.0 0.19080856
vn -0.9271837 0.0 0.3746071
vn -0.8386706 0.0 0.54463905
vn -0.7193399 0.0 0.6946583
vn -0.5735762 0.0 0.8191522
vn -0.40673682 0.0 0.91354537
vn -0.22495115 0.0 0.97437
vn -0.03489889 0.0 0.99939084
vn 0.15643439 0.0 0.98768836
vn 0.25037915 0.0 0.9681478
vn 0.2503799 0.0 -0.96814764
vn 0.15643391 0.0 -0.9876884
f 43//26 44//27 87//27 88//26
f 44//27 45//28 89//28 87//27
f 45//28 46//29 90//29 89//28
f 46//29 47//30 91//30 90//29
f 47//30 48//31 92//31 91//30
f 48//31 49//32 93//32 92//31
f 49//32 50//33 94//33 93//32
f 50//33 51//34 95//34 94//33
f 51//34 52//35 96//35 95//34
f 52//35 53//36 97//36 96//35
f 53//36 54//37 98//37 97//36
f 54//37 55//38 99//38 98//37
f 55//38 56//39 100//39 99//38
f 56//39 57//40 101//40 100//39
f 57//40 58//41 102//41 101//40
f 58//41 59//42 103//42 102//41
f 59//42 60//43 104//43 103//42
f 60//43 61//44 105//44 104//43
f 61//3 19//3 65//3 105//3
f 41//25 62//25 106//25 86//25
f 62//45 63//46 107//46 106//45
f 63//46 43//26 88//26 107//46
g wall_1_5
usemtl wall_1_1
v 797.4404 152.5 -372.08228
v 778.474 152.5 -369.58533
v 760.3325 152.5 -363.51526
v 743.6825 152.5 -354.09515
v 729.13586 152.5 -341.67114
v 717.2272 152.5 -326.69977
v 708.3938 152.5 -309.7312
v 702.9606 152.5 -291.38885
v 701.1271 152.5 -272.34686
v 702.9606 152.5 -253.30484
v 708.3938 152.5 -234.96252
v 717.2272 152.5 -217.99394
v 729.13586 152.5 -203.02258
v 743.6825 152.5 -190.59859
v 760.3325 152.5 -181.17848
v 778.474 152.5 -175.1084
v 797.4404 152.5 -172.61143
v 816.53485 152.5 -173.7793
v 816.53485 152.5 -370.91443
vn 0.0 1.0 0.0
f 86//47 126//47 108//47
f 86//47 108//47 109//47
f 84//47 85//47 86//47
f 84//47 86//47 109//47
f 83//47 84//47 109//47
f 83//47 109//47 110//47
f 82//47 83//47 110//47
f 82//47 110//47 111//47
f 81//47 82//47 111//47
f 81//47 111//47 112//47
f 80//47 81//47 112//47
f 80//47 112//47 113//47
f 79//47 80//47 113//47
f 79//47 113//47 114//47
f 78//47 79//47 114//47
f 78//47 114//47 115//47
f 77//47 78//47 115//47
f 77//47 115//47 116//47
f 76//47 77//47 116//47
f 76//47 116//47 117//47
f 75//47 76//47 117//47
f 75//47 117//47 118//47
f 74//47 75//47 118//47
f 74//47 118//47 119//47
f 73//47 74//47 119//47
f 73//47 119//47 120//47
f 72//47 73//47 120//47
f 72//47 120//47 121//47
f 71//47 72//47 121//47
f 71//47 121//47 122//47
f 70//47 71//47 122//47
f 70//47 122//47 123//47
f 69//47 70//47 123//47
f 69//47 123//47 124//47
f 68//47 69//47 124//47
f 68//47 124//47 125//47
f 67//47 68//47 125//47
f 67//47 125//47 65//47
f 66//47 67//47 65//47
f 66//47 65//47 64//47
g wall_1_6
usemtl wall_1_1
f 106//47 107//47 88//47
f 106//47 88//47 87//47
f 126//47 86//47 106//47
f 126//47 106//47 87//47
f 108//47 126//47 87//47
f 108//47 87//47 89//47
f 109//47 108//47 89//47
f 109//47 89//47 90//47
f 110//47 109//47 90//47
f 110//47 90//47 91//47
f 111//47 110//47 91//47
f 111//47 91//47 92//47
f 112//47 111//47 92//47
f 112//47 92//47 93//47
f 113//47 112//47 93//47
f 113//47 93//47 94//47
f 114//47 113//47 94//47
f 114//47 94//47 95//47
f 115//47 114//47 95//47
f 115//47 95//47 96//47
f 116//47 115//47 96//47
f 116//47 96//47 97//47
f 117//47 116//47 97//47
f 117//47 97//47 98//47
f 118//47 117//47 98//47
f 118//47 98//47 99//47
f 119//47 118//47 99//47
f 119//47 99//47 100//47
f 120//47 119//47 100//47
f 120//47 100//47 101//47
f 121//47 120//47 101//47
f 121//47 101//47 102//47
f 122//47 121//47 102//47
f 122//47 102//47 103//47
f 123//47 122//47 103//47
f 123//47 103//47 104//47
f 124//47 123//47 104//47
f 124//47 104//47 105//47
f 125//47 124//47 105//47
f 125//47 105//47 65//47
