# 
# Generated by Sweet Home 3D - Mon Apr 10 18:17:11 CDT 2017
# http://www.sweethome3d.com/
# 
mtllib D.mtl
g wall_1_1
usemtl wall_1_1
v 913.27783 0.0 -366.12463
v 913.27783 0.0 -174.35463
v 917.0878 0.0 -174.35463
v 917.0878 0.0 -362.51453
vn 0.0 -1.0 0.0
f 4//1 3//1 2//1
f 4//1 2//1 1//1
g wall_1_2
usemtl wall_1_1
v 909.46783 0.0 -369.73474
v 909.46783 0.0 -174.35463
f 1//1 2//1 6//1
f 1//1 6//1 5//1
g wall_1_3
usemtl wall_1_1
v 917.0878 152.5 -174.35463
v 913.27783 152.5 -174.35463
v 917.0878 152.5 -362.51453
v 913.27783 152.5 -366.12463
vt 0.0 0.0 0
vt 0.1209523 0.0 0
vt 0.1209523 4.84127 0
vt 0.0 4.84127 0
vt -5.97333 0.0 0
vt -5.97333 4.84127 0
vt 0.16662572 0.0 0
vt 0.16662572 4.84127 0
vn 0.0 0.0 1.0
vn 1.0 0.0 0.0
vn 0.6878085 0.0 -0.7258922
vn 0.0 0.0 0.0
f 2/1/2 3/2/2 7/3/2 8/4/2
f 3/5/3 4/1/3 9/4/3 7/6/3
f 4/1/4 1/7/4 10/8/4 9/4/4
g wall_1_4
usemtl wall_1_1
v 909.46783 152.5 -174.35463
v 909.46783 152.5 -369.73474
vt 6.2025433 0.0 0
vt 6.2025433 4.84127 0
vn -1.0 0.0 0.0
f 5/1/6 6/9/6 11/10/6 12/4/6
f 6/1/2 2/2/2 8/3/2 11/4/2
f 1/1/4 5/7/4 12/8/4 10/4/4
g wall_1_5
usemtl wall_1_1
vn 0.0 1.0 0.0
f 10//7 8//7 7//7
f 10//7 7//7 9//7
g wall_1_6
usemtl wall_1_1
f 12//7 11//7 8//7
f 12//7 8//7 10//7
g wall_2_7
usemtl wall_1_1
v 930.438 0.0 -370.7758
v 930.28406 0.0 -366.9689
v 947.16644 0.0 -364.75415
v 963.3794 0.0 -359.55203
v 978.3987 0.0 -351.5307
v 991.7388 0.0 -340.94946
v 1002.9685 0.0 -328.1504
v 1011.7247 0.0 -313.5473
v 1017.72424 0.0 -297.61224
v 1020.77344 0.0 -280.86035
v 1020.77344 0.0 -263.8333
v 1017.72424 0.0 -247.08144
v 1011.7246 0.0 -231.1464
v 1002.96844 0.0 -216.54327
v 991.7388 0.0 -203.74423
v 978.3986 0.0 -193.163
v 963.37933 0.0 -185.14166
v 947.1664 0.0 -179.93954
v 930.28394 0.0 -177.72482
v 913.27783 0.0 -178.56909
v 912.74756 0.0 -174.79617
v 930.4379 0.0 -173.91794
v 947.9996 0.0 -176.22177
v 964.8648 0.0 -181.63318
v 980.48834 0.0 -189.97722
v 994.36523 0.0 -200.98418
v 1006.0467 0.0 -214.29816
v 1015.15515 0.0 -229.48878
v 1021.3962 0.0 -246.06494
v 1024.568 0.0 -263.49078
v 1024.568 0.0 -281.20288
v 1021.3962 0.0 -298.62872
v 1015.1552 0.0 -315.2049
v 1006.04675 0.0 -330.3955
v 994.36523 0.0 -343.7095
v 980.4884 0.0 -354.71646
v 964.86487 0.0 -363.06052
v 947.99963 0.0 -368.47195
f 5//1 13//1 50//1
f 5//1 50//1 49//1
f 14//1 1//1 5//1
f 14//1 5//1 49//1
f 15//1 14//1 49//1
f 15//1 49//1 48//1
f 16//1 15//1 48//1
f 16//1 48//1 47//1
f 17//1 16//1 47//1
f 17//1 47//1 46//1
f 18//1 17//1 46//1
f 18//1 46//1 45//1
f 19//1 18//1 45//1
f 19//1 45//1 44//1
f 20//1 19//1 44//1
f 20//1 44//1 43//1
f 21//1 20//1 43//1
f 21//1 43//1 42//1
f 22//1 21//1 42//1
f 22//1 42//1 41//1
f 23//1 22//1 41//1
f 23//1 41//1 40//1
f 24//1 23//1 40//1
f 24//1 40//1 39//1
f 25//1 24//1 39//1
f 25//1 39//1 38//1
f 26//1 25//1 38//1
f 26//1 38//1 37//1
f 27//1 26//1 37//1
f 27//1 37//1 36//1
f 28//1 27//1 36//1
f 28//1 36//1 35//1
f 29//1 28//1 35//1
f 29//1 35//1 34//1
f 30//1 29//1 34//1
f 30//1 34//1 33//1
f 31//1 30//1 33//1
f 31//1 33//1 32//1
g wall_2_8
usemtl wall_1_1
v 930.13007 0.0 -363.16202
v 946.33325 0.0 -361.03638
v 961.8939 0.0 -356.04355
v 976.30896 0.0 -348.34494
v 989.11237 0.0 -338.1894
v 999.89026 0.0 -325.90527
v 1008.2941 0.0 -311.88968
v 1014.05237 0.0 -296.59573
v 1016.9788 0.0 -280.51785
v 1016.9788 0.0 -264.1758
v 1014.05237 0.0 -248.09793
v 1008.2941 0.0 -232.80399
v 999.8902 0.0 -218.7884
v 989.11237 0.0 -206.50429
v 976.3089 0.0 -196.34875
v 961.89386 0.0 -188.65015
v 946.33325 0.0 -183.65733
v 930.13 0.0 -181.53171
v 913.80804 0.0 -182.34201
f 1//1 14//1 15//1
f 1//1 15//1 16//1
f 51//1 4//1 1//1
f 51//1 1//1 16//1
f 52//1 51//1 16//1
f 52//1 16//1 17//1
f 53//1 52//1 17//1
f 53//1 17//1 18//1
f 54//1 53//1 18//1
f 54//1 18//1 19//1
f 55//1 54//1 19//1
f 55//1 19//1 20//1
f 56//1 55//1 20//1
f 56//1 20//1 21//1
f 57//1 56//1 21//1
f 57//1 21//1 22//1
f 58//1 57//1 22//1
f 58//1 22//1 23//1
f 59//1 58//1 23//1
f 59//1 23//1 24//1
f 60//1 59//1 24//1
f 60//1 24//1 25//1
f 61//1 60//1 25//1
f 61//1 25//1 26//1
f 62//1 61//1 26//1
f 62//1 26//1 27//1
f 63//1 62//1 27//1
f 63//1 27//1 28//1
f 64//1 63//1 28//1
f 64//1 28//1 29//1
f 65//1 64//1 29//1
f 65//1 29//1 30//1
f 66//1 65//1 30//1
f 66//1 30//1 31//1
f 67//1 66//1 31//1
f 67//1 31//1 32//1
f 68//1 67//1 32//1
f 68//1 32//1 69//1
g wall_2_9
usemtl wall_1_1
v 930.438 152.5 -370.7758
v 912.74756 152.5 -174.79617
v 913.27783 152.5 -178.56909
v 930.4379 152.5 -173.91794
v 947.9996 152.5 -176.22177
v 964.8648 152.5 -181.63318
v 980.48834 152.5 -189.97722
v 994.36523 152.5 -200.98418
v 1006.0467 152.5 -214.29816
v 1015.15515 152.5 -229.48878
v 1021.3962 152.5 -246.06494
v 1024.568 152.5 -263.49078
v 1024.568 152.5 -281.20288
v 1021.3962 152.5 -298.62872
v 1015.1552 152.5 -315.2049
v 1006.04675 152.5 -330.3955
v 994.36523 152.5 -343.7095
v 980.4884 152.5 -354.71646
v 964.86487 152.5 -363.06052
v 947.99963 152.5 -368.47195
vt -0.64074975 0.0 0
vt -0.64074975 4.84127 0
vt 0.120952405 0.0 0
vt 0.120952405 4.84127 0
vt -10.383665 0.0 0
vt -9.842391 0.0 0
vt -9.842391 4.84127 0
vt -10.383665 4.84127 0
vt -9.301119 0.0 0
vt -9.301119 4.84127 0
vt -8.759845 0.0 0
vt -8.759845 4.84127 0
vt -8.218573 0.0 0
vt -8.218573 4.84127 0
vt -7.677299 0.0 0
vt -7.677299 4.84127 0
vt -7.136026 0.0 0
vt -7.136026 4.84127 0
vt -6.5947533 0.0 0
vt -6.5947533 4.84127 0
vt -6.05348 0.0 0
vt -6.05348 4.84127 0
vt -5.512206 0.0 0
vt -5.512206 4.84127 0
vt -4.970935 0.0 0
vt -4.970935 4.84127 0
vt -4.4296603 0.0 0
vt -4.4296603 4.84127 0
vt -3.8883877 0.0 0
vt -3.8883877 4.84127 0
vt -3.3471155 0.0 0
vt -3.3471155 4.84127 0
vt -2.8058414 0.0 0
vt -2.8058414 4.84127 0
vt -2.264568 0.0 0
vt -2.264568 4.84127 0
vt -1.7232962 0.0 0
vt -1.7232962 4.84127 0
vt -1.1820226 0.0 0
vt -1.1820226 4.84127 0
vn 0.04040758 0.0 -0.9991833
vn -0.04958312 0.0 -0.99877
vn -0.6878085 0.0 0.7258922
vn -0.99026716 0.0 -0.13917935
vn -0.049583737 0.0 0.99876994
vn 0.04040727 0.0 0.9991833
vn 0.21868095 0.0 0.9757964
vn 0.38988525 0.0 0.92086345
vn 0.5484847 0.0 0.83616054
vn 0.68935287 0.0 0.7244257
vn 0.8079359 0.0 0.58927035
vn 0.90039843 0.0 0.4350662
vn 0.96375257 0.0 0.26679766
vn 0.99595064 0.0 0.08990183
vn 0.99595064 0.0 -0.08990183
vn 0.96375304 0.0 -0.2667959
vn 0.9003991 0.0 -0.43506485
vn 0.8079352 0.0 -0.5892714
vn 0.68935287 0.0 -0.72442573
vn 0.54848593 0.0 -0.83615977
vn 0.38988632 0.0 -0.920863
vn 0.21868177 0.0 -0.9757963
f 13/11/8 5/1/9 12/4/9 70/12/8
f 5/1/10 1/7/10 10/8/10 12/4/10
f 32/1/11 33/13/11 71/14/11 72/4/11
f 33/15/12 34/16/13 73/17/13 71/18/12
f 34/16/13 35/19/14 74/20/14 73/17/13
f 35/19/14 36/21/15 75/22/15 74/20/14
f 36/21/15 37/23/16 76/24/16 75/22/15
f 37/23/16 38/25/17 77/26/17 76/24/16
f 38/25/17 39/27/18 78/28/18 77/26/17
f 39/27/18 40/29/19 79/30/19 78/28/18
f 40/29/19 41/31/20 80/32/20 79/30/19
f 41/31/20 42/33/21 81/34/21 80/32/20
f 42/33/21 43/35/22 82/36/22 81/34/21
f 43/35/22 44/37/23 83/38/23 82/36/22
f 44/37/23 45/39/24 84/40/24 83/38/23
f 45/39/24 46/41/25 85/42/25 84/40/24
f 46/41/25 47/43/26 86/44/26 85/42/25
f 47/43/26 48/45/27 87/46/27 86/44/26
f 48/45/27 49/47/28 88/48/28 87/46/27
f 49/47/28 50/49/29 89/50/29 88/48/28
f 50/49/29 13/11/8 70/12/8 89/50/29
g wall_2_10
usemtl wall_1_1
v 930.13007 152.5 -363.16202
v 946.33325 152.5 -361.03638
v 961.8939 152.5 -356.04355
v 976.30896 152.5 -348.34494
v 989.11237 152.5 -338.1894
v 999.89026 152.5 -325.90527
v 1008.2941 152.5 -311.88968
v 1014.05237 152.5 -296.59573
v 1016.9788 152.5 -280.51785
v 1016.9788 152.5 -264.1758
v 1014.05237 152.5 -248.09793
v 1008.2941 152.5 -232.80399
v 999.8902 152.5 -218.7884
v 989.11237 152.5 -206.50429
v 976.3089 152.5 -196.34875
v 961.89386 152.5 -188.65015
v 946.33325 152.5 -183.65733
v 930.13 152.5 -181.53171
v 913.80804 152.5 -182.34201
vt 0.43279192 0.0 0
vt 0.43279192 4.84127 0
vt 0.97406435 0.0 0
vt 0.97406435 4.84127 0
vt 1.5153378 0.0 0
vt 1.5153378 4.84127 0
vt 2.0566108 0.0 0
vt 2.0566108 4.84127 0
vt 2.597884 0.0 0
vt 2.597884 4.84127 0
vt 3.1391575 0.0 0
vt 3.1391575 4.84127 0
vt 3.6804304 0.0 0
vt 3.6804304 4.84127 0
vt 4.221703 0.0 0
vt 4.221703 4.84127 0
vt 4.7629766 0.0 0
vt 4.7629766 4.84127 0
vt 5.30425 0.0 0
vt 5.30425 4.84127 0
vt 5.845523 0.0 0
vt 5.845523 4.84127 0
vt 6.386796 0.0 0
vt 6.386796 4.84127 0
vt 6.9280696 0.0 0
vt 6.9280696 4.84127 0
vt 7.4693413 0.0 0
vt 7.4693413 4.84127 0
vt 8.010615 0.0 0
vt 8.010615 4.84127 0
vt 8.551888 0.0 0
vt 8.551888 4.84127 0
vt 9.09316 0.0 0
vt 9.09316 4.84127 0
vt 9.634435 0.0 0
vt 9.634435 4.84127 0
vt 10.175708 0.0 0
vt 10.175708 4.84127 0
vt 0.12095214 0.0 0
vt 0.12095214 4.84127 0
vn 0.049584668 0.0 0.99876994
vn -0.04040734 0.0 0.9991833
vn -0.21868165 0.0 0.9757963
vn -0.38988513 0.0 0.9208635
vn -0.54848576 0.0 0.83615994
vn -0.68935364 0.0 0.724425
vn -0.807936 0.0 0.5892702
vn -0.9003991 0.0 0.43506485
vn -0.9637529 0.0 0.26679665
vn -0.99595064 0.0 0.08990157
vn -0.99595064 0.0 -0.08990157
vn -0.9637529 0.0 -0.26679665
vn -0.9003984 0.0 -0.43506655
vn -0.8079359 0.0 -0.58927053
vn -0.6893535 0.0 -0.7244251
vn -0.5484845 0.0 -0.8361607
vn -0.3898853 0.0 -0.9208635
vn -0.21868107 0.0 -0.9757964
vn -0.040407028 0.0 -0.9991833
vn 0.04958388 0.0 -0.99877
vn -0.99026936 0.0 -0.13916363
f 1/1/10 4/7/10 9/8/10 10/4/10
f 4/1/30 51/51/31 90/52/31 9/4/30
f 51/51/31 52/53/32 91/54/32 90/52/31
f 52/53/32 53/55/33 92/56/33 91/54/32
f 53/55/33 54/57/34 93/58/34 92/56/33
f 54/57/34 55/59/35 94/60/35 93/58/34
f 55/59/35 56/61/36 95/62/36 94/60/35
f 56/61/36 57/63/37 96/64/37 95/62/36
f 57/63/37 58/65/38 97/66/38 96/64/37
f 58/65/38 59/67/39 98/68/39 97/66/38
f 59/67/39 60/69/40 99/70/40 98/68/39
f 60/69/40 61/71/41 100/72/41 99/70/40
f 61/71/41 62/73/42 101/74/42 100/72/41
f 62/73/42 63/75/43 102/76/43 101/74/42
f 63/75/43 64/77/44 103/78/44 102/76/43
f 64/77/44 65/79/45 104/80/45 103/78/44
f 65/79/45 66/81/46 105/82/46 104/80/45
f 66/81/46 67/83/47 106/84/47 105/82/46
f 67/83/47 68/85/48 107/86/48 106/84/47
f 68/85/48 69/87/49 108/88/49 107/86/48
f 69/1/50 32/89/50 72/90/50 108/4/50
g wall_2_11
usemtl wall_1_1
v 930.28406 152.5 -366.9689
v 947.16644 152.5 -364.75415
v 963.3794 152.5 -359.55203
v 978.3987 152.5 -351.5307
v 991.7388 152.5 -340.94946
v 1002.9685 152.5 -328.1504
v 1011.7247 152.5 -313.5473
v 1017.72424 152.5 -297.61224
v 1020.77344 152.5 -280.86035
v 1020.77344 152.5 -263.8333
v 1017.72424 152.5 -247.08144
v 1011.7246 152.5 -231.1464
v 1002.96844 152.5 -216.54327
v 991.7388 152.5 -203.74423
v 978.3986 152.5 -193.163
v 963.37933 152.5 -185.14166
v 947.1664 152.5 -179.93954
v 930.28394 152.5 -177.72482
f 88//7 89//7 70//7
f 88//7 70//7 12//7
f 86//7 87//7 88//7
f 85//7 86//7 88//7
f 83//7 84//7 85//7
f 82//7 83//7 85//7
f 80//7 81//7 82//7
f 79//7 80//7 82//7
f 77//7 78//7 79//7
f 76//7 77//7 79//7
f 74//7 75//7 76//7
f 73//7 74//7 76//7
f 72//7 71//7 73//7
f 126//7 72//7 73//7
f 125//7 126//7 73//7
f 125//7 73//7 76//7
f 124//7 125//7 76//7
f 123//7 124//7 76//7
f 122//7 123//7 76//7
f 122//7 76//7 79//7
f 121//7 122//7 79//7
f 120//7 121//7 79//7
f 119//7 120//7 79//7
f 119//7 79//7 82//7
f 118//7 119//7 82//7
f 117//7 118//7 82//7
f 116//7 117//7 82//7
f 116//7 82//7 85//7
f 115//7 116//7 85//7
f 114//7 115//7 85//7
f 113//7 114//7 85//7
f 113//7 85//7 88//7
f 112//7 113//7 88//7
f 111//7 112//7 88//7
f 110//7 111//7 88//7
f 110//7 88//7 12//7
f 109//7 110//7 12//7
f 109//7 12//7 10//7
g wall_2_12
usemtl wall_1_1
f 111//7 110//7 109//7
f 111//7 109//7 10//7
f 113//7 112//7 111//7
f 114//7 113//7 111//7
f 116//7 115//7 114//7
f 117//7 116//7 114//7
f 119//7 118//7 117//7
f 120//7 119//7 117//7
f 122//7 121//7 120//7
f 123//7 122//7 120//7
f 125//7 124//7 123//7
f 126//7 125//7 123//7
f 108//7 72//7 126//7
f 107//7 108//7 126//7
f 106//7 107//7 126//7
f 106//7 126//7 123//7
f 105//7 106//7 123//7
f 104//7 105//7 123//7
f 103//7 104//7 123//7
f 103//7 123//7 120//7
f 102//7 103//7 120//7
f 101//7 102//7 120//7
f 100//7 101//7 120//7
f 100//7 120//7 117//7
f 99//7 100//7 117//7
f 98//7 99//7 117//7
f 97//7 98//7 117//7
f 97//7 117//7 114//7
f 96//7 97//7 114//7
f 95//7 96//7 114//7
f 94//7 95//7 114//7
f 94//7 114//7 111//7
f 93//7 94//7 111//7
f 92//7 93//7 111//7
f 91//7 92//7 111//7
f 91//7 111//7 10//7
f 90//7 91//7 10//7
f 90//7 10//7 9//7
