# 
# Generated by Sweet Home 3D - Mon Apr 10 18:17:56 CDT 2017
# http://www.sweethome3d.com/
# 
mtllib E.mtl
g wall_1_1
usemtl wall_1_1
v 1095.5 0.0 -372.8791
v 1095.5 0.0 -178.56909
v 1099.31 0.0 -182.37909
v 1099.31 0.0 -372.8791
vn 0.0 -1.0 0.0
f 4//1 3//1 2//1
f 4//1 2//1 1//1
g wall_1_2
usemtl wall_1_1
v 1091.69 0.0 -372.8791
v 1091.69 0.0 -174.7591
f 1//1 2//1 6//1
f 1//1 6//1 5//1
g wall_1_3
usemtl wall_1_1
v 1099.31 152.5 -182.37909
v 1095.5 152.5 -178.56909
v 1099.31 152.5 -372.8791
v 1095.5 152.5 -372.8791
vt 0.0 0.0 0
vt 0.17105377 0.0 0
vt 0.17105377 4.84127 0
vt 0.0 4.84127 0
vt -6.047619 0.0 0
vt -6.047619 4.84127 0
vt 0.12095424 0.0 0
vt 0.12095424 4.84127 0
vn 0.70710117 0.0 0.70711243
vn 1.0 0.0 0.0
vn 0.0 0.0 -1.0
vn 0.0 0.0 0.0
f 2/1/2 3/2/2 7/3/2 8/4/2
f 3/5/3 4/1/3 9/4/3 7/6/3
f 4/1/4 1/7/4 10/8/4 9/4/4
g wall_1_4
usemtl wall_1_1
v 1091.69 152.5 -174.7591
v 1091.69 152.5 -372.8791
vt 6.2895236 0.0 0
vt 6.2895236 4.84127 0
vn -1.0 0.0 0.0
f 5/1/6 6/9/6 11/10/6 12/4/6
f 6/1/2 2/2/2 8/3/2 11/4/2
f 1/1/4 5/7/4 12/8/4 10/4/4
g wall_1_5
usemtl wall_1_1
vn 0.0 1.0 0.0
f 10//7 8//7 7//7
f 10//7 7//7 9//7
g wall_1_6
usemtl wall_1_1
f 12//7 11//7 8//7
f 12//7 8//7 10//7
g wall_2_7
usemtl wall_1_1
v 1188.21 0.0 -178.56909
v 1188.21 0.0 -182.37909
f 14//1 13//1 2//1
f 14//1 2//1 3//1
g wall_2_8
usemtl wall_1_1
v 1188.21 0.0 -174.7591
f 13//1 15//1 6//1
f 13//1 6//1 2//1
g wall_2_9
usemtl wall_1_1
v 1188.21 152.5 -182.37909
v 1188.21 152.5 -178.56909
vt 0.1209523 0.0 0
vt 0.1209523 4.84127 0
vt -2.8222191 0.0 0
vt -2.8222191 4.84127 0
vn -0.70710117 0.0 -0.70711243
f 3/1/8 2/2/8 8/3/8 7/4/8
f 13/1/3 14/11/3 16/12/3 17/4/3
f 14/13/4 3/1/4 7/4/4 16/14/4
g wall_2_10
usemtl wall_1_1
v 1188.21 152.5 -174.7591
vt 3.0641277 0.0 0
vt 3.0641277 4.84127 0
vn 0.0 0.0 1.0
f 2/1/8 6/2/8 11/3/8 8/4/8
f 6/1/9 15/15/9 18/16/9 11/4/9
f 15/1/3 13/11/3 17/12/3 18/4/3
g wall_2_11
usemtl wall_1_1
f 7//7 8//7 17//7
f 7//7 17//7 16//7
g wall_2_12
usemtl wall_1_1
f 8//7 11//7 18//7
f 8//7 18//7 17//7
g wall_3_13
usemtl wall_1_1
v 1095.5 0.0 -372.60132
v 1095.5 0.0 -368.79132
v 1188.21 0.0 -368.79132
v 1188.21 0.0 -372.60132
f 22//1 21//1 20//1
f 22//1 20//1 19//1
g wall_3_14
usemtl wall_1_1
v 1095.5 0.0 -364.98132
v 1188.21 0.0 -364.98132
f 21//1 24//1 23//1
f 21//1 23//1 20//1
g wall_3_15
usemtl wall_1_1
v 1095.5 152.5 -368.79132
v 1095.5 152.5 -372.60132
v 1188.21 152.5 -372.60132
v 1188.21 152.5 -368.79132
vt -2.9431734 0.0 0
vt -2.9431734 4.84127 0
f 19/1/6 20/11/6 25/12/6 26/4/6
f 21/1/3 22/11/3 27/12/3 28/4/3
f 22/17/4 19/1/4 26/4/4 27/18/4
g wall_3_16
usemtl wall_1_1
v 1095.5 152.5 -364.98132
v 1188.21 152.5 -364.98132
vt 2.9431734 0.0 0
vt 2.9431734 4.84127 0
f 20/1/6 23/11/6 29/12/6 25/4/6
f 23/1/9 24/19/9 30/20/9 29/4/9
f 24/1/3 21/11/3 28/12/3 30/4/3
g wall_3_17
usemtl wall_1_1
f 26//7 25//7 28//7
f 26//7 28//7 27//7
g wall_3_18
usemtl wall_1_1
f 25//7 29//7 30//7
f 25//7 30//7 28//7
g wall_4_19
usemtl wall_1_1
v 1095.5 0.0 -278.3791
v 1095.5 0.0 -274.5691
v 1188.21 0.0 -274.5691
v 1188.21 0.0 -278.3791
f 34//1 33//1 32//1
f 34//1 32//1 31//1
g wall_4_20
usemtl wall_1_1
v 1095.5 0.0 -270.7591
v 1188.21 0.0 -270.7591
f 33//1 36//1 35//1
f 33//1 35//1 32//1
g wall_4_21
usemtl wall_1_1
v 1095.5 152.5 -274.5691
v 1095.5 152.5 -278.3791
v 1188.21 152.5 -278.3791
v 1188.21 152.5 -274.5691
f 31/1/6 32/11/6 37/12/6 38/4/6
f 33/1/3 34/11/3 39/12/3 40/4/3
f 34/17/4 31/1/4 38/4/4 39/18/4
g wall_4_22
usemtl wall_1_1
v 1095.5 152.5 -270.7591
v 1188.21 152.5 -270.7591
f 32/1/6 35/11/6 41/12/6 37/4/6
f 35/1/9 36/19/9 42/20/9 41/4/9
f 36/1/3 33/11/3 40/12/3 42/4/3
g wall_4_23
usemtl wall_1_1
f 38//7 37//7 40//7
f 38//7 40//7 39//7
g wall_4_24
usemtl wall_1_1
f 37//7 41//7 42//7
f 37//7 42//7 40//7
