# 
# Generated by Sweet Home 3D - Sat Apr 01 19:29:22 CST 2017
# http://www.sweethome3d.com/
# 
mtllib E.mtl
g wall_1_1
usemtl wall_1_1
v 1095.5 0.0 -372.8791
v 1095.5 0.0 -178.56909
v 1099.31 0.0 -182.37909
v 1099.31 0.0 -372.8791
vn 0.0 -1.0 0.0
f 4//1 3//1 2//1
f 4//1 2//1 1//1
g wall_1_2
usemtl wall_1_1
v 1091.69 0.0 -372.8791
v 1091.69 0.0 -174.7591
f 1//1 2//1 6//1
f 1//1 6//1 5//1
g wall_1_3
usemtl wall_1_1
v 1099.31 152.5 -182.37909
v 1095.5 152.5 -178.56909
v 1099.31 152.5 -372.8791
v 1095.5 152.5 -372.8791
vn 0.70710117 0.0 0.70711243
vn 1.0 0.0 0.0
vn 0.0 0.0 -1.0
vn 0.0 0.0 0.0
f 2//2 3//2 7//2 8//2
f 3//3 4//3 9//3 7//3
f 4//4 1//4 10//4 9//4
g wall_1_4
usemtl wall_1_1
v 1091.69 152.5 -174.7591
v 1091.69 152.5 -372.8791
vn -1.0 0.0 0.0
f 5//6 6//6 11//6 12//6
f 6//2 2//2 8//2 11//2
f 1//4 5//4 12//4 10//4
g wall_1_5
usemtl wall_1_1
vn 0.0 1.0 0.0
f 10//7 8//7 7//7
f 10//7 7//7 9//7
g wall_1_6
usemtl wall_1_1
f 12//7 11//7 8//7
f 12//7 8//7 10//7
g wall_2_7
usemtl wall_1_1
v 1188.21 0.0 -178.56909
v 1188.21 0.0 -182.37909
f 14//1 13//1 2//1
f 14//1 2//1 3//1
g wall_2_8
usemtl wall_1_1
v 1188.21 0.0 -174.7591
f 13//1 15//1 6//1
f 13//1 6//1 2//1
g wall_2_9
usemtl wall_1_1
v 1188.21 152.5 -182.37909
v 1188.21 152.5 -178.56909
vn -0.70710117 0.0 -0.70711243
f 3//8 2//8 8//8 7//8
f 13//3 14//3 16//3 17//3
f 14//4 3//4 7//4 16//4
g wall_2_10
usemtl wall_1_1
v 1188.21 152.5 -174.7591
vn 0.0 0.0 1.0
f 2//8 6//8 11//8 8//8
f 6//9 15//9 18//9 11//9
f 15//3 13//3 17//3 18//3
g wall_2_11
usemtl wall_1_1
f 7//7 8//7 17//7
f 7//7 17//7 16//7
g wall_2_12
usemtl wall_1_1
f 8//7 11//7 18//7
f 8//7 18//7 17//7
g wall_3_13
usemtl wall_1_1
v 1095.5 0.0 -372.60132
v 1095.5 0.0 -368.79132
v 1188.21 0.0 -368.79132
v 1188.21 0.0 -372.60132
f 22//1 21//1 20//1
f 22//1 20//1 19//1
g wall_3_14
usemtl wall_1_1
v 1095.5 0.0 -364.98132
v 1188.21 0.0 -364.98132
f 21//1 24//1 23//1
f 21//1 23//1 20//1
g wall_3_15
usemtl wall_1_1
v 1095.5 152.5 -368.79132
v 1095.5 152.5 -372.60132
v 1188.21 152.5 -372.60132
v 1188.21 152.5 -368.79132
f 19//6 20//6 25//6 26//6
f 21//3 22//3 27//3 28//3
f 22//4 19//4 26//4 27//4
g wall_3_16
usemtl wall_1_1
v 1095.5 152.5 -364.98132
v 1188.21 152.5 -364.98132
f 20//6 23//6 29//6 25//6
f 23//9 24//9 30//9 29//9
f 24//3 21//3 28//3 30//3
g wall_3_17
usemtl wall_1_1
f 26//7 25//7 28//7
f 26//7 28//7 27//7
g wall_3_18
usemtl wall_1_1
f 25//7 29//7 30//7
f 25//7 30//7 28//7
g wall_4_19
usemtl wall_1_1
v 1095.5 0.0 -278.3791
v 1095.5 0.0 -274.5691
v 1188.21 0.0 -274.5691
v 1188.21 0.0 -278.3791
f 34//1 33//1 32//1
f 34//1 32//1 31//1
g wall_4_20
usemtl wall_1_1
v 1095.5 0.0 -270.7591
v 1188.21 0.0 -270.7591
f 33//1 36//1 35//1
f 33//1 35//1 32//1
g wall_4_21
usemtl wall_1_1
v 1095.5 152.5 -274.5691
v 1095.5 152.5 -278.3791
v 1188.21 152.5 -278.3791
v 1188.21 152.5 -274.5691
f 31//6 32//6 37//6 38//6
f 33//3 34//3 39//3 40//3
f 34//4 31//4 38//4 39//4
g wall_4_22
usemtl wall_1_1
v 1095.5 152.5 -270.7591
v 1188.21 152.5 -270.7591
f 32//6 35//6 41//6 37//6
f 35//9 36//9 42//9 41//9
f 36//3 33//3 40//3 42//3
g wall_4_23
usemtl wall_1_1
f 38//7 37//7 40//7
f 38//7 40//7 39//7
g wall_4_24
usemtl wall_1_1
f 37//7 41//7 42//7
f 37//7 42//7 40//7
