# 
# Generated by Sweet Home 3D - Mon Apr 10 18:18:04 CDT 2017
# http://www.sweethome3d.com/
# 
mtllib F.mtl
g wall_1_1
usemtl wall_1_1
v 1279.5 0.0 -363.45795
v 1279.5 0.0 -175.9024
v 1283.31 0.0 -175.9024
v 1283.31 0.0 -359.64795
vn 0.0 -1.0 0.0
f 4//1 3//1 2//1
f 4//1 2//1 1//1
g wall_1_2
usemtl wall_1_1
v 1275.69 0.0 -367.26794
v 1275.69 0.0 -175.9024
f 1//1 2//1 6//1
f 1//1 6//1 5//1
g wall_1_3
usemtl wall_1_1
v 1283.31 152.5 -175.9024
v 1279.5 152.5 -175.9024
v 1283.31 152.5 -359.64795
v 1279.5 152.5 -363.45795
vt 0.0 0.0 0
vt 0.12095424 0.0 0
vt 0.12095424 4.84127 0
vt 0.0 4.84127 0
vt -5.833192 0.0 0
vt -5.833192 4.84127 0
vt 0.17105377 0.0 0
vt 0.17105377 4.84127 0
vn 0.0 0.0 1.0
vn 1.0 0.0 0.0
vn 0.70710117 0.0 -0.70711243
vn 0.0 0.0 0.0
f 2/1/2 3/2/2 7/3/2 8/4/2
f 3/5/3 4/1/3 9/4/3 7/6/3
f 4/1/4 1/7/4 10/8/4 9/4/4
g wall_1_4
usemtl wall_1_1
v 1275.69 152.5 -175.9024
v 1275.69 152.5 -367.26794
vt 6.0750966 0.0 0
vt 6.0750966 4.84127 0
vn -1.0 0.0 0.0
f 5/1/6 6/9/6 11/10/6 12/4/6
f 6/1/2 2/2/2 8/3/2 11/4/2
f 1/1/4 5/7/4 12/8/4 10/4/4
g wall_1_5
usemtl wall_1_1
vn 0.0 1.0 0.0
f 10//7 8//7 7//7
f 10//7 7//7 9//7
g wall_1_6
usemtl wall_1_1
f 12//7 11//7 8//7
f 12//7 8//7 10//7
g wall_2_7
usemtl wall_1_1
v 1372.21 0.0 -363.45795
v 1372.21 0.0 -367.26794
f 14//1 13//1 1//1
f 14//1 1//1 5//1
g wall_2_8
usemtl wall_1_1
v 1372.21 0.0 -359.64795
f 13//1 15//1 4//1
f 13//1 4//1 1//1
g wall_2_9
usemtl wall_1_1
v 1372.21 152.5 -367.26794
v 1372.21 152.5 -363.45795
vt 0.1209523 0.0 0
vt 0.1209523 4.84127 0
vt -3.0641277 0.0 0
vt -3.0641277 4.84127 0
vn -0.70710117 0.0 0.70711243
vn 0.0 0.0 -1.0
f 5/1/8 1/7/8 10/8/8 12/4/8
f 13/1/3 14/11/3 16/12/3 17/4/3
f 14/13/9 5/1/9 12/4/9 16/14/9
g wall_2_10
usemtl wall_1_1
v 1372.21 152.5 -359.64795
vt 2.8222191 0.0 0
vt 2.8222191 4.84127 0
f 1/1/8 4/7/8 9/8/8 10/4/8
f 4/1/2 15/15/2 18/16/2 9/4/2
f 15/1/3 13/11/3 17/12/3 18/4/3
g wall_2_11
usemtl wall_1_1
f 12//7 10//7 17//7
f 12//7 17//7 16//7
g wall_2_12
usemtl wall_1_1
f 10//7 9//7 18//7
f 10//7 18//7 17//7
g wall_3_13
usemtl wall_1_1
v 1279.5 0.0 -278.3791
v 1279.5 0.0 -274.5691
v 1336.65 0.0 -274.5691
v 1336.65 0.0 -278.3791
f 22//1 21//1 20//1
f 22//1 20//1 19//1
g wall_3_14
usemtl wall_1_1
v 1279.5 0.0 -270.7591
v 1336.65 0.0 -270.7591
f 21//1 24//1 23//1
f 21//1 23//1 20//1
g wall_3_15
usemtl wall_1_1
v 1279.5 152.5 -274.5691
v 1279.5 152.5 -278.3791
v 1336.65 152.5 -278.3791
v 1336.65 152.5 -274.5691
vt -1.8142865 0.0 0
vt -1.8142865 4.84127 0
f 19/1/6 20/11/6 25/12/6 26/4/6
f 21/1/3 22/11/3 27/12/3 28/4/3
f 22/17/9 19/1/9 26/4/9 27/18/9
g wall_3_16
usemtl wall_1_1
v 1279.5 152.5 -270.7591
v 1336.65 152.5 -270.7591
vt 1.8142865 0.0 0
vt 1.8142865 4.84127 0
f 20/1/6 23/11/6 29/12/6 25/4/6
f 23/1/2 24/19/2 30/20/2 29/4/2
f 24/1/3 21/11/3 28/12/3 30/4/3
g wall_3_17
usemtl wall_1_1
f 26//7 25//7 28//7
f 26//7 28//7 27//7
g wall_3_18
usemtl wall_1_1
f 25//7 29//7 30//7
f 25//7 30//7 28//7
