# 
# Generated by Sweet Home 3D - Sat Apr 01 19:30:59 CST 2017
# http://www.sweethome3d.com/
# 
mtllib G.mtl
g wall_1_1
usemtl wall_1_1
v 238.6672 0.0 -95.94263
v 220.9179 0.0 -93.13142
v 204.0098 0.0 -87.04412
v 188.54176 0.0 -77.89636
v 175.06186 0.0 -66.01222
v 164.04756 0.0 -51.8127
v 155.8891 0.0 -35.800816
v 150.87549 0.0 -18.543821
v 149.1843 0.0 -0.65301585
v 150.87547 0.0 17.23779
v 155.8891 0.0 34.49478
v 164.04755 0.0 50.506668
v 175.06183 0.0 64.7062
v 188.54173 0.0 76.59033
v 204.00974 0.0 85.73809
v 220.91791 0.0 91.8254
v 238.66719 0.0 94.63661
v 256.6289 0.0 94.07214
v 274.16666 0.0 90.15199
v 270.35666 0.0 87.116936
v 256.15137 0.0 90.29219
v 238.90642 0.0 90.83414
v 221.8654 0.0 88.1351
v 205.63196 0.0 82.2907
v 190.78119 0.0 73.50798
v 177.8392 0.0 62.098076
v 167.26443 0.0 48.46517
v 159.43153 0.0 33.09223
v 154.61798 0.0 16.523867
v 152.9943 0.0 -0.6530155
v 154.618 0.0 -17.829899
v 159.43155 0.0 -34.398262
v 167.26445 0.0 -49.771202
v 177.83922 0.0 -63.404102
v 190.78122 0.0 -74.81401
v 205.632 0.0 -83.59673
v 221.8654 0.0 -89.44112
v 238.90643 0.0 -92.14015
v 256.15137 0.0 -91.598206
v 272.98932 0.0 -87.83448
v 274.1667 0.0 -91.45801
v 256.6289 0.0 -95.37816
vn 0.0 -1.0 0.0
vn 0.0 0.0 0.0
f 2//1 1//1 42//1
f 2//1 42//1 41//1
f 4//1 3//1 2//1
f 5//1 4//1 2//1
f 7//1 6//1 5//1
f 8//1 7//1 5//1
f 10//1 9//1 8//1
f 11//1 10//1 8//1
f 13//1 12//1 11//1
f 14//1 13//1 11//1
f 16//1 15//1 14//1
f 17//1 16//1 14//1
f 19//1 18//1 17//1
f 20//1 19//1 17//1
f 21//1 20//1 17//1
f 22//1 21//1 17//1
f 23//1 22//1 17//1
f 23//1 17//1 14//1
f 24//1 23//1 14//1
f 25//1 24//1 14//1
f 26//1 25//1 14//1
f 26//1 14//1 11//1
f 27//1 26//1 11//1
f 28//1 27//1 11//1
f 29//1 28//1 11//1
f 29//1 11//1 8//1
f 30//1 29//1 8//1
f 31//1 30//1 8//1
f 32//1 31//1 8//1
f 32//1 8//1 5//1
f 33//1 32//1 5//1
f 34//1 33//1 5//1
f 35//1 34//1 5//1
f 35//1 5//1 2//1
f 36//1 35//1 2//1
f 37//1 36//1 2//1
f 38//1 37//1 2//1
f 38//1 2//1 41//1
f 39//1 38//1 41//1
f 39//1 41//1 40//1
g wall_1_2
usemtl wall_1_1
v 238.42798 0.0 -99.74511
v 219.97038 0.0 -96.82172
v 202.38757 0.0 -90.49151
v 186.3023 0.0 -80.97872
v 172.28448 0.0 -68.620346
v 160.83067 0.0 -53.8542
v 152.34665 0.0 -37.20337
v 147.13297 0.0 -19.257744
v 145.3743 0.0 -0.6530162
v 147.13297 0.0 17.951712
v 152.34665 0.0 35.897335
v 160.83067 0.0 52.54817
v 172.28447 0.0 67.31432
v 186.30228 0.0 79.67268
v 202.38753 0.0 89.18548
v 219.9704 0.0 95.5157
v 238.42796 0.0 98.439095
v 257.1064 0.0 97.852104
v 277.97665 0.0 93.18705
v 275.34402 0.0 -95.08153
v 257.1064 0.0 -99.15812
f 44//1 43//1 63//1
f 44//1 63//1 62//1
f 46//1 45//1 44//1
f 47//1 46//1 44//1
f 49//1 48//1 47//1
f 50//1 49//1 47//1
f 52//1 51//1 50//1
f 53//1 52//1 50//1
f 55//1 54//1 53//1
f 56//1 55//1 53//1
f 58//1 57//1 56//1
f 59//1 58//1 56//1
f 61//1 60//1 59//1
f 19//1 61//1 59//1
f 18//1 19//1 59//1
f 17//1 18//1 59//1
f 16//1 17//1 59//1
f 16//1 59//1 56//1
f 15//1 16//1 56//1
f 14//1 15//1 56//1
f 13//1 14//1 56//1
f 13//1 56//1 53//1
f 12//1 13//1 53//1
f 11//1 12//1 53//1
f 10//1 11//1 53//1
f 10//1 53//1 50//1
f 9//1 10//1 50//1
f 8//1 9//1 50//1
f 7//1 8//1 50//1
f 7//1 50//1 47//1
f 6//1 7//1 47//1
f 5//1 6//1 47//1
f 4//1 5//1 47//1
f 4//1 47//1 44//1
f 3//1 4//1 44//1
f 2//1 3//1 44//1
f 1//1 2//1 44//1
f 1//1 44//1 62//1
f 42//1 1//1 62//1
f 42//1 62//1 41//1
g wall_1_3
usemtl wall_1_1
v 270.35666 152.5 87.116936
v 274.16666 152.5 90.15199
v 256.15137 152.5 90.29219
v 238.90642 152.5 90.83414
v 221.8654 152.5 88.1351
v 205.63196 152.5 82.2907
v 190.78119 152.5 73.50798
v 177.8392 152.5 62.098076
v 167.26443 152.5 48.46517
v 159.43153 152.5 33.09223
v 154.61798 152.5 16.523867
v 152.9943 152.5 -0.6530155
v 154.618 152.5 -17.829899
v 159.43155 152.5 -34.398262
v 167.26445 152.5 -49.771202
v 177.83922 152.5 -63.404102
v 190.78122 152.5 -74.81401
v 205.632 152.5 -83.59673
v 221.8654 152.5 -89.44112
v 238.90643 152.5 -92.14015
v 256.15137 152.5 -91.598206
v 272.98932 152.5 -87.83448
v 274.1667 152.5 -91.45801
vn 0.62307376 0.0 -0.7821631
vn -0.21814299 0.0 -0.9759168
vn -0.12533316 0.0 -0.9921147
vn 0.06279058 0.0 -0.9980268
vn 0.24868998 0.0 -0.96858317
vn 0.42577928 0.0 -0.90482706
vn 0.5877854 0.0 -0.8090168
vn 0.7289687 0.0 -0.684547
vn 0.8443279 0.0 -0.5358268
vn 0.92977655 0.0 -0.36812443
vn 0.9822873 0.0 -0.18738107
vn 1.0 0.0 0.0000004
vn 0.9822872 0.0 0.18738155
vn 0.9297765 0.0 0.36812449
vn 0.84432787 0.0 0.53582686
vn 0.72896856 0.0 0.68454725
vn 0.58778507 0.0 0.8090171
vn 0.42577913 0.0 0.9048271
vn 0.24868992 0.0 0.96858317
vn 0.06279048 0.0 0.9980267
vn -0.12533322 0.0 0.9921147
vn -0.21814308 0.0 0.9759168
vn 0.9510555 0.0 0.30901998
f 19//3 20//3 64//3 65//3
f 20//4 21//5 66//5 64//4
f 21//5 22//6 67//6 66//5
f 22//6 23//7 68//7 67//6
f 23//7 24//8 69//8 68//7
f 24//8 25//9 70//9 69//8
f 25//9 26//10 71//10 70//9
f 26//10 27//11 72//11 71//10
f 27//11 28//12 73//12 72//11
f 28//12 29//13 74//13 73//12
f 29//13 30//14 75//14 74//13
f 30//14 31//15 76//15 75//14
f 31//15 32//16 77//16 76//15
f 32//16 33//17 78//17 77//16
f 33//17 34//18 79//18 78//17
f 34//18 35//19 80//19 79//18
f 35//19 36//20 81//20 80//19
f 36//20 37//21 82//21 81//20
f 37//21 38//22 83//22 82//21
f 38//22 39//23 84//23 83//22
f 39//23 40//24 85//24 84//23
f 40//25 41//25 86//25 85//25
g wall_1_4
usemtl wall_1_1
v 219.97038 152.5 -96.82172
v 238.42798 152.5 -99.74511
v 202.38757 152.5 -90.49151
v 186.3023 152.5 -80.97872
v 172.28448 152.5 -68.620346
v 160.83067 152.5 -53.8542
v 152.34665 152.5 -37.20337
v 147.13297 152.5 -19.257744
v 145.3743 152.5 -0.6530162
v 147.13297 152.5 17.951712
v 152.34665 152.5 35.897335
v 160.83067 152.5 52.54817
v 172.28447 152.5 67.31432
v 186.30228 152.5 79.67268
v 202.38753 152.5 89.18548
v 219.9704 152.5 95.5157
v 238.42796 152.5 98.439095
v 257.1064 152.5 97.852104
v 277.97665 152.5 93.18705
v 275.34402 152.5 -95.08153
v 257.1064 152.5 -99.15812
vn -0.062790535 0.0 -0.9980268
vn -0.24869 0.0 -0.96858317
vn -0.42577913 0.0 -0.9048271
vn -0.587785 0.0 -0.8090171
vn -0.72896844 0.0 -0.68454725
vn -0.84432775 0.0 -0.5358271
vn -0.9297765 0.0 -0.36812457
vn -0.9822872 0.0 -0.18738131
vn -1.0 0.0 -0
vn -0.9822872 0.0 0.18738131
vn -0.9297765 0.0 0.36812454
vn -0.844328 0.0 0.53582674
vn -0.7289688 0.0 0.68454695
vn -0.5877853 0.0 0.80901694
vn -0.42577937 0.0 0.904827
vn -0.24868995 0.0 0.96858317
vn -0.06279067 0.0 0.9980267
vn 0.1253332 0.0 0.9921147
vn 0.21814339 0.0 0.97591674
vn 0.95105773 0.0 0.30901337
vn 0.21814337 0.0 -0.97591674
vn 0.1253332 0.0 -0.9921147
f 43//26 44//27 87//27 88//26
f 44//27 45//28 89//28 87//27
f 45//28 46//29 90//29 89//28
f 46//29 47//30 91//30 90//29
f 47//30 48//31 92//31 91//30
f 48//31 49//32 93//32 92//31
f 49//32 50//33 94//33 93//32
f 50//33 51//34 95//34 94//33
f 51//34 52//35 96//35 95//34
f 52//35 53//36 97//36 96//35
f 53//36 54//37 98//37 97//36
f 54//37 55//38 99//38 98//37
f 55//38 56//39 100//39 99//38
f 56//39 57//40 101//40 100//39
f 57//40 58//41 102//41 101//40
f 58//41 59//42 103//42 102//41
f 59//42 60//43 104//43 103//42
f 60//43 61//44 105//44 104//43
f 61//3 19//3 65//3 105//3
f 41//45 62//45 106//45 86//45
f 62//46 63//47 107//47 106//46
f 63//47 43//26 88//26 107//47
g wall_1_5
usemtl wall_1_1
v 238.6672 152.5 -95.94263
v 220.9179 152.5 -93.13142
v 204.0098 152.5 -87.04412
v 188.54176 152.5 -77.89636
v 175.06186 152.5 -66.01222
v 164.04756 152.5 -51.8127
v 155.8891 152.5 -35.800816
v 150.87549 152.5 -18.543821
v 149.1843 152.5 -0.65301585
v 150.87547 152.5 17.23779
v 155.8891 152.5 34.49478
v 164.04755 152.5 50.506668
v 175.06183 152.5 64.7062
v 188.54173 152.5 76.59033
v 204.00974 152.5 85.73809
v 220.91791 152.5 91.8254
v 238.66719 152.5 94.63661
v 256.6289 152.5 94.07214
v 256.6289 152.5 -95.37816
vn 0.0 1.0 0.0
f 86//48 126//48 108//48
f 86//48 108//48 109//48
f 84//48 85//48 86//48
f 84//48 86//48 109//48
f 83//48 84//48 109//48
f 83//48 109//48 110//48
f 82//48 83//48 110//48
f 82//48 110//48 111//48
f 81//48 82//48 111//48
f 81//48 111//48 112//48
f 80//48 81//48 112//48
f 80//48 112//48 113//48
f 79//48 80//48 113//48
f 79//48 113//48 114//48
f 78//48 79//48 114//48
f 78//48 114//48 115//48
f 77//48 78//48 115//48
f 77//48 115//48 116//48
f 76//48 77//48 116//48
f 76//48 116//48 117//48
f 75//48 76//48 117//48
f 75//48 117//48 118//48
f 74//48 75//48 118//48
f 74//48 118//48 119//48
f 73//48 74//48 119//48
f 73//48 119//48 120//48
f 72//48 73//48 120//48
f 72//48 120//48 121//48
f 71//48 72//48 121//48
f 71//48 121//48 122//48
f 70//48 71//48 122//48
f 70//48 122//48 123//48
f 69//48 70//48 123//48
f 69//48 123//48 124//48
f 68//48 69//48 124//48
f 68//48 124//48 125//48
f 67//48 68//48 125//48
f 67//48 125//48 65//48
f 66//48 67//48 65//48
f 66//48 65//48 64//48
g wall_1_6
usemtl wall_1_1
f 106//48 107//48 88//48
f 106//48 88//48 87//48
f 126//48 86//48 106//48
f 126//48 106//48 87//48
f 108//48 126//48 87//48
f 108//48 87//48 89//48
f 109//48 108//48 89//48
f 109//48 89//48 90//48
f 110//48 109//48 90//48
f 110//48 90//48 91//48
f 111//48 110//48 91//48
f 111//48 91//48 92//48
f 112//48 111//48 92//48
f 112//48 92//48 93//48
f 113//48 112//48 93//48
f 113//48 93//48 94//48
f 114//48 113//48 94//48
f 114//48 94//48 95//48
f 115//48 114//48 95//48
f 115//48 95//48 96//48
f 116//48 115//48 96//48
f 116//48 96//48 97//48
f 117//48 116//48 97//48
f 117//48 97//48 98//48
f 118//48 117//48 98//48
f 118//48 98//48 99//48
f 119//48 118//48 99//48
f 119//48 99//48 100//48
f 120//48 119//48 100//48
f 120//48 100//48 101//48
f 121//48 120//48 101//48
f 121//48 101//48 102//48
f 122//48 121//48 102//48
f 122//48 102//48 103//48
f 123//48 122//48 103//48
f 123//48 103//48 104//48
f 124//48 123//48 104//48
f 125//48 124//48 104//48
f 125//48 104//48 105//48
f 125//48 105//48 65//48
g wall_2_7
usemtl wall_1_1
v 274.16666 0.0 16.491997
v 270.35666 0.0 20.301996
f 19//1 20//1 128//1
f 19//1 128//1 127//1
g wall_2_8
usemtl wall_1_1
v 277.97665 0.0 12.681997
f 61//1 19//1 127//1
f 61//1 127//1 129//1
g wall_2_9
usemtl wall_1_1
v 270.35666 152.5 20.301996
v 274.16666 152.5 16.491997
vn -0.70710695 0.0 -0.70710665
vn -1.0 0.0 0.0
vn -0.62307376 0.0 0.7821631
f 127//49 128//49 130//49 131//49
f 128//50 20//50 64//50 130//50
f 20//51 19//51 65//51 64//51
g wall_2_10
usemtl wall_1_1
v 277.97665 152.5 12.681997
vn 1.0 0.0 0.0
f 129//49 127//49 131//49 132//49
f 19//51 61//51 105//51 65//51
f 61//52 129//52 132//52 105//52
g wall_2_11
usemtl wall_1_1
f 131//48 130//48 64//48
f 131//48 64//48 65//48
g wall_2_12
usemtl wall_1_1
f 132//48 131//48 65//48
f 132//48 65//48 105//48
g wall_3_13
usemtl wall_1_1
v 224.63666 0.0 16.491997
v 224.63666 0.0 20.301996
f 127//1 128//1 134//1
f 127//1 134//1 133//1
g wall_3_14
usemtl wall_1_1
v 224.63666 0.0 12.681997
f 129//1 127//1 133//1
f 129//1 133//1 135//1
g wall_3_15
usemtl wall_1_1
v 224.63666 152.5 20.301996
v 224.63666 152.5 16.491997
vn 0.0 0.0 1.0
vn 0.70710695 0.0 0.70710665
f 133//50 134//50 136//50 137//50
f 134//53 128//53 130//53 136//53
f 128//54 127//54 131//54 130//54
g wall_3_16
usemtl wall_1_1
v 224.63666 152.5 12.681997
vn 0.0 0.0 -1.0
f 135//50 133//50 137//50 138//50
f 127//54 129//54 132//54 131//54
f 129//55 135//55 138//55 132//55
g wall_3_17
usemtl wall_1_1
f 137//48 136//48 130//48
f 137//48 130//48 131//48
g wall_3_18
usemtl wall_1_1
f 138//48 137//48 131//48
f 138//48 131//48 132//48
