# 
# Generated by Sweet Home 3D - Sat Apr 01 19:32:52 CST 2017
# http://www.sweethome3d.com/
# 
mtllib H.mtl
g wall_1_1
usemtl wall_1_1
v 365.72223 0.0 -91.45801
v 365.72223 0.0 90.15199
v 369.53223 0.0 90.15199
v 369.53223 0.0 -91.45801
vn 0.0 -1.0 0.0
f 4//1 3//1 2//1
f 4//1 2//1 1//1
g wall_1_2
usemtl wall_1_1
v 361.91223 0.0 -91.45801
v 361.91223 0.0 90.15199
f 1//1 2//1 6//1
f 1//1 6//1 5//1
g wall_1_3
usemtl wall_1_1
v 369.53223 152.5 90.15199
v 365.72223 152.5 90.15199
v 369.53223 152.5 -91.45801
v 365.72223 152.5 -91.45801
vn 0.0 0.0 1.0
vn 1.0 0.0 0.0
vn 0.0 0.0 -1.0
vn 0.0 0.0 0.0
f 2//2 3//2 7//2 8//2
f 3//3 4//3 9//3 7//3
f 4//4 1//4 10//4 9//4
g wall_1_4
usemtl wall_1_1
v 361.91223 152.5 90.15199
v 361.91223 152.5 -91.45801
vn -1.0 0.0 0.0
f 5//6 6//6 11//6 12//6
f 6//2 2//2 8//2 11//2
f 1//4 5//4 12//4 10//4
g wall_1_5
usemtl wall_1_1
vn 0.0 1.0 0.0
f 10//7 8//7 7//7
f 10//7 7//7 9//7
g wall_1_6
usemtl wall_1_1
f 12//7 11//7 8//7
f 12//7 8//7 10//7
g wall_2_7
usemtl wall_1_1
v 502.61108 0.0 -91.45801
v 502.61108 0.0 90.15199
v 506.42108 0.0 90.15199
v 506.42108 0.0 -91.45801
f 16//1 15//1 14//1
f 16//1 14//1 13//1
g wall_2_8
usemtl wall_1_1
v 498.8011 0.0 -91.45801
v 498.8011 0.0 90.15199
f 13//1 14//1 18//1
f 13//1 18//1 17//1
g wall_2_9
usemtl wall_1_1
v 506.42108 152.5 90.15199
v 502.61108 152.5 90.15199
v 506.42108 152.5 -91.45801
v 502.61108 152.5 -91.45801
f 14//2 15//2 19//2 20//2
f 15//3 16//3 21//3 19//3
f 16//4 13//4 22//4 21//4
g wall_2_10
usemtl wall_1_1
v 498.8011 152.5 90.15199
v 498.8011 152.5 -91.45801
f 17//6 18//6 23//6 24//6
f 18//2 14//2 20//2 23//2
f 13//4 17//4 24//4 22//4
g wall_2_11
usemtl wall_1_1
f 22//7 20//7 19//7
f 22//7 19//7 21//7
g wall_2_12
usemtl wall_1_1
f 24//7 23//7 20//7
f 24//7 20//7 22//7
g wall_3_13
usemtl wall_1_1
v 365.72223 0.0 -2.8235497
v 365.72223 0.0 0.9864502
v 502.61108 0.0 0.9864502
v 502.61108 0.0 -2.8235497
f 28//1 27//1 26//1
f 28//1 26//1 25//1
g wall_3_14
usemtl wall_1_1
v 365.72223 0.0 4.79645
v 502.61108 0.0 4.79645
f 27//1 30//1 29//1
f 27//1 29//1 26//1
g wall_3_15
usemtl wall_1_1
v 365.72223 152.5 0.9864502
v 365.72223 152.5 -2.8235497
v 502.61108 152.5 -2.8235497
v 502.61108 152.5 0.9864502
f 25//6 26//6 31//6 32//6
f 27//3 28//3 33//3 34//3
f 28//4 25//4 32//4 33//4
g wall_3_16
usemtl wall_1_1
v 365.72223 152.5 4.79645
v 502.61108 152.5 4.79645
f 26//6 29//6 35//6 31//6
f 29//2 30//2 36//2 35//2
f 30//3 27//3 34//3 36//3
g wall_3_17
usemtl wall_1_1
f 32//7 31//7 34//7
f 32//7 34//7 33//7
g wall_3_18
usemtl wall_1_1
f 31//7 35//7 36//7
f 31//7 36//7 34//7
