# 
# Generated by Sweet Home 3D - Mon Apr 10 18:18:35 CDT 2017
# http://www.sweethome3d.com/
# 
mtllib H.mtl
g wall_1_1
usemtl wall_1_1
v 365.72223 0.0 -91.45801
v 365.72223 0.0 90.15199
v 369.53223 0.0 90.15199
v 369.53223 0.0 -91.45801
vn 0.0 -1.0 0.0
f 4//1 3//1 2//1
f 4//1 2//1 1//1
g wall_1_2
usemtl wall_1_1
v 361.91223 0.0 -91.45801
v 361.91223 0.0 90.15199
f 1//1 2//1 6//1
f 1//1 6//1 5//1
g wall_1_3
usemtl wall_1_1
v 369.53223 152.5 90.15199
v 365.72223 152.5 90.15199
v 369.53223 152.5 -91.45801
v 365.72223 152.5 -91.45801
vt 0.0 0.0 0
vt 0.1209523 0.0 0
vt 0.1209523 4.84127 0
vt 0.0 4.84127 0
vt -5.765397 0.0 0
vt -5.765397 4.84127 0
vn 0.0 0.0 1.0
vn 1.0 0.0 0.0
vn 0.0 0.0 -1.0
vn 0.0 0.0 0.0
f 2/1/2 3/2/2 7/3/2 8/4/2
f 3/5/3 4/1/3 9/4/3 7/6/3
f 4/1/4 1/2/4 10/3/4 9/4/4
g wall_1_4
usemtl wall_1_1
v 361.91223 152.5 90.15199
v 361.91223 152.5 -91.45801
vt 5.765397 0.0 0
vt 5.765397 4.84127 0
vn -1.0 0.0 0.0
f 5/1/6 6/7/6 11/8/6 12/4/6
f 6/1/2 2/2/2 8/3/2 11/4/2
f 1/1/4 5/2/4 12/3/4 10/4/4
g wall_1_5
usemtl wall_1_1
vn 0.0 1.0 0.0
f 10//7 8//7 7//7
f 10//7 7//7 9//7
g wall_1_6
usemtl wall_1_1
f 12//7 11//7 8//7
f 12//7 8//7 10//7
g wall_2_7
usemtl wall_1_1
v 502.61108 0.0 -91.45801
v 502.61108 0.0 90.15199
v 506.42108 0.0 90.15199
v 506.42108 0.0 -91.45801
f 16//1 15//1 14//1
f 16//1 14//1 13//1
g wall_2_8
usemtl wall_1_1
v 498.8011 0.0 -91.45801
v 498.8011 0.0 90.15199
f 13//1 14//1 18//1
f 13//1 18//1 17//1
g wall_2_9
usemtl wall_1_1
v 506.42108 152.5 90.15199
v 502.61108 152.5 90.15199
v 506.42108 152.5 -91.45801
v 502.61108 152.5 -91.45801
f 14/1/2 15/2/2 19/3/2 20/4/2
f 15/5/3 16/1/3 21/4/3 19/6/3
f 16/1/4 13/2/4 22/3/4 21/4/4
g wall_2_10
usemtl wall_1_1
v 498.8011 152.5 90.15199
v 498.8011 152.5 -91.45801
f 17/1/6 18/7/6 23/8/6 24/4/6
f 18/1/2 14/2/2 20/3/2 23/4/2
f 13/1/4 17/2/4 24/3/4 22/4/4
g wall_2_11
usemtl wall_1_1
f 22//7 20//7 19//7
f 22//7 19//7 21//7
g wall_2_12
usemtl wall_1_1
f 24//7 23//7 20//7
f 24//7 20//7 22//7
g wall_3_13
usemtl wall_1_1
v 365.72223 0.0 -2.8235497
v 365.72223 0.0 0.9864502
v 502.61108 0.0 0.9864502
v 502.61108 0.0 -2.8235497
f 28//1 27//1 26//1
f 28//1 26//1 25//1
g wall_3_14
usemtl wall_1_1
v 365.72223 0.0 4.79645
v 502.61108 0.0 4.79645
f 27//1 30//1 29//1
f 27//1 29//1 26//1
g wall_3_15
usemtl wall_1_1
v 365.72223 152.5 0.9864502
v 365.72223 152.5 -2.8235497
v 502.61108 152.5 -2.8235497
v 502.61108 152.5 0.9864502
vt 0.12095238 0.0 0
vt 0.12095238 4.84127 0
vt -4.345678 0.0 0
vt -4.345678 4.84127 0
f 25/1/6 26/9/6 31/10/6 32/4/6
f 27/1/3 28/9/3 33/10/3 34/4/3
f 28/11/4 25/1/4 32/4/4 33/12/4
g wall_3_16
usemtl wall_1_1
v 365.72223 152.5 4.79645
v 502.61108 152.5 4.79645
vt 4.345678 0.0 0
vt 4.345678 4.84127 0
f 26/1/6 29/9/6 35/10/6 31/4/6
f 29/1/2 30/13/2 36/14/2 35/4/2
f 30/1/3 27/9/3 34/10/3 36/4/3
g wall_3_17
usemtl wall_1_1
f 32//7 31//7 34//7
f 32//7 34//7 33//7
g wall_3_18
usemtl wall_1_1
f 31//7 35//7 36//7
f 31//7 36//7 34//7
