# 
# Generated by Sweet Home 3D - Sat Apr 01 19:33:46 CST 2017
# http://www.sweethome3d.com/
# 
mtllib I.mtl
g wall_1_1
usemtl wall_1_1
v 587.05554 0.0 -94.37909
v 587.05554 0.0 -90.56909
v 695.00555 0.0 -90.56909
v 695.00555 0.0 -94.37909
vn 0.0 -1.0 0.0
f 4//1 3//1 2//1
f 4//1 2//1 1//1
g wall_1_2
usemtl wall_1_1
v 587.05554 0.0 -86.759094
v 695.00555 0.0 -86.759094
f 3//1 6//1 5//1
f 3//1 5//1 2//1
g wall_1_3
usemtl wall_1_1
v 587.05554 152.5 -90.56909
v 587.05554 152.5 -94.37909
v 695.00555 152.5 -94.37909
v 695.00555 152.5 -90.56909
vn -1.0 0.0 0.0
vn 1.0 0.0 0.0
vn 0.0 0.0 -1.0
vn 0.0 0.0 0.0
f 1//2 2//2 7//2 8//2
f 3//3 4//3 9//3 10//3
f 4//4 1//4 8//4 9//4
g wall_1_4
usemtl wall_1_1
v 587.05554 152.5 -86.759094
v 695.00555 152.5 -86.759094
vn 0.0 0.0 1.0
f 2//2 5//2 11//2 7//2
f 5//6 6//6 12//6 11//6
f 6//3 3//3 10//3 12//3
g wall_1_5
usemtl wall_1_1
vn 0.0 1.0 0.0
f 8//7 7//7 10//7
f 8//7 10//7 9//7
g wall_1_6
usemtl wall_1_1
f 7//7 11//7 12//7
f 7//7 12//7 10//7
g wall_2_7
usemtl wall_1_1
v 641.2778 0.0 -90.56909
v 641.2778 0.0 91.04091
v 645.08777 0.0 91.04091
v 645.08777 0.0 -90.56909
f 16//1 15//1 14//1
f 16//1 14//1 13//1
g wall_2_8
usemtl wall_1_1
v 637.4678 0.0 -90.56909
v 637.4678 0.0 91.04091
f 13//1 14//1 18//1
f 13//1 18//1 17//1
g wall_2_9
usemtl wall_1_1
v 645.08777 152.5 91.04091
v 641.2778 152.5 91.04091
v 645.08777 152.5 -90.56909
v 641.2778 152.5 -90.56909
f 14//6 15//6 19//6 20//6
f 15//3 16//3 21//3 19//3
f 16//4 13//4 22//4 21//4
g wall_2_10
usemtl wall_1_1
v 637.4678 152.5 91.04091
v 637.4678 152.5 -90.56909
f 17//2 18//2 23//2 24//2
f 18//6 14//6 20//6 23//6
f 13//4 17//4 24//4 22//4
g wall_2_11
usemtl wall_1_1
f 22//7 20//7 19//7
f 22//7 19//7 21//7
g wall_2_12
usemtl wall_1_1
f 24//7 23//7 20//7
f 24//7 20//7 22//7
g wall_3_13
usemtl wall_1_1
v 587.05554 0.0 87.23091
v 587.05554 0.0 91.04091
v 695.00555 0.0 91.04091
v 695.00555 0.0 87.23091
f 28//1 27//1 26//1
f 28//1 26//1 25//1
g wall_3_14
usemtl wall_1_1
v 587.05554 0.0 94.85091
v 695.00555 0.0 94.85091
f 27//1 30//1 29//1
f 27//1 29//1 26//1
g wall_3_15
usemtl wall_1_1
v 587.05554 152.5 91.04091
v 587.05554 152.5 87.23091
v 695.00555 152.5 87.23091
v 695.00555 152.5 91.04091
f 25//2 26//2 31//2 32//2
f 27//3 28//3 33//3 34//3
f 28//4 25//4 32//4 33//4
g wall_3_16
usemtl wall_1_1
v 587.05554 152.5 94.85091
v 695.00555 152.5 94.85091
f 26//2 29//2 35//2 31//2
f 29//6 30//6 36//6 35//6
f 30//3 27//3 34//3 36//3
g wall_3_17
usemtl wall_1_1
f 32//7 31//7 34//7
f 32//7 34//7 33//7
g wall_3_18
usemtl wall_1_1
f 31//7 35//7 36//7
f 31//7 36//7 34//7
