# 
# Generated by Sweet Home 3D - Mon Apr 03 00:51:25 CDT 2017
# http://www.sweethome3d.com/
# 
mtllib tile_1.mtl
g room_1_1
usemtl room_1_1
v 4.1988854 0.0 -363.01355
v 4.1988773 0.0 -185.04578
v 178.18887 0.0 -185.04578
v 178.18886 0.0 -363.01355
vt 0.20663807 23.819788 0
vt 0.20663767 12.142112 0
vt 8.769137 12.142112 0
vt 8.769136 23.819788 0
vn 0.0 1.0 0.0
f 1/1/1 2/2/1 3/3/1
f 1/1/1 3/3/1 4/4/1
g room_1_2
usemtl room_1_1
v 178.18886 152.4 -363.01355
v 178.18887 152.4 -185.04578
v 4.1988773 152.4 -185.04578
v 4.1988854 152.4 -363.01355
vt 8.769136 -23.819788 0
vt 8.769137 -12.142112 0
vt 0.20663767 -12.142112 0
vt 0.20663807 -23.819788 0
vn 0.0 -1.0 0.0
f 5/5/2 6/6/2 7/7/2
f 5/5/2 7/7/2 8/8/2
g wall_2_3
usemtl wall_2_3
v 0.3888855 0.0 -366.82355
v 0.3888774 0.0 -181.23578
v 4.1988854 0.0 -366.82355
f 11//2 2//2 10//2
f 11//2 10//2 9//2
g wall_2_4
usemtl wall_2_3
v -3.4211144 0.0 -366.82355
v -3.4211226 0.0 -177.42578
f 9//2 10//2 13//2
f 9//2 13//2 12//2
g wall_2_5
usemtl wall_2_3
v 4.1988773 152.5 -185.04578
v 0.3888774 152.5 -181.23578
v 4.1988854 152.5 -366.82355
v 0.3888855 152.5 -366.82355
vt 0.0 0.0 0
vt 0.17105244 0.0 0
vt 0.17105244 4.84127 0
vt 0.0 4.84127 0
vt -5.770723 0.0 0
vt -5.770723 4.84127 0
vt 0.12095238 0.0 0
vt 0.12095238 4.84127 0
vn 0.7071066 0.0 0.70710695
vn 1.0 0.0 0
vn 0.0 0.0 -1.0
vn 0.0 0.0 0.0
f 10/9/3 2/10/3 14/11/3 15/12/3
f 2/13/4 11/9/4 16/12/4 14/14/4
f 11/9/5 9/15/5 17/16/5 16/12/5
g wall_2_6
usemtl wall_2_3
v -3.4211226 152.5 -177.42578
v -3.4211144 152.5 -366.82355
vt 6.0126276 0.0 0
vt 6.0126276 4.84127 0
vn -1.0 0.0 -0
f 12/9/7 13/17/7 18/18/7 19/12/7
f 13/9/3 10/10/3 15/11/3 18/12/3
f 9/9/5 12/15/5 19/16/5 17/12/5
g wall_2_7
usemtl wall_2_3
f 17//1 15//1 14//1
f 17//1 14//1 16//1
g wall_2_8
usemtl wall_2_3
f 19//1 18//1 15//1
f 19//1 15//1 17//1
g wall_3_9
usemtl wall_2_3
v 181.99887 0.0 -181.23578
f 3//2 20//2 10//2
f 3//2 10//2 2//2
g wall_3_10
usemtl wall_2_3
v 185.80887 0.0 -177.42578
f 20//2 21//2 13//2
f 20//2 13//2 10//2
g wall_3_11
usemtl wall_2_3
v 178.18887 152.5 -185.04578
v 181.99887 152.5 -181.23578
vt 0.17105238 0.0 0
vt 0.17105238 4.84127 0
vt -5.523492 0.0 0
vt -5.523492 4.84127 0
vn -0.7071066 0.0 -0.70710695
vn 0.70710677 0.0 -0.70710677
f 2/9/8 10/10/8 15/11/8 14/12/8
f 20/9/9 3/19/9 22/20/9 23/12/9
f 3/21/5 2/9/5 14/12/5 22/22/5
g wall_3_12
usemtl wall_2_3
v 185.80887 152.5 -177.42578
vt 6.0073013 0.0 0
vt 6.0073013 4.84127 0
vn 0.0 0.0 1.0
f 10/9/8 13/10/8 18/11/8 15/12/8
f 13/9/10 21/23/10 24/24/10 18/12/10
f 21/9/9 20/19/9 23/20/9 24/12/9
g wall_3_13
usemtl wall_2_3
f 14//1 15//1 23//1
f 14//1 23//1 22//1
g wall_3_14
usemtl wall_2_3
f 15//1 18//1 24//1
f 15//1 24//1 23//1
g wall_4_15
usemtl wall_2_3
v 181.99886 0.0 -366.82355
f 20//2 3//2 4//2
f 20//2 4//2 25//2
g wall_4_16
usemtl wall_2_3
v 185.80885 0.0 -370.63354
f 21//2 20//2 25//2
f 21//2 25//2 26//2
g wall_4_17
usemtl wall_2_3
v 178.18886 152.5 -363.01355
v 181.99886 152.5 -366.82355
vt -5.6497707 0.0 0
vt -5.6497707 4.84127 0
vn -0.70710677 0.0 -0.70710677
vn -1.0 0.0 0.0000001
vn -0.70710677 0.0 0.70710677
f 25/9/11 4/19/11 27/20/11 28/12/11
f 4/25/12 3/9/12 22/12/12 27/26/12
f 3/9/13 20/19/13 23/20/13 22/12/13
g wall_4_18
usemtl wall_2_3
v 185.80885 152.5 -370.63354
vt 6.1335797 0.0 0
vt 6.1335797 4.84127 0
vn 1.0 0.0 -0.0000001
f 26/9/11 25/19/11 28/20/11 29/12/11
f 20/9/13 21/19/13 24/20/13 23/12/13
f 21/9/14 26/27/14 29/28/14 24/12/14
g wall_4_19
usemtl wall_2_3
f 28//1 27//1 22//1
f 28//1 22//1 23//1
g wall_4_20
usemtl wall_2_3
f 29//1 28//1 23//1
f 29//1 23//1 24//1
g wall_5_21
usemtl wall_2_3
v -3.4211426 0.0 -366.82355
v -3.4211426 0.0 -363.01355
f 25//2 4//2 31//2
f 25//2 31//2 30//2
g wall_5_22
usemtl wall_2_3
v -3.4211426 0.0 -370.63354
f 26//2 25//2 30//2
f 26//2 30//2 32//2
g wall_5_23
usemtl wall_2_3
v -3.4211426 152.5 -363.01355
v -3.4211426 152.5 -366.82355
vt 0.1209523 0.0 0
vt 0.1209523 4.84127 0
vt -5.765397 0.0 0
vt -5.765397 4.84127 0
vn -1.0 0.0 0.0
vn 0.70710677 0.0 0.70710677
f 30/9/15 31/29/15 33/30/15 34/12/15
f 31/31/10 4/9/10 27/12/10 33/32/10
f 4/9/16 25/19/16 28/20/16 27/12/16
g wall_5_24
usemtl wall_2_3
v -3.4211426 152.5 -370.63354
f 32/9/15 30/29/15 34/30/15 35/12/15
f 25/9/16 26/19/16 29/20/16 28/12/16
f 26/9/5 32/23/5 35/24/5 29/12/5
g wall_5_25
usemtl wall_2_3
f 34//1 33//1 27//1
f 34//1 27//1 28//1
g wall_5_26
usemtl wall_2_3
f 35//1 34//1 28//1
f 35//1 28//1 29//1
