# 
# Generated by Sweet Home 3D - Wed Apr 05 00:19:05 CDT 2017
# http://www.sweethome3d.com/
# 
mtllib tile.mtl
g room_1_1
usemtl room_1_1
v 4.1988854 0.0 -363.01355
v 4.1988773 0.0 -185.04578
v 178.18887 0.0 -185.04578
v 178.18886 0.0 -363.01355
vt 0.20663807 23.819788 0
vt 0.20663767 12.142112 0
vt 8.769137 12.142112 0
vt 8.769136 23.819788 0
vn 0.0 1.0 0.0
f 1/1/1 2/2/1 3/3/1
f 1/1/1 3/3/1 4/4/1
g wall_2_2
usemtl wall_2_2
v 0.3888855 0.0 -366.82355
v 0.3888774 0.0 -181.23578
v 4.1988854 0.0 -366.82355
vn 0.0 -1.0 0.0
f 7//2 2//2 6//2
f 7//2 6//2 5//2
g wall_2_3
usemtl wall_2_2
v -3.4211144 0.0 -366.82355
v -3.4211226 0.0 -177.42578
f 5//2 6//2 9//2
f 5//2 9//2 8//2
g wall_2_4
usemtl wall_2_2
v 4.1988773 152.5 -185.04578
v 0.3888774 152.5 -181.23578
v 4.1988854 152.5 -366.82355
v 0.3888855 152.5 -366.82355
vt 0.0 0.0 0
vt 0.17105244 0.0 0
vt 0.17105244 4.84127 0
vt 0.0 4.84127 0
vt -5.770723 0.0 0
vt -5.770723 4.84127 0
vt 0.12095238 0.0 0
vt 0.12095238 4.84127 0
vn 0.7071066 0.0 0.70710695
vn 1.0 0.0 0
vn 0.0 0.0 -1.0
vn 0.0 0.0 0.0
f 6/5/3 2/6/3 10/7/3 11/8/3
f 2/9/4 7/5/4 12/8/4 10/10/4
f 7/5/5 5/11/5 13/12/5 12/8/5
g wall_2_5
usemtl wall_2_2
v -3.4211226 152.5 -177.42578
v -3.4211144 152.5 -366.82355
vt 6.0126276 0.0 0
vt 6.0126276 4.84127 0
vn -1.0 0.0 -0
f 8/5/7 9/13/7 14/14/7 15/8/7
f 9/5/3 6/6/3 11/7/3 14/8/3
f 5/5/5 8/11/5 15/12/5 13/8/5
g wall_2_6
usemtl wall_2_2
f 13//1 11//1 10//1
f 13//1 10//1 12//1
g wall_2_7
usemtl wall_2_2
f 15//1 14//1 11//1
f 15//1 11//1 13//1
g wall_3_8
usemtl wall_2_2
v 181.99887 0.0 -181.23578
f 3//2 16//2 6//2
f 3//2 6//2 2//2
g wall_3_9
usemtl wall_2_2
v 185.80887 0.0 -177.42578
f 16//2 17//2 9//2
f 16//2 9//2 6//2
g wall_3_10
usemtl wall_2_2
v 178.18887 152.5 -185.04578
v 181.99887 152.5 -181.23578
vt 0.17105238 0.0 0
vt 0.17105238 4.84127 0
vt -5.523492 0.0 0
vt -5.523492 4.84127 0
vn -0.7071066 0.0 -0.70710695
vn 0.70710677 0.0 -0.70710677
f 2/5/8 6/6/8 11/7/8 10/8/8
f 16/5/9 3/15/9 18/16/9 19/8/9
f 3/17/5 2/5/5 10/8/5 18/18/5
g wall_3_11
usemtl wall_2_2
v 185.80887 152.5 -177.42578
vt 6.0073013 0.0 0
vt 6.0073013 4.84127 0
vn 0.0 0.0 1.0
f 6/5/8 9/6/8 14/7/8 11/8/8
f 9/5/10 17/19/10 20/20/10 14/8/10
f 17/5/9 16/15/9 19/16/9 20/8/9
g wall_3_12
usemtl wall_2_2
f 10//1 11//1 19//1
f 10//1 19//1 18//1
g wall_3_13
usemtl wall_2_2
f 11//1 14//1 20//1
f 11//1 20//1 19//1
g wall_4_14
usemtl wall_2_2
v 181.99886 0.0 -366.82355
f 16//2 3//2 4//2
f 16//2 4//2 21//2
g wall_4_15
usemtl wall_2_2
v 185.80885 0.0 -370.63354
f 17//2 16//2 21//2
f 17//2 21//2 22//2
g wall_4_16
usemtl wall_2_2
v 178.18886 152.5 -363.01355
v 181.99886 152.5 -366.82355
vt -5.6497707 0.0 0
vt -5.6497707 4.84127 0
vn -0.70710677 0.0 -0.70710677
vn -1.0 0.0 0.0000001
vn -0.70710677 0.0 0.70710677
f 21/5/11 4/15/11 23/16/11 24/8/11
f 4/21/12 3/5/12 18/8/12 23/22/12
f 3/5/13 16/15/13 19/16/13 18/8/13
g wall_4_17
usemtl wall_2_2
v 185.80885 152.5 -370.63354
vt 6.1335797 0.0 0
vt 6.1335797 4.84127 0
vn 1.0 0.0 -0.0000001
f 22/5/11 21/15/11 24/16/11 25/8/11
f 16/5/13 17/15/13 20/16/13 19/8/13
f 17/5/14 22/23/14 25/24/14 20/8/14
g wall_4_18
usemtl wall_2_2
f 24//1 23//1 18//1
f 24//1 18//1 19//1
g wall_4_19
usemtl wall_2_2
f 25//1 24//1 19//1
f 25//1 19//1 20//1
g wall_5_20
usemtl wall_2_2
v -3.4211426 0.0 -366.82355
v -3.4211426 0.0 -363.01355
f 21//2 4//2 27//2
f 21//2 27//2 26//2
g wall_5_21
usemtl wall_2_2
v -3.4211426 0.0 -370.63354
f 22//2 21//2 26//2
f 22//2 26//2 28//2
g wall_5_22
usemtl wall_2_2
v -3.4211426 152.5 -363.01355
v -3.4211426 152.5 -366.82355
vt 0.1209523 0.0 0
vt 0.1209523 4.84127 0
vt -5.765397 0.0 0
vt -5.765397 4.84127 0
vn -1.0 0.0 0.0
vn 0.70710677 0.0 0.70710677
f 26/5/15 27/25/15 29/26/15 30/8/15
f 27/27/10 4/5/10 23/8/10 29/28/10
f 4/5/16 21/15/16 24/16/16 23/8/16
g wall_5_23
usemtl wall_2_2
v -3.4211426 152.5 -370.63354
f 28/5/15 26/25/15 30/26/15 31/8/15
f 21/5/16 22/15/16 25/16/16 24/8/16
f 22/5/5 28/19/5 31/20/5 25/8/5
g wall_5_24
usemtl wall_2_2
f 30//1 29//1 23//1
f 30//1 23//1 24//1
g wall_5_25
usemtl wall_2_2
f 31//1 30//1 24//1
f 31//1 24//1 25//1
